$MeshFormat
4.1 0 8
$EndMeshFormat
$PhysicalNames
2
2 1 "Circle"
2 2 "Square"
$EndPhysicalNames
$Entities
9 8 3 0
1 0 0 0 0 
2 1 0 0 0 
3 1 1 0 0 
4 0 1 0 0 
5 0.5 0.5 0 0 
6 0.5 0.65 0 0 
7 0.65 0.5 0 0 
8 0.5 0.35 0 0 
9 0.35 0.5 0 0 
1 -9.999999994736442e-08 -1e-07 -1e-07 1.0000001 1e-07 1e-07 0 2 1 -2 
2 0.9999999000000001 -9.999999994736442e-08 -1e-07 1.0000001 1.0000001 1e-07 0 2 2 -3 
3 -9.999999994736442e-08 0.9999999000000001 -1e-07 1.0000001 1.0000001 1e-07 0 2 3 -4 
4 -1e-07 -9.999999994736442e-08 -1e-07 1e-07 1.0000001 1e-07 0 2 4 -1 
5 0.3499999 0.4999999 -1e-07 0.5000000999999999 0.6500001 1e-07 0 2 6 -9 
6 0.3499999 0.3499999 -1e-07 0.5000000999999999 0.5000000999999999 1e-07 0 2 9 -8 
7 0.4999999 0.3499999 -1e-07 0.6500001 0.5000000999999999 1e-07 0 2 8 -7 
8 0.4999999 0.4999999 -1e-07 0.6500001 0.6500001 1e-07 0 2 6 -7 
1 -9.999999994736442e-08 -9.999999994736442e-08 -1e-07 1.0000001 1.0000001 1e-07 0 4 1 2 3 4 
2 0.3499999 0.3499999 -1e-07 0.6500001 0.6500001 1e-07 1 1 4 5 6 7 -8 
3 -9.999999994736442e-08 -9.999999994736442e-08 -1e-07 1.0000001 1.0000001 1e-07 1 2 8 1 2 3 4 8 -7 -6 -5 
$EndEntities
$Nodes
18 179 1 179
0 1 0 1
1
0 0 0
0 2 0 1
2
1 0 0
0 3 0 1
3
1 1 0
0 4 0 1
4
0 1 0
0 6 0 1
5
0.5 0.65 0
0 7 0 1
6
0.65 0.5 0
0 8 0 1
7
0.5 0.35 0
0 9 0 1
8
0.35 0.5 0
1 1 0 9
9
10
11
12
13
14
15
16
17
0.1 0 0
0.2 0 0
0.3 0 0
0.4 0 0
0.5 0 0
0.6 0 0
0.7 0 0
0.8 0 0
0.9 0 0
1 2 0 9
18
19
20
21
22
23
24
25
26
1 0.1 0
1 0.2 0
1 0.3 0
1 0.4 0
1 0.5 0
1 0.6 0
1 0.7 0
1 0.8 0
1 0.9 0
1 3 0 9
27
28
29
30
31
32
33
34
35
0.9 1 0
0.8 1 0
0.7 1 0
0.6 1 0
0.5 1 0
0.4 1 0
0.3 1 0
0.2 1 0
0.09999999999999998 1 0
1 4 0 9
36
37
38
39
40
41
42
43
44
0 0.9 0
0 0.8 0
0 0.7 0
0 0.6 0
0 0.5 0
0 0.4 0
0 0.3 0
0 0.2 0
0 0.09999999999999998 0
1 5 0 2
45
46
0.425 0.6299038105676658 0
0.3700961894323342 0.5750000000000001 0
1 6 0 2
47
48
0.3700961894323342 0.4249999999999999 0
0.4250000000000002 0.3700961894323341 0
1 7 0 2
49
50
0.5750000000000001 0.3700961894323342 0
0.629903810567666 0.4250000000000002 0
1 8 0 2
51
52
0.5750000000000001 0.6299038105676658 0
0.6299038105676658 0.5750000000000001 0
2 2 0 14
53
54
55
56
57
58
59
60
61
62
63
64
65
66
0.5549038105676659 0.5549038105676659 0
0.4501316100713496 0.4419747798573103 0
0.5549038105676659 0.4450961894323342 0
0.4419715602833253 0.5610122112501256 0
0.5239001072087991 0.6004012737091049 0
0.602451905283833 0.4725480947161672 0
0.499205187235233 0.554452538392153 0
0.5409235305220568 0.5018963829237719 0
0.4739781451578748 0.501374307156214 0
0.411636982835284 0.496950764760631 0
0.5082890979526518 0.4582642484492553 0
0.5022207530986113 0.4059212661005947 0
0.602451905283833 0.5274519052838329 0
0.4780153709454715 0.5991539667838098 0
2 3 0 113
67
68
69
70
71
72
73
74
75
76
77
78
79
80
81
82
83
84
85
86
87
88
89
90
91
92
93
94
95
96
97
98
99
100
101
102
103
104
105
106
107
108
109
110
111
112
113
114
115
116
117
118
119
120
121
122
123
124
125
126
127
128
129
130
131
132
133
134
135
136
137
138
139
140
141
142
143
144
145
146
147
148
149
150
151
152
153
154
155
156
157
158
159
160
161
162
163
164
165
166
167
168
169
170
171
172
173
174
175
176
177
178
179
0.6499999999999999 0.6499999999999999 0
0.3581055934136721 0.6538494792243934 0
0.6500000000000001 0.3500000000000002 0
0.3476993949497165 0.3504479797654181 0
0.7318447659570106 0.9103333390452075 0
0.0892266991350289 0.7458744893588621 0
0.7518513578083075 0.08210160538954969 0
0.08662624548526077 0.2587879092125385 0
0.5524139407273666 0.07388097663144 0
0.9215550288728467 0.4530240056339381 0
0.4488270096323422 0.9258624731060515 0
0.0845108161735747 0.4580350339467123 0
0.9132571901155859 0.6540340586486248 0
0.3480434358211456 0.07790562074425356 0
0.7024945143282487 0.5719489119958938 0
0.5927232233063987 0.7094847706804572 0
0.2959365157960642 0.5960739800852205 0
0.4069526349117953 0.2906473643481776 0
0.2552474759025896 0.9216057690622488 0
0.9227584380168465 0.258606883537861 0
0.3254311340091325 0.2671772056838911 0
0.2665747419119441 0.3313189207663561 0
0.5549038105676658 0.2950961894323343 0
0.7024623462579205 0.4280392162403398 0
0.4456966997354511 0.7031740520691874 0
0.6377629455367764 0.2613875789299596 0
0.3617730145890276 0.7397451294527594 0
0.7399394728063307 0.3578404888810795 0
0.6733534232340849 0.7282152761860962 0
0.6096070789956802 0.7884566386739243 0
0.2632434589373488 0.5162723990087162 0
0.2087041867741143 0.5800966042649228 0
0.227429302237069 0.6504649061313142 0
0.7343449644108263 0.6508461064744028 0
0.7637179192063152 0.7381289812333262 0
0.7891264491063089 0.5689256002666991 0
0.2402978077283247 0.2471827173310951 0
0.9110413825137307 0.8443351356025931 0
0.150275532123989 0.08491235101291705 0
0.3855233937696529 0.2122199275160186 0
0.5751709414051043 0.2108183948444822 0
0.647456705411912 0.1788386233041869 0
0.7303747681331779 0.2270033384726327 0
0.7889419730643354 0.4309982429788143 0
0.8241933559442798 0.3523962169054429 0
0.4260471822631245 0.7885020575929081 0
0.3523962169054425 0.8241933559442797 0
0.2851274413233684 0.7792429213358701 0
0.1495183995375527 0.652684235757105 0
0.1704691916596961 0.3169515223838069 0
0.2094314452051625 0.3977322993268918 0
0.1225834663967174 0.5604794594148849 0
0.701483857445601 0.8107379188346054 0
0.631909681205996 0.872963765008679 0
0.5555792252550821 0.839834450916124 0
0.8017307654502415 0.8289090988283563 0
0.8582436603652873 0.7480740476767931 0
0.4821678329596493 0.2306851220102499 0
0.4522496244353801 0.1580679450814 0
0.5198568424892417 0.7681509229234802 0
0.07981354325607881 0.3553994976945284 0
0.9224609004915135 0.5501789348738695 0
0.2046368835653225 0.7406448042242247 0
0.1509558172516282 0.8203650793025219 0
0.2496183578535301 0.0829752908186735 0
0.3054776706907246 0.1710046488639822 0
0.8497776513702744 0.08489431680337234 0
0.8002661696161202 0.1570100176175053 0
0.1994872383135606 0.1629563112823126 0
0.1510668778195939 0.9151317062923106 0
0.6517731039937662 0.08938093970642891 0
0.8194223453122329 0.6590303885438409 0
0.351531559428758 0.9130802251390241 0
0.9130251414680784 0.3539345393103978 0
0.09302413687891414 0.1581991194850675 0
0.8451324024933022 0.9167926960375027 0
0.9121466884651622 0.1564306751556746 0
0.2894900048466773 0.404008463164055 0
0.8421092952915743 0.4998420079974546 0
0.1811398464197461 0.4804066915825182 0
0.7769085177918207 0.2906979184923446 0
0.7531394479776182 0.4999850570626338 0
0.4520795697769395 0.08168635330070884 0
0.07562609190986253 0.8531440196167951 0
0.06851073134056945 0.639171212444149 0
0.5509045072462494 0.9256487818077357 0
0.7038811403972935 0.2976162774833341 0
0.2304420999358578 0.8351438972124463 0
0.2918220687192302 0.6958560467162445 0
0.1579809240131512 0.228815515938964 0
0.8355967375158966 0.2399383902645059 0
0.9373060801901837 0.75 0
0.7177678268962122 0.1532186442073055 0
0.8576958637300822 0.5921505936851117 0
0.4760939233251212 0.8457351325057074 0
0.9267949192431124 0.07320508075688764 0
0.07320508075688775 0.07320508075688775 0
0.9267949192431124 0.9267949192431124 0
0.1401168292226459 0.399745876441452 0
0.5282214272980023 0.1537390287465271 0
0.3892491958503796 0.1424704667389965 0
0.8566522819250142 0.415838302644807 0
0.65 0.9459108046831124 0
0.4693276690443001 0.3014622762493359 0
0.531533776893476 0.6993374320634604 0
0.2446401473900445 0.4522149592770662 0
0.05154253536348746 0.5499999999999999 0
0.06324420345579945 0.9364938585828595 0
0.4109791783109577 0.8594746488575942 0
0.2942124172858395 0.860776624806898 0
0.5929218971125649 0.13762672841252 0
0.8640294523020581 0.2997464661528815 0
0.302755032185927 0.4619117043883419 0
$EndNodes
$Elements
2 316 1 316
2 2 2 38
1 48 64 54 
2 7 64 48 
3 54 64 63 
4 46 62 56 
5 8 62 46 
6 50 55 49 
7 51 53 52 
8 46 56 45 
9 48 54 47 
10 47 62 8 
11 54 62 47 
12 58 65 60 
13 58 60 55 
14 60 65 53 
15 49 64 7 
16 55 64 49 
17 52 65 6 
18 50 58 55 
19 45 66 5 
20 5 57 51 
21 53 65 52 
22 6 58 50 
23 56 66 45 
24 51 57 53 
25 61 62 54 
26 54 63 61 
27 56 62 61 
28 59 60 53 
29 59 61 60 
30 60 63 55 
31 61 63 60 
32 63 64 55 
33 56 61 59 
34 57 59 53 
35 59 66 56 
36 57 66 59 
37 6 65 58 
38 5 66 57 
2 3 2 278
39 83 97 8 
40 46 83 8 
41 71 120 119 
42 89 92 69 
43 49 89 69 
44 69 90 50 
45 45 91 68 
46 52 81 67 
47 91 93 68 
48 69 94 90 
49 81 100 67 
50 99 155 129 
51 129 155 114 
52 115 129 72 
53 67 100 95 
54 106 124 84 
55 122 123 104 
56 100 101 95 
57 96 126 82 
58 72 151 115 
59 90 148 6 
60 6 148 81 
61 101 122 119 
62 116 127 74 
63 78 146 118 
64 114 154 129 
65 119 122 71 
66 146 165 117 
67 143 157 134 
68 135 156 141 
69 121 126 96 
70 109 157 147 
71 106 125 124 
72 104 142 122 
73 123 138 79 
74 134 157 109 
75 71 169 120 
76 68 155 83 
77 101 119 95 
78 78 165 146 
79 72 150 37 
80 103 132 87 
81 87 132 106 
82 133 143 134 
83 117 172 146 
84 83 155 99 
85 124 170 84 
86 149 166 125 
87 79 158 123 
88 118 173 78 
89 129 154 130 
90 126 171 82 
91 75 166 149 
92 135 141 105 
93 77 161 152 
94 152 161 121 
95 141 156 74 
96 74 156 116 
97 130 150 72 
98 73 137 15 
99 103 135 132 
100 86 157 143 
101 101 123 122 
102 20 140 86 
103 85 139 33 
104 136 154 85 
105 130 154 136 
106 41 127 78 
107 79 128 23 
108 123 158 104 
109 122 142 71 
110 102 138 100 
111 80 132 131 
112 101 138 123 
113 80 131 11 
114 73 159 137 
115 133 134 73 
116 16 133 73 
117 132 135 131 
118 22 128 76 
119 89 107 92 
120 74 127 42 
121 94 110 90 
122 91 112 93 
123 81 102 100 
124 41 78 40 
125 22 76 21 
126 32 77 31 
127 14 75 13 
128 12 80 11 
129 24 79 23 
130 29 71 28 
131 38 72 37 
132 16 73 15 
133 43 74 42 
134 83 98 97 
135 100 138 101 
136 10 131 105 
137 47 144 70 
138 42 127 41 
139 23 128 22 
140 115 151 118 
141 17 133 16 
142 129 130 72 
143 11 131 10 
144 34 85 33 
145 20 86 19 
146 116 165 127 
147 34 136 85 
148 10 105 9 
149 26 104 25 
150 120 152 121 
151 121 161 126 
152 151 173 118 
153 89 124 107 
154 91 126 112 
155 15 137 14 
156 88 117 116 
157 137 159 108 
158 120 169 152 
159 75 149 13 
160 21 140 20 
161 33 139 32 
162 131 135 105 
163 70 144 88 
164 12 149 80 
165 14 137 75 
166 77 152 31 
167 19 143 18 
168 44 141 43 
169 28 142 27 
170 32 139 77 
171 76 140 21 
172 38 151 72 
173 35 136 34 
174 71 142 28 
175 43 141 74 
176 125 166 124 
177 83 99 98 
178 49 69 50 
179 45 68 46 
180 47 70 48 
181 52 67 51 
182 120 121 96 
183 7 89 49 
184 5 91 45 
185 50 90 6 
186 6 81 52 
187 78 173 40 
188 86 143 19 
189 37 150 36 
190 107 108 92 
191 108 109 92 
192 99 129 115 
193 24 158 79 
194 29 169 71 
195 113 114 93 
196 115 118 98 
197 112 113 93 
198 94 111 110 
199 128 145 76 
200 132 167 106 
201 88 144 117 
202 88 116 103 
203 70 84 48 
204 99 115 98 
205 140 178 86 
206 124 166 107 
207 95 119 96 
208 7 170 89 
209 70 88 87 
210 68 83 46 
211 67 82 51 
212 5 171 91 
213 117 165 116 
214 119 120 96 
215 87 106 84 
216 104 158 25 
217 149 167 80 
218 95 96 82 
219 67 95 82 
220 85 176 139 
221 88 103 87 
222 70 87 84 
223 89 170 124 
224 145 160 102 
225 126 161 112 
226 97 179 8 
227 91 171 126 
228 109 159 134 
229 2 162 17 
230 18 162 2 
231 48 170 7 
232 3 164 26 
233 9 163 1 
234 1 163 44 
235 27 164 3 
236 51 171 5 
237 69 153 94 
238 98 146 97 
239 80 167 132 
240 92 153 69 
241 102 148 145 
242 145 148 110 
243 93 155 68 
244 79 160 128 
245 102 160 138 
246 84 170 48 
247 8 179 47 
248 94 147 111 
249 127 165 78 
250 81 148 102 
251 118 146 98 
252 128 160 145 
253 110 148 90 
254 82 171 51 
255 47 179 144 
256 136 150 130 
257 13 149 12 
258 134 159 73 
259 125 167 149 
260 39 151 38 
261 147 178 111 
262 31 152 30 
263 110 168 145 
264 103 156 135 
265 39 173 151 
266 152 169 30 
267 140 168 111 
268 113 176 114 
269 109 153 92 
270 114 155 93 
271 139 176 113 
272 143 162 18 
273 44 163 141 
274 142 164 27 
275 25 158 24 
276 157 178 147 
277 4 174 35 
278 36 174 4 
279 106 167 125 
280 76 168 140 
281 116 156 103 
282 17 162 133 
283 145 168 76 
284 35 174 136 
285 113 175 139 
286 26 164 104 
287 105 163 9 
288 108 177 137 
289 146 172 97 
290 94 153 147 
291 133 162 143 
292 30 169 29 
293 139 175 77 
294 111 178 140 
295 40 173 39 
296 138 160 79 
297 104 164 142 
298 141 163 105 
299 108 159 109 
300 137 177 75 
301 107 177 108 
302 114 176 154 
303 147 153 109 
304 112 175 113 
305 136 174 150 
306 111 168 110 
307 144 172 117 
308 166 177 107 
309 161 175 112 
310 150 174 36 
311 154 176 85 
312 86 178 157 
313 77 175 161 
314 75 177 166 
315 144 179 172 
316 172 179 97 
$EndElements
