$MeshFormat
4.1 0 8
$EndMeshFormat
$PhysicalNames
2
2 1 "Circle"
2 2 "Square"
$EndPhysicalNames
$Entities
9 8 3 0
1 0 0 0 0 
2 1 0 0 0 
3 1 1 0 0 
4 0 1 0 0 
5 0.5 0.5 0 0 
6 0.5 0.65 0 0 
7 0.65 0.5 0 0 
8 0.5 0.35 0 0 
9 0.35 0.5 0 0 
1 -9.999999994736442e-08 -1e-07 -1e-07 1.0000001 1e-07 1e-07 0 2 1 -2 
2 0.9999999000000001 -9.999999994736442e-08 -1e-07 1.0000001 1.0000001 1e-07 0 2 2 -3 
3 -9.999999994736442e-08 0.9999999000000001 -1e-07 1.0000001 1.0000001 1e-07 0 2 3 -4 
4 -1e-07 -9.999999994736442e-08 -1e-07 1e-07 1.0000001 1e-07 0 2 4 -1 
5 0.3499999 0.4999999 -1e-07 0.5000000999999999 0.6500001 1e-07 0 2 6 -9 
6 0.3499999 0.3499999 -1e-07 0.5000000999999999 0.5000000999999999 1e-07 0 2 9 -8 
7 0.4999999 0.3499999 -1e-07 0.6500001 0.5000000999999999 1e-07 0 2 8 -7 
8 0.4999999 0.4999999 -1e-07 0.6500001 0.6500001 1e-07 0 2 6 -7 
1 -9.999999994736442e-08 -9.999999994736442e-08 -1e-07 1.0000001 1.0000001 1e-07 0 4 1 2 3 4 
2 0.3499999 0.3499999 -1e-07 0.6500001 0.6500001 1e-07 1 1 4 5 6 7 -8 
3 -9.999999994736442e-08 -9.999999994736442e-08 -1e-07 1.0000001 1.0000001 1e-07 1 2 8 1 2 3 4 8 -7 -6 -5 
$EndEntities
$Nodes
18 827 1 827
0 1 0 1
1
0 0 0
0 2 0 1
2
1 0 0
0 3 0 1
3
1 1 0
0 4 0 1
4
0 1 0
0 6 0 1
5
0.5 0.65 0
0 7 0 1
6
0.65 0.5 0
0 8 0 1
7
0.5 0.35 0
0 9 0 1
8
0.35 0.5 0
1 1 0 24
9
10
11
12
13
14
15
16
17
18
19
20
21
22
23
24
25
26
27
28
29
30
31
32
0.04 0 0
0.08 0 0
0.12 0 0
0.16 0 0
0.2 0 0
0.24 0 0
0.28 0 0
0.32 0 0
0.36 0 0
0.4 0 0
0.44 0 0
0.48 0 0
0.52 0 0
0.5600000000000001 0 0
0.6 0 0
0.64 0 0
0.68 0 0
0.72 0 0
0.76 0 0
0.8 0 0
0.84 0 0
0.88 0 0
0.92 0 0
0.96 0 0
1 2 0 24
33
34
35
36
37
38
39
40
41
42
43
44
45
46
47
48
49
50
51
52
53
54
55
56
1 0.04 0
1 0.08 0
1 0.12 0
1 0.16 0
1 0.2 0
1 0.24 0
1 0.28 0
1 0.32 0
1 0.36 0
1 0.4 0
1 0.44 0
1 0.48 0
1 0.52 0
1 0.5600000000000001 0
1 0.6 0
1 0.64 0
1 0.68 0
1 0.72 0
1 0.76 0
1 0.8 0
1 0.84 0
1 0.88 0
1 0.92 0
1 0.96 0
1 3 0 24
57
58
59
60
61
62
63
64
65
66
67
68
69
70
71
72
73
74
75
76
77
78
79
80
0.96 1 0
0.92 1 0
0.88 1 0
0.84 1 0
0.8 1 0
0.76 1 0
0.72 1 0
0.6799999999999999 1 0
0.64 1 0
0.6 1 0
0.5600000000000001 1 0
0.52 1 0
0.48 1 0
0.4399999999999999 1 0
0.4 1 0
0.36 1 0
0.32 1 0
0.28 1 0
0.24 1 0
0.2 1 0
0.16 1 0
0.12 1 0
0.07999999999999996 1 0
0.04000000000000004 1 0
1 4 0 24
81
82
83
84
85
86
87
88
89
90
91
92
93
94
95
96
97
98
99
100
101
102
103
104
0 0.96 0
0 0.92 0
0 0.88 0
0 0.84 0
0 0.8 0
0 0.76 0
0 0.72 0
0 0.6799999999999999 0
0 0.64 0
0 0.6 0
0 0.5600000000000001 0
0 0.52 0
0 0.48 0
0 0.4399999999999999 0
0 0.4 0
0 0.36 0
0 0.32 0
0 0.28 0
0 0.24 0
0 0.2 0
0 0.16 0
0 0.12 0
0 0.07999999999999996 0
0 0.04000000000000004 0
1 5 0 5
105
106
107
108
109
0.4611771432346218 0.6448888739433603 0
0.4249999999999998 0.6299038105676658 0
0.3939339828220177 0.606066017177982 0
0.3700961894323341 0.575 0
0.3551111260566397 0.5388228567653781 0
1 6 0 5
110
111
112
113
114
0.3551111260566397 0.4611771432346219 0
0.3700961894323341 0.4250000000000001 0
0.3939339828220177 0.393933982822018 0
0.4249999999999996 0.3700961894323344 0
0.4611771432346217 0.3551111260566398 0
1 7 0 5
115
116
117
118
119
0.5388228567653781 0.3551111260566397 0
0.5749999999999998 0.3700961894323341 0
0.6060660171779819 0.3939339828220176 0
0.6299038105676655 0.4249999999999996 0
0.6448888739433603 0.4611771432346217 0
1 8 0 5
120
121
122
123
124
0.5388228567653782 0.6448888739433603 0
0.5750000000000002 0.6299038105676658 0
0.6060660171779823 0.606066017177982 0
0.6299038105676659 0.575 0
0.6448888739433603 0.5388228567653781 0
2 2 0 50
125
126
127
128
129
130
131
132
133
134
135
136
137
138
139
140
141
142
143
144
145
146
147
148
149
150
151
152
153
154
155
156
157
158
159
160
161
162
163
164
165
166
167
168
169
170
171
172
173
174
0.606066017177982 0.4560660171779819 0
0.3961392998291237 0.5443189772789994 0
0.4560660171779819 0.393933982822018 0
0.543933982822018 0.6060660171779821 0
0.453553188572178 0.6089380006029809 0
0.5450829230308281 0.3932037542056031 0
0.3927948253293375 0.4564802478944182 0
0.6060660171779823 0.5439339828220179 0
0.5160809538022877 0.6221469709802698 0
0.5152995645614339 0.5850485632451987 0
0.5463222595141273 0.5674642135436472 0
0.5155078663518067 0.5458173026830213 0
0.5487415886736268 0.5283624847546268 0
0.5176411165514315 0.5066761451690421 0
0.4827811042657167 0.5240324129460597 0
0.485301867449912 0.4849209705810944 0
0.5204182335685241 0.4676065895284769 0
0.4510863847097879 0.5017543415048252 0
0.454556307134936 0.4652416320469517 0
0.4444922499062552 0.5424855257937676 0
0.4831946325501448 0.5631402281580945 0
0.5518494758043784 0.490512028982644 0
0.5605642304567131 0.4525339540041794 0
0.523458099598123 0.4274250232758905 0
0.4887552118084568 0.4470022357270359 0
0.586132194766485 0.5151134656979344 0
0.4867012201106325 0.4093767335079219 0
0.4211569399837427 0.4807976082278713 0
0.4149391469135737 0.515391339543437 0
0.4166118689159822 0.5745224820613769 0
0.3851891568143188 0.4892328659828487 0
0.5743053991227914 0.5887434615638198 0
0.4559413454678163 0.429647262140506 0
0.4258188574709802 0.4107295693125377 0
0.5126718290786166 0.3854520876991687 0
0.4857015209601908 0.60637384823022 0
0.5840255529530475 0.4815211783013509 0
0.5871722385110569 0.4246667402834131 0
0.6156489755851452 0.4891293862214814 0
0.5757346102778781 0.5512925949300238 0
0.4248377521368721 0.4463175060195854 0
0.4829354227907613 0.3784379583405231 0
0.4525357852955188 0.5777294000691122 0
0.5992024054338254 0.5731261680228565 0
0.4008980818225559 0.4266919551166937 0
0.5557682470776765 0.4205739596781826 0
0.5735515621171918 0.3999656324007025 0
0.6216414175396895 0.5191135258682053 0
0.378736394092472 0.5195112401178604 0
0.4283824330305006 0.6008001049860416 0
2 3 0 653
175
176
177
178
179
180
181
182
183
184
185
186
187
188
189
190
191
192
193
194
195
196
197
198
199
200
201
202
203
204
205
206
207
208
209
210
211
212
213
214
215
216
217
218
219
220
221
222
223
224
225
226
227
228
229
230
231
232
233
234
235
236
237
238
239
240
241
242
243
244
245
246
247
248
249
250
251
252
253
254
255
256
257
258
259
260
261
262
263
264
265
266
267
268
269
270
271
272
273
274
275
276
277
278
279
280
281
282
283
284
285
286
287
288
289
290
291
292
293
294
295
296
297
298
299
300
301
302
303
304
305
306
307
308
309
310
311
312
313
314
315
316
317
318
319
320
321
322
323
324
325
326
327
328
329
330
331
332
333
334
335
336
337
338
339
340
341
342
343
344
345
346
347
348
349
350
351
352
353
354
355
356
357
358
359
360
361
362
363
364
365
366
367
368
369
370
371
372
373
374
375
376
377
378
379
380
381
382
383
384
385
386
387
388
389
390
391
392
393
394
395
396
397
398
399
400
401
402
403
404
405
406
407
408
409
410
411
412
413
414
415
416
417
418
419
420
421
422
423
424
425
426
427
428
429
430
431
432
433
434
435
436
437
438
439
440
441
442
443
444
445
446
447
448
449
450
451
452
453
454
455
456
457
458
459
460
461
462
463
464
465
466
467
468
469
470
471
472
473
474
475
476
477
478
479
480
481
482
483
484
485
486
487
488
489
490
491
492
493
494
495
496
497
498
499
500
501
502
503
504
505
506
507
508
509
510
511
512
513
514
515
516
517
518
519
520
521
522
523
524
525
526
527
528
529
530
531
532
533
534
535
536
537
538
539
540
541
542
543
544
545
546
547
548
549
550
551
552
553
554
555
556
557
558
559
560
561
562
563
564
565
566
567
568
569
570
571
572
573
574
575
576
577
578
579
580
581
582
583
584
585
586
587
588
589
590
591
592
593
594
595
596
597
598
599
600
601
602
603
604
605
606
607
608
609
610
611
612
613
614
615
616
617
618
619
620
621
622
623
624
625
626
627
628
629
630
631
632
633
634
635
636
637
638
639
640
641
642
643
644
645
646
647
648
649
650
651
652
653
654
655
656
657
658
659
660
661
662
663
664
665
666
667
668
669
670
671
672
673
674
675
676
677
678
679
680
681
682
683
684
685
686
687
688
689
690
691
692
693
694
695
696
697
698
699
700
701
702
703
704
705
706
707
708
709
710
711
712
713
714
715
716
717
718
719
720
721
722
723
724
725
726
727
728
729
730
731
732
733
734
735
736
737
738
739
740
741
742
743
744
745
746
747
748
749
750
751
752
753
754
755
756
757
758
759
760
761
762
763
764
765
766
767
768
769
770
771
772
773
774
775
776
777
778
779
780
781
782
783
784
785
786
787
788
789
790
791
792
793
794
795
796
797
798
799
800
801
802
803
804
805
806
807
808
809
810
811
812
813
814
815
816
817
818
819
820
821
822
823
824
825
826
827
0.03464101615137755 0.26 0
0.2544067948809137 0.03604654827773557 0
0.9654899632310676 0.2600170707929448 0
0.7385281088342784 0.033219192773424 0
0.2611984640006393 0.9652198062187778 0
0.9655547203886341 0.7395467053894565 0
0.7388424231260339 0.9653112384608524 0
0.0346410161513776 0.7400000000000001 0
0.3883566338138552 0.3567439239390547 0
0.6424344507396679 0.3912918334554345 0
0.388822856765378 0.6448888739433601 0
0.6104852397124956 0.6466431544895833 0
0.5700725124970674 0.3346146167711532 0
0.3340893201214834 0.5698610099908054 0
0.3312335520071087 0.4328799131823204 0
0.6710085226621401 0.5725010767959484 0
0.42 0.03464101615137755 0
0.9653706748772488 0.4199599852296829 0
0.5799330659141005 0.9653720063762833 0
0.4200008532464926 0.9674830804710255 0
0.03214233314533732 0.4998499685425433 0
0.03461242576090107 0.6199704747189875 0
0.6199699050103352 0.03462576166395714 0
0.03154994904399716 0.3792447988917094 0
0.9685232384740332 0.6129415081370109 0
0.5203077314247573 0.6807776501378293 0
0.6829630588940584 0.4816920187535635 0
0.4771088698995622 0.3222091297700054 0
0.1391648501265331 0.9680252018708977 0
0.9653550399417411 0.1400230027483939 0
0.8596820466090916 0.9652267956223612 0
0.1359400438715299 0.03370298265050875 0
0.9659727036135427 0.8610636290292035 0
0.03608386240445499 0.8587053071268477 0
0.8634557410682336 0.03743145059858666 0
0.0291797402455628 0.146447096866281 0
0.9623537926977086 0.5439095968135604 0
0.5402567898718361 0.03353327925619243 0
0.4999598386091936 0.9653862672865852 0
0.3416373922350677 0.9647351383564722 0
0.9653653209027695 0.3400469009154212 0
0.3453009594840964 0.03765210599399299 0
0.6599995134652912 0.9676168233445079 0
0.9662538102586408 0.9384495943527066 0
0.05973333534136699 0.9611086737750221 0
0.9363197571253002 0.03625825857488568 0
0.03382313915890256 0.05993628070560564 0
0.4178267102317065 0.3279190636121704 0
0.3832054673170543 0.3159977393357524 0
0.3519228379249683 0.3420117534083655 0
0.3471696831488563 0.3014494667529337 0
0.3159787704395693 0.3255541111184551 0
0.3109303671831515 0.286195863200408 0
0.279614058279485 0.3102580457063471 0
0.2744892412301607 0.2709940018012075 0
0.3781785496195861 0.2774660766471487 0
0.2431291405112105 0.2950942740517658 0
0.2379332471191583 0.2558544846142842 0
0.2693632468823811 0.2317127318668517 0
0.2327220711204184 0.216557102891017 0
0.2483397261454154 0.3343240453235087 0
0.2117866613832016 0.3192196249024915 0
0.2170178799583707 0.358471236370871 0
0.2012712242780957 0.2407225886895188 0
0.1960457379024593 0.2013738175870246 0
0.2641766693896828 0.1924140769695821 0
0.1804079236327749 0.3433614198775291 0
0.185662041487085 0.3826188042579071 0
0.1645463741033869 0.2255881097291423 0
0.1593193351895155 0.1861738527852461 0
0.1908624244244753 0.1619492655556042 0
0.3008329492352989 0.20758054402499 0
0.2956583640137012 0.1682643070058939 0
0.3320270905131961 0.1834901414542204 0
0.2222638776089156 0.3977123331372438 0
0.1909279495258782 0.4218585461315204 0
0.2275123590076431 0.4369200293124222 0
0.1961972042476201 0.4610995933437637 0
0.159568735442163 0.4460291331055039 0
0.1648610616458217 0.4852810098205174 0
0.2014822176026421 0.500331273559669 0
0.1701625257640637 0.5245205693897167 0
0.2067727411719447 0.5395338357135091 0
0.1744649607272085 0.5657484508112847 0
0.2119032020133824 0.5790814933317041 0
0.1807721775170838 0.6029544941066671 0
0.2173507830405587 0.6180340069821925 0
0.1882686836962246 0.6418894144908762 0
0.2230522171334179 0.6571676611834689 0
0.1917873676498796 0.681362007059289 0
0.2281288050073227 0.696426704260328 0
0.1967457256668867 0.7206732054211533 0
0.2333654437729302 0.7357189049708626 0
0.2019564917749098 0.7599871002922278 0
0.2386779784346608 0.7750490816474186 0
0.2700428512636575 0.7507680040747357 0
0.2753909496168946 0.7900775228302299 0
0.3067537549014806 0.7658188298185886 0
0.2072637019172898 0.7993429308433659 0
0.3120865459323878 0.8051001789614493 0
0.3434282414162693 0.7808488007392499 0
0.3487664860699013 0.8201230633338126 0
0.3801041589245322 0.7958744128747298 0
0.1704887936048811 0.784269052123145 0
0.1758184558622187 0.8236980621280612 0
0.3854456085898191 0.8351520447534213 0
0.4167690240814911 0.8108831324542166 0
0.2807349544655776 0.8293870009364614 0
0.1541166767835817 0.6655211118692389 0
0.4114370125432977 0.7716650707160391 0
0.4480741209430101 0.7866472268360374 0
0.4534137348968441 0.8258680317123682 0
0.4847089215255282 0.8016102605904141 0
0.4887497874458859 0.8391418141203976 0
0.5211749424487992 0.8162833832357992 0
0.2592515919008589 0.6726131044709754 0
0.1370578666113592 0.5522500804337372 0
0.5221908695573408 0.8594341800215162 0
0.5567156478132441 0.8314120532168119 0
0.5524552852097567 0.7922334133762312 0
0.5890792375670113 0.8072235070099977 0
0.5931707292628561 0.8527966384109573 0
0.6256975785717265 0.8232426971143973 0
0.6205110697316303 0.7831298768726198 0
0.6572127059408653 0.7980695045995667 0
0.6626397064005707 0.837353157250449 0
0.6939829348895834 0.8128119544297667 0
0.6885374550350887 0.773555383271312 0
0.725275250735181 0.7884416055600258 0
0.7198190667654796 0.7491687634423828 0
0.7565531206433881 0.7640605499545743 0
0.7511037491751837 0.7247690878347697 0
0.762104775882282 0.8033099455869841 0
0.7878419320223103 0.7396853704155273 0
0.7823886696382026 0.7003810348917717 0
0.819128553650577 0.715286045263852 0
0.8136661159390109 0.6760140274805511 0
0.824756086220979 0.7544677957613513 0
0.7769338210086503 0.6610952442469169 0
0.8081881337034825 0.6367433658396 0
0.8517212947517386 0.6897084540215794 0
0.7117114402606884 0.7060587091015716 0
0.6994389866180212 0.8521425034910309 0
0.77148024156357 0.6218572779519503 0
0.8027074906047855 0.597490787508782 0
0.8394273641250317 0.6123794379096885 0
0.8339407104453065 0.5731301164389259 0
0.79722192583901 0.5582588945268705 0
0.8282815804136885 0.5339229731829565 0
0.7917103239641967 0.5190593317291735 0
0.8227450513188599 0.4947277522981419 0
0.7868618063058829 0.4797949721772016 0
0.8174919761669106 0.4555145158610591 0
0.7815193575148766 0.4405899415834182 0
0.812060145233889 0.416333930041506 0
0.7754059382316302 0.4015019054808051 0
0.806472787437672 0.3771766626247137 0
0.7697839024373434 0.3623466244339009 0
0.8009449356502681 0.3380008104816239 0
0.7657301179653397 0.3229608864615147 0
0.7956887691602877 0.2987662287473057 0
0.7604725339754986 0.2837019673182203 0
0.7902885607186947 0.2595216408386089 0
0.7535169351602713 0.2446521426846814 0
0.7845772469514039 0.220274474478594 0
0.7477325031409342 0.205413185942283 0
0.7164537674140188 0.2298359925588326 0
0.7108856746635146 0.1905744258406032 0
0.6796117039754983 0.2149941186526988 0
0.7789735869533259 0.1809582783230955 0
0.8158194211129979 0.195858906986166 0
0.6740883204114149 0.1757347227769326 0
0.6428185221985673 0.2001451620780231 0
0.6855833304455542 0.2534769756142854 0
0.8312933962825624 0.3138239867239431 0
0.638334646755626 0.1622000786166775 0
0.6062336549731937 0.1855241905697673 0
0.8102804216865831 0.1564803848811784 0
0.8411236634837796 0.3898327527961509 0
0.6032445766800656 0.1415173753994188 0
0.5697959572831567 0.1697610173893616 0
0.5749442096948996 0.209613034377176 0
0.5381796631181609 0.194768162945696 0
0.5326542400367356 0.1555163876790766 0
0.5013560009059616 0.1801039225035036 0
0.4957945722828906 0.1408123468077335 0
0.4645691467240044 0.1653010679534686 0
0.6691863873100232 0.1384951284146018 0
0.8593968813868553 0.4700270715195973 0
0.8471643989823272 0.1713982446021629 0
0.852676802080536 0.2108104302284469 0
0.4701199743883869 0.2045349029053775 0
0.1540884736384484 0.1467139880976265 0
0.1389835547181734 0.8085793672120561 0
0.1443014209326334 0.8480523941509071 0
0.1811790196161168 0.8631749905069883 0
0.1856861732065077 0.1224604874919023 0
0.7733942867808756 0.1415776304665123 0
0.1490019112749681 0.3675067653481841 0
0.1437270927925109 0.3282419080649836 0
0.2429052392477024 0.517531460302964 0
0.1336781291771356 0.7691302374818977 0
0.3271417864741663 0.1441185167498499 0
0.5439046487905395 0.2334244667221581 0
0.3381136285884692 0.7415907104800226 0
0.127773070284766 0.2104157135842256 0
0.3540787753756826 0.859437333742583 0
0.4567651936802891 0.8625155808009564 0
0.4427069758132356 0.7474838384452197 0
0.8707219267866253 0.5879899185661943 0
0.4335917653317953 0.1899642421701665 0
0.4289164587720788 0.1503901297693086 0
0.2905012531160801 0.1288875598291832 0
0.7361026745286453 0.3413765544542287 0
0.8047498855776072 0.1170609733987914 0
0.1021432888409071 0.793440889258021 0
0.1281788865536897 0.4702343631950344 0
0.7623477084339385 0.5448006281826177 0
0.8896727867356642 0.1794618177650838 0
0.875901190248792 0.1413702997313645 0
0.5803067177111134 0.248875572076857 0
0.6680886823934749 0.8765082085831956 0
0.2537169095132936 0.5855650805759277 0
0.8912253222699642 0.2245108703872408 0
0.7456171100551081 0.4280052469066992 0
0.4064562849929077 0.7336866217450841 0
0.7415218119080488 0.6460181216621352 0
0.5270404389391 0.1163497000978053 0
0.490186152125057 0.1015075881166695 0
0.3908072676482482 0.8744764091253923 0
0.8760427218545122 0.6270626785351319 0
0.1228998069987804 0.4309116448563084 0
0.1330426253724616 0.2498291912665932 0
0.1122701983155019 0.3524089441967654 0
0.1070117509577699 0.3130039006357646 0
0.7050294875483716 0.891172182404799 0
0.7362997893582724 0.8670313352482566 0
0.4391735745504362 0.228943274707638 0
0.4776316603338829 0.2430524761998014 0
0.4032886749463969 0.2144053534213882 0
0.1496350024549099 0.8875612257939076 0
0.1865390887275356 0.9026791888532105 0
0.2180474197474784 0.8782846415202972 0
0.1127354425861406 0.8724224004250729 0
0.9266136028608445 0.2008532203543431 0
0.7360259211189923 0.6082393237011031 0
0.7043921326664384 0.6345784404683468 0
0.2585006338419443 0.4128212514040766 0
0.2632319911421862 0.4511429350428345 0
0.1486152995164712 0.1077931670966432 0
0.1172153490966958 0.1315764074297225 0
0.1128164221065295 0.0942078395160168 0
0.09168819590287297 0.4545206155666109 0
0.1809942054738201 0.08215724549409886 0
0.2173323895684286 0.09809923616368443 0
0.09734982128939346 0.4939309677205603 0
0.7675957655414573 0.1027055182279881 0
0.8013416690262674 0.07255605811453236 0
0.8370585594539703 0.0956685243226007 0
0.322263452771737 0.1050435979748374 0
0.3585284562702576 0.1196903133128291 0
0.3208990428377417 0.3646068995196429 0
0.3589202556061153 0.8981939292264185 0
0.3233620575476896 0.8817827168931076 0
0.4374214514825404 0.7083922756295036 0
0.4738802597850238 0.7233294019526515 0
0.3368975942858083 0.2230259760690076 0
0.7364391054824928 0.1266884853138844 0
0.8581516893366109 0.2502719934420013 0
0.8954784744736971 0.2646330575661888 0
0.4464271870973567 0.2670574841776523 0
0.09813952057245401 0.7537825398665488 0
0.1288644347859177 0.7299376787000583 0
0.09258766623136683 0.7115644419986927 0
0.09711933775392811 0.2345162191122163 0
0.09110007292030164 0.195186089732991 0
0.5497553890095045 0.2676070944443147 0
0.6662108061811258 0.4200997971194861 0
0.5800643927948861 0.66660311979631 0
0.616829312012378 0.6822642311019466 0
0.5869101614547887 0.7065888245673992 0
0.352640264514867 0.6098974582995741 0
0.3479386262955627 0.652061373704437 0
0.3182441957628681 0.6274255352322446 0
0.3129397280794217 0.533102124885078 0
0.6858991962973212 0.5255586651865218 0
0.7207802916856763 0.4944130674115944 0
0.6082420300983914 0.3432821383880508 0
0.6009874188871775 0.3073569525953037 0
0.6375826257206072 0.3218151575982156 0
0.6465194774075275 0.6621805495766033 0
0.6517519538759646 0.6965763878081491 0
0.6321603190168718 0.2833772337675811 0
0.3050466843721834 0.4947276759857592 0
0.08783245817915419 0.4155025831261577 0
0.07547496071313931 0.3372657419704262 0
0.7425715453720548 0.904485151233835 0
0.773321984789295 0.8817024999950872 0
0.7794755788492745 0.9194887908857128 0
0.8102730477715927 0.8966244214199069 0
0.8046306570547828 0.857527035199104 0
0.841595630579849 0.8724568982147443 0
0.8360707900461308 0.8330699285053217 0
0.8720301459114641 0.8475568896136213 0
0.8720086871946326 0.889488765899843 0
0.8675354334398145 0.8085363265969409 0
0.9019652611344218 0.8239748792667739 0
0.8985643339778161 0.7841426556613461 0
0.9329070578316245 0.8019575292423559 0
0.376530237751728 0.6797550931779104 0
0.6837764380074818 0.3836620539085373 0
0.9058195218970218 0.6030795538180566 0
0.9016272365144329 0.5643304202172763 0
0.9130583933213916 0.6422703564285062 0
0.1164131457684157 0.9100418812090239 0
0.08111947186575375 0.8968186275517229 0
0.2856392563390138 0.09125668965058475 0
0.2210132849875023 0.9193097041494228 0
0.258341212217678 0.8964546927525998 0
0.192844892452273 0.9377472382353178 0
0.7050700155031384 0.5581868359668579 0
0.3965215995816762 0.9118091451058452 0
0.7349937903434494 0.09422653166186962 0
0.3354416207030285 0.6917603107374196 0
0.2155488624613907 0.05858270009433497 0
0.6537460044930727 0.6060994425653007 0
0.06025730521701855 0.4371354172123284 0
0.5148822178280295 0.3120474208839542 0
0.8238075326109691 0.9373195107548693 0
0.2946498849705084 0.5701482456376972 0
0.06526777314647136 0.7782967374852244 0
0.07057978189733927 0.8178295843718926 0
0.07020711487875031 0.2977908324674542 0
0.08140662959246148 0.1161558822145862 0
0.6734775191943252 0.9129828387339167 0
0.6366424850079021 0.9008572626761471 0
0.6685427928970107 0.2984276949969663 0
0.06220042611094068 0.2246579428450752 0
0.6839488198375036 0.6742367135503701 0
0.35356434066169 0.08050505011873982 0
0.3900128944273934 0.09570167395367124 0
0.6736622009670952 0.3374833554342449 0
0.9391017642430409 0.5808997196255012 0
0.7027826905820305 0.318694290065385 0
0.5229236542549989 0.07071234317297748 0
0.5590299233517827 0.09213583187965857 0
0.478279041126389 0.06360032468627907 0
0.45323600272991 0.08669980279824557 0
0.7170474542647702 0.4573951612556371 0
0.3237992247088977 0.9238306050763732 0
0.05440344827623989 0.1801099753711987 0
0.419900648151626 0.6687550927863255 0
0.07687225773164741 0.07145536556501259 0
0.4774012359443903 0.6848748306917971 0
0.488256472168113 0.2831393873951773 0
0.2795246973012402 0.5156854278100079 0
0.3551111260566397 0.3888228567653784 0
0.7818969964533042 0.9613699872234394 0
0.3846464845514927 0.05754312878044371 0
0.8620499568218567 0.7690468586979418 0
0.895637042106717 0.7438323347109195 0
0.7456622076940163 0.685379632935473 0
0.507537097553566 0.2184380080638333 0
0.7673675817900525 0.5841760978365603 0
0.2535819587411902 0.3736127359692271 0
0.2889974852663516 0.3877070620989093 0
0.3746944057485621 0.7571653508155587 0
0.2371938382082513 0.553603862708805 0
0.7574765290780845 0.5054643050338902 0
0.7246803661406627 0.2672172173791018 0
0.6107687675386029 0.2234890665394108 0
0.6460167585734331 0.2432225395041711 0
0.7990344643833014 0.8182196916489245 0
0.2327959184346148 0.4761925368693214 0
0.7312735260614853 0.3838730746358354 0
0.3018212451379649 0.7247761753173609 0
0.2954190352577216 0.6864667936149829 0
0.2549151908254149 0.6311541971965079 0
0.6830864908544343 0.7342692440238517 0
0.6526098049533303 0.7602497849175547 0
0.6136133968301761 0.7426214593715744 0
0.5830118097207915 0.7693346539638057 0
0.546517964055552 0.7549704837119984 0
0.5158230208670983 0.7776041799351816 0
0.5098803518836948 0.7399292807744815 0
0.4791789418029319 0.7627673647556643 0
0.5800420957767529 0.03285951944439069 0
0.5951575912773174 0.0714773693035814 0
0.6398976357402585 0.06922286520379328 0
0.6199330153843298 0.1037297662542463 0
0.6599242386296462 0.03463808784584826 0
0.6782563457204248 0.06911877986667914 0
0.697847811745065 0.03348359311133459 0
0.4599887507353585 0.9657419712792814 0
0.4801685118729022 0.9315832660842528 0
0.5198941801248416 0.930922232741821 0
0.5017976863058916 0.8980994092531807 0
0.5400208238898236 0.8965112704756557 0
0.5598856064131983 0.9308582221788253 0
0.5770904663469494 0.8936831590442579 0
0.4350697940787036 0.9300079805555115 0
0.619984427401294 0.9666517982503144 0
0.6032500351807537 0.9254279409033827 0
0.9653822592463813 0.3800167988248586 0
0.9308091712231398 0.3600389956005443 0
0.9312842100207508 0.3203842160579774 0
0.8982113443376947 0.342210671466181 0
0.8971752832820254 0.3801139300134495 0
0.9656062124211229 0.3000703617282398 0
0.3805884359906603 0.9683476154800164 0
0.3019643669199567 0.9631620667738496 0
0.2851511205751353 0.9251868509914752 0
0.6995854969904405 0.9659783461484993 0
0.2996845897987684 0.03328189990402119 0
0.9309662975819547 0.3999915373784833 0
0.9308063434449594 0.4398604215251918 0
0.89741796576719 0.4199195772902368 0
0.8962549166397721 0.4597450696218394 0
0.9307204043811298 0.4796968517061782 0
0.8952180337002853 0.4963847159151518 0
0.9292909737605309 0.5169162250685944 0
0.03462571133144277 0.5800313842944914 0
0.06918931013050938 0.6000003095813465 0
0.06919008998714438 0.6398891200219663 0
0.1033223861654412 0.6192541314354963 0
0.0685686238890299 0.5589817180258518 0
0.1049259748991644 0.6610762779518875 0
0.06853352388581196 0.6798510706194504 0
0.03370369031870923 0.5398112139797173 0
0.1030988859961299 0.5773601538987116 0
0.1424794856667602 0.5969624765901866 0
0.9588427485833155 0.653509229790102 0
0.9643309107753121 0.6988567822303601 0
0.9304941882519642 0.720343910915589 0
0.9282948881594403 0.6800685439090386 0
0.8904178115615118 0.7048737474968885 0
0.03635479909129247 0.338115873339402 0
0.0334126961968475 0.6980930046521219 0
0.9647094367678064 0.2201530151345928 0
0.9645684359648468 0.1801748788231762 0
0.9308248851203075 0.1600996882190382 0
0.9327155328030964 0.1200587164162638 0
0.9658718210475594 0.1003563957104509 0
0.9322544491475726 0.07981284093350671 0
0.8970857513386037 0.1047919386837323 0
0.8995479613720097 0.06088272208201673 0
0.7801256822287423 0.03440889597040225 0
0.8199801137567768 0.03462953482349979 0
0.9649665323145759 0.4998122552267887 0
0.5399413109226 0.9653928680032577 0
0.3057885464813759 0.2469526821774362 0
0.2646115430563048 0.7114196774278029 0
0.2126434850497716 0.838796163502887 0
0.929634649039451 0.2412072932766172 0
0.09981692837160339 0.9675847157170216 0
0.04061014731987245 0.1046742261538315 0
0.9653607273293663 0.8999969802027693 0
0.931747455586719 0.9212498615781675 0
0.9349751107977933 0.963372693504124 0
0.8971440359851179 0.9416805890067314 0
0.9336128958001733 0.8826787710368911 0
0.0330435513919155 0.8997776488802184 0
0.09803827039982521 0.03340060204442274 0
0.1797223554216305 0.03618198634313108 0
0.2223953216560028 0.1377543416242334 0
0.03429145597178418 0.6596339450020876 0
0.169834006274356 0.2649078133385147 0
0.2847687240190649 0.3494533471350945 0
0.7421242922344903 0.1660888734860232 0
0.8644233923938685 0.5501818979587709 0
0.3628112984543479 0.159309362698984 0
0.8213289161470569 0.2351983290222158 0
0.6314086546461576 0.8614445492738032 0
0.1652944072239181 0.7449364833976156 0
0.1074417635679145 0.8329333768973342 0
0.8448572790933497 0.9090947526859917 0
0.1549635960437099 0.9294250741013216 0
0.2065622083787505 0.2799794295130242 0
0.4595245206990209 0.1260136691251923 0
0.122559491765919 0.1709767152835838 0
0.8409334500404052 0.1321690511628086 0
0.2275272204945681 0.1772471617041176 0
0.7307757304770786 0.8277275361527434 0
0.2439907514813093 0.814376767136364 0
0.1542757581699594 0.4067633775495666 0
0.7053959136256764 0.1515577003844181 0
0.563782705869165 0.1312244941956416 0
0.4217850915421147 0.8497368361856557 0
0.1333151804230398 0.5099828850412332 0
0.9652640222280692 0.4598351960318219 0
0.8464558617539252 0.4285759859881026 0
0.3175286383535496 0.8440587292632521 0
0.2499834722819789 0.8543035579267846 0
0.8449382810621082 0.6511892712607424 0
0.8267428067075133 0.274525325368223 0
0.8353682093984058 0.3516158215751745 0
0.7676945669908354 0.8425863406385166 0
0.1602267919699987 0.7056886268569207 0
0.8622288179754666 0.2891027382903724 0
0.6992071095454414 0.1063533904458957 0
0.427040488871312 0.8881836383782773 0
0.07585825963426107 0.857322954073729 0
0.2590318906497364 0.1530381391157529 0
0.08827904269369186 0.1554550046262361 0
0.1751572304131563 0.3041287604033769 0
0.7934628673717943 0.7789265201679239 0
0.3419961053890831 0.2623747226757705 0
0.1178536300916528 0.391598910266739 0
0.8304868250785055 0.7938157676401815 0
0.9310343016992371 0.7604839129866666 0
0.1016508464997553 0.5345670628858361 0
0.2504557199647547 0.07545187066627579 0
0.08189167085008525 0.3763705366385847 0
0.2542259718823361 0.1140813061749525 0
0.1384223260700479 0.2890156127526872 0
0.2861430107300585 0.868522081712099 0
0.8572851241855632 0.7295358726587553 0
0.1026222535066109 0.2737410834641397 0
0.4138950803320069 0.291191468539496 0
0.2871032405967329 0.6066950894870049 0
0.9310007183614377 0.2813919156931545 0
0.705965369081483 0.4182004004876069 0
0.4089958263602506 0.2530369881168353 0
0.860029227308805 0.5119615679476615 0
0.5422028917619863 0.7161194494762637 0
0.3727698491713094 0.2381984283998796 0
0.7052656182200295 0.5937865110474729 0
0.3672623444267313 0.1988814534691273 0
0.4605165399387487 0.03119063454147358 0
0.2935079399447328 0.4239797705983701 0
0.8814937921642503 0.6653928323267926 0
0.3983232069334965 0.1743913229849366 0
0.2214075562641655 0.9637274316675732 0
0.1281443089340059 0.6947576274753596 0
0.3714005376558122 0.7177368568428364 0
0.03288959525849972 0.8172565372317762 0
0.7129546087355124 0.9314838207906442 0
0.9664810723498991 0.8211422245592594 0
0.06582327240536323 0.5171317222735696 0
0.9672268511579032 0.06124612110101108 0
0.06032490761701936 0.03267847457924195 0
0.02956566002455013 0.9385419568999063 0
0.3939049982886749 0.1346437658736911 0
0.02824058602428409 0.2991813411613712 0
0.2891472309932941 0.6486039632234575 0
0.4241979865949164 0.1110329206333626 0
0.3155497654681858 0.06761921507560387 0
0.9659961920448992 0.7805217286962898 0
0.4190007127357763 0.07193690146639042 0
0.08873640507973363 0.9329295381847664 0
0.6574005842176119 0.1027347480795389 0
0.8968998842064878 0.3045075284964657 0
0.7609042017551322 0.06604859011095715 0
0.145256946448332 0.06929635128580258 0
0.7525071726271054 0.46607856035824 0
0.5140306377844642 0.2547441171064629 0
0.06283304309511561 0.4776501152677586 0
0.1335135511700767 0.633634827020561 0
0.3669120073640127 0.9350455229049033 0
0.5 0.02976375482909677 0
0.4647274243878143 0.8967097630250662 0
0.0265596769112697 0.7791106549434001 0
0.9341530797830225 0.8418392583577934 0
0.6455627214300126 0.9362958810792105 0
0.5578377073740428 0.8667674602338398 0
0.07335802968032157 0.258141215577777 0
0.2660607357119601 0.4867584342563181 0
0.8210773151346731 0.9727832587201339 0
0.8655300642778152 0.3271331485786388 0
0.03014787485750076 0.4198501751810609 0
0.4023418320069229 0.7016651880363319 0
0.8675270604001449 0.07897075704375478 0
0.4471557437027479 0.3016954902016342 0
0.2974743525081192 0.4595411974654148 0
0.6446186542778622 0.3571426861380216 0
0.0308967593858287 0.4590809460339486 0
0.3203094160206485 0.3986566213040491 0
0.9736297662738642 0.5796786892251532 0
0.5047344941599705 0.7090061226066047 0
0.7174472824733391 0.6692543235435794 0
0.9 0.02686795753823479 0
0.7042685379704232 0.3537732742797408 0
0.8983602386784006 0.9740560156266433 0
0.07066780832687503 0.7384848385487711 0
0.1794959086008729 0.9715562277332921 0
0.9025154080031076 0.865767235942009 0
0.6095191897469864 0.2625779492150109 0
0.2520107444468921 0.9332312941559239 0
0.5800658276037731 0.2788977248470849 0
0.5877275902341111 0.107996095085257 0
0.22 0.02644041979727585 0
0.7342886840360137 0.5699040640797096 0
0.7282184579754769 0.5322489924340408 0
0.02909947860119044 0.214127986369379 0
0.868770811407528 0.3633753288303558 0
0.6834151124729595 0.4477129041701831 0
0.8956444471071874 0.5317263038455878 0
0.8389061357634067 0.06209195076686636 0
0.7324784288656265 0.3042290879907776 0
0.560025861233673 0.05979348759507097 0
0.6085775368126822 0.8861563049041785 0
0.5744512447646589 0.7379269742182083 0
0.6699223968239885 0.6393299656655442 0
0.8637012022963833 0.1105941141888521 0
0.317238141802495 0.6612635953025083 0
0.6240471089011015 0.7113499942703159 0
0.3805178802600786 0.02512013651105549 0
0.5545505121209926 0.6867101514710237 0
0.6376198420695314 0.1297354193528967 0
0.05802630798053765 0.3979919866561411 0
0.9013223781949313 0.9090648514771313 0
0.554032927688462 0.3015773523109557 0
0.9370691333037606 0.6185400735598353 0
0.2811472252903273 0.06073124471484426 0
0.7511534405868519 0.9362183659856131 0
0.9707179676972448 0.02928203230275533 0
0.02928203230275522 0.9707179676972446 0
0.9707179676972445 0.9707179676972445 0
0.0292820323027555 0.0292820323027555 0
0.7132613347342641 0.06507328054829881 0
0.8716213609043413 0.4025552594830613 0
0.6956307802554531 0.2845382279946688 0
0.0225365334245986 0.1801370117213718 0
0.317345381193292 0.5968054677294653 0
0.6608100956303143 0.2704452162261798 0
0.3264969651935272 0.4684533282657846 0
0.5241915288957146 0.283823074428173 0
0.1200005080199986 0.9423758798088553 0
0.6373478271230133 0.6320638258950028 0
0.9290334229244421 0.5497712522565423 0
0.8662184120715526 0.9318728589243011 0
0.6511524659302582 0.7260098635578712 0
0.9052400292492928 0.1411564921630964 0
0.113453352300011 0.06173488661441656 0
0.2956642831131521 0.8970298130355419 0
0.680419247029488 0.7052910211814529 0
0.4489751197032946 0.6767277682627466 0
0.4000051360616592 0.9433567041842945 0
0.05654423889713917 0.8816668335063957 0
0.05652569193255974 0.3613970809539166 0
0.5412570103605738 0.3261914781275868 0
0.06130790054584323 0.7112387375619701 0
0.4875228715177871 0.8698687030782186 0
0.6800223483305092 0.9442386225669936 0
0.1619701301465848 0.6260974153587417 0
0.2706710990949335 0.5463074436199201 0
0.445325395590674 0.0585829624372865 0
0.4481718486000339 0.3299768662893962 0
0.6808669349731339 0.6092590873085226 0
0.8757958316450439 0.4398198178323617 0
0.6211099141112341 0.3701045237615183 0
0.05732699538898689 0.9188091858703236 0
0.06083953854881491 0.1396655083993611 0
$EndNodes
$Elements
2 1552 1 1552
2 2 2 122
1 144 154 126 
2 126 153 144 
3 108 154 107 
4 126 154 108 
5 105 160 5 
6 147 162 125 
7 125 161 147 
8 131 155 110 
9 148 159 130 
10 151 159 148 
11 129 160 105 
12 110 155 8 
13 118 162 117 
14 125 162 118 
15 160 167 145 
16 119 163 125 
17 129 167 160 
18 5 160 133 
19 6 163 119 
20 127 158 113 
21 113 158 112 
22 139 145 144 
23 136 145 139 
24 138 146 137 
25 141 149 148 
26 140 149 141 
27 114 127 113 
28 119 125 118 
29 106 129 105 
30 120 128 121 
31 109 126 108 
32 111 131 110 
33 123 132 124 
34 116 130 115 
35 141 148 147 
36 141 147 146 
37 143 149 140 
38 139 144 142 
39 141 146 138 
40 142 143 140 
41 140 141 138 
42 139 142 140 
43 139 140 138 
44 136 139 138 
45 136 138 137 
46 134 145 136 
47 136 137 135 
48 146 150 137 
49 134 136 135 
50 134 160 145 
51 134 135 128 
52 121 156 122 
53 128 156 121 
54 149 151 148 
55 144 153 142 
56 152 155 131 
57 147 161 146 
58 157 165 158 
59 149 157 151 
60 151 157 127 
61 142 152 143 
62 132 164 150 
63 150 164 137 
64 144 167 154 
65 130 159 115 
66 115 159 7 
67 153 155 152 
68 154 174 107 
69 135 156 128 
70 143 157 149 
71 135 164 156 
72 150 172 132 
73 153 173 155 
74 142 153 152 
75 133 134 128 
76 126 173 153 
77 157 158 127 
78 164 168 156 
79 125 163 161 
80 143 165 157 
81 145 167 144 
82 130 170 148 
83 5 133 120 
84 120 133 128 
85 137 164 135 
86 146 161 150 
87 7 166 114 
88 122 168 123 
89 163 172 150 
90 112 169 111 
91 124 172 6 
92 107 174 106 
93 8 173 109 
94 117 171 116 
95 148 170 147 
96 114 166 127 
97 133 160 134 
98 123 168 132 
99 161 163 150 
100 111 169 131 
101 162 171 117 
102 116 171 130 
103 127 166 151 
104 132 172 124 
105 109 173 126 
106 106 174 129 
107 155 173 8 
108 165 169 158 
109 158 169 112 
110 147 170 162 
111 131 165 152 
112 152 165 143 
113 156 168 122 
114 6 172 163 
115 159 166 7 
116 132 168 164 
117 151 166 159 
118 129 174 167 
119 167 174 154 
120 131 169 165 
121 130 171 170 
122 170 171 162 
2 3 2 1430
123 258 605 291 
124 601 708 448 
125 448 602 601 
126 379 550 498 
127 485 756 549 
128 488 787 606 
129 549 696 485 
130 606 609 488 
131 506 676 208 
132 470 611 507 
133 208 710 506 
134 393 807 615 
135 611 718 507 
136 397 820 504 
137 428 728 638 
138 393 615 419 
139 291 605 604 
140 519 734 212 
141 503 805 205 
142 176 686 499 
143 498 709 379 
144 216 533 514 
145 183 531 224 
146 542 820 397 
147 461 729 543 
148 499 765 176 
149 260 605 258 
150 610 691 315 
151 618 620 220 
152 419 614 613 
153 651 759 203 
154 504 694 397 
155 609 705 488 
156 506 710 505 
157 585 586 524 
158 523 729 461 
159 592 594 363 
160 710 736 505 
161 535 691 610 
162 205 742 503 
163 610 705 609 
164 214 585 524 
165 638 728 206 
166 494 759 651 
167 508 630 527 
168 394 807 393 
169 529 747 445 
170 574 739 296 
171 507 718 175 
172 621 622 432 
173 296 775 574 
174 521 734 519 
175 594 698 363 
176 283 708 601 
177 175 740 507 
178 550 551 498 
179 463 763 761 
180 463 761 467 
181 601 732 283 
182 604 685 291 
183 485 749 516 
184 459 468 8 
185 224 531 436 
186 413 529 445 
187 185 457 456 
188 727 794 178 
189 460 495 190 
190 201 461 460 
191 527 715 637 
192 694 719 552 
193 606 787 199 
194 419 615 614 
195 452 770 119 
196 58 633 57 
197 292 572 571 
198 439 528 440 
199 497 794 727 
200 566 794 674 
201 620 755 220 
202 523 696 399 
203 439 811 528 
204 179 586 585 
205 492 762 707 
206 650 805 503 
207 496 675 575 
208 508 827 630 
209 527 630 221 
210 460 767 495 
211 461 767 460 
212 577 775 510 
213 785 805 479 
214 121 453 120 
215 109 459 8 
216 118 452 119 
217 105 526 106 
218 123 500 122 
219 181 532 62 
220 185 526 484 
221 112 531 183 
222 185 456 107 
223 189 531 111 
224 108 456 188 
225 200 528 5 
226 124 460 190 
227 201 460 6 
228 216 781 533 
229 428 638 499 
230 744 750 94 
231 453 782 120 
232 613 628 419 
233 619 807 394 
234 394 778 619 
235 535 610 608 
236 600 685 604 
237 492 707 494 
238 505 736 182 
239 517 752 199 
240 633 792 57 
241 479 805 650 
242 199 787 517 
243 549 756 388 
244 182 758 505 
245 635 785 760 
246 62 532 61 
247 622 772 432 
248 184 749 485 
249 458 719 694 
250 456 798 188 
251 674 794 497 
252 202 747 529 
253 398 628 444 
254 514 721 216 
255 674 725 566 
256 221 715 527 
257 421 754 513 
258 512 768 525 
259 513 777 421 
260 571 817 292 
261 637 808 527 
262 501 750 744 
263 760 785 479 
264 500 803 122 
265 620 746 209 
266 768 797 525 
267 315 705 610 
268 510 738 577 
269 432 727 621 
270 512 740 175 
271 7 815 115 
272 587 711 181 
273 200 753 528 
274 105 811 526 
275 502 815 7 
276 220 714 618 
277 189 751 531 
278 119 770 201 
279 562 764 520 
280 467 761 546 
281 175 768 512 
282 189 748 704 
283 520 774 562 
284 555 776 455 
285 526 745 484 
286 455 780 555 
287 459 820 530 
288 608 684 535 
289 513 754 316 
290 712 737 483 
291 504 820 459 
292 713 731 430 
293 712 722 52 
294 574 775 577 
295 630 827 210 
296 397 694 552 
297 189 800 748 
298 516 756 485 
299 484 709 498 
300 211 752 517 
301 212 774 519 
302 354 764 564 
303 575 812 496 
304 546 799 467 
305 773 796 544 
306 419 628 398 
307 564 783 354 
308 523 770 696 
309 628 695 444 
310 179 762 586 
311 201 523 461 
312 185 484 457 
313 457 458 456 
314 459 530 468 
315 190 823 500 
316 518 796 773 
317 483 737 481 
318 113 822 114 
319 726 743 673 
320 388 756 518 
321 222 822 113 
322 711 789 181 
323 701 823 190 
324 316 810 513 
325 116 825 117 
326 462 825 116 
327 766 767 392 
328 399 696 549 
329 645 717 706 
330 399 729 523 
331 489 724 490 
332 502 801 786 
333 706 717 386 
334 517 804 211 
335 530 741 468 
336 483 722 712 
337 600 713 685 
338 530 820 375 
339 707 762 179 
340 195 731 713 
341 120 782 200 
342 518 773 388 
343 455 776 699 
344 574 577 573 
345 559 560 440 
346 573 577 193 
347 211 623 45 
348 595 623 211 
349 495 701 190 
350 558 560 559 
351 287 560 558 
352 484 498 457 
353 540 642 436 
354 193 624 573 
355 581 743 726 
356 209 755 620 
357 534 683 312 
358 378 537 357 
359 316 536 306 
360 634 757 205 
361 270 626 550 
362 348 546 343 
363 226 642 228 
364 741 748 468 
365 45 623 44 
366 550 626 551 
367 420 538 318 
368 195 603 92 
369 284 541 400 
370 480 683 534 
371 612 640 602 
372 413 730 529 
373 39 583 177 
374 589 591 582 
375 178 567 26 
376 287 558 289 
377 746 772 209 
378 277 541 284 
379 534 691 535 
380 259 542 397 
381 547 671 307 
382 423 548 251 
383 357 537 359 
384 235 539 237 
385 436 642 226 
386 306 536 309 
387 318 538 319 
388 399 549 330 
389 786 815 502 
390 294 557 556 
391 579 589 582 
392 475 671 547 
393 298 555 554 
394 397 552 261 
395 44 664 43 
396 251 548 252 
397 25 567 565 
398 272 550 379 
399 604 605 599 
400 568 575 569 
401 568 569 213 
402 233 625 229 
403 40 583 39 
404 304 553 316 
405 578 579 215 
406 336 544 338 
407 578 589 579 
408 67 624 193 
409 356 545 395 
410 298 554 299 
411 597 604 599 
412 294 556 295 
413 88 640 612 
414 596 597 196 
415 92 603 91 
416 22 561 212 
417 443 673 669 
418 343 546 347 
419 413 445 412 
420 395 451 378 
421 607 609 606 
422 324 543 326 
423 539 642 540 
424 401 420 318 
425 25 565 24 
426 400 439 383 
427 69 568 213 
428 65 576 217 
429 41 578 215 
430 214 584 72 
431 570 624 213 
432 229 625 227 
433 217 587 64 
434 216 588 16 
435 73 585 214 
436 366 413 412 
437 249 422 251 
438 26 567 25 
439 49 607 606 
440 401 421 420 
441 322 392 324 
442 285 560 287 
443 573 624 570 
444 284 383 285 
445 422 423 251 
446 669 673 349 
447 569 571 570 
448 255 375 257 
449 90 596 196 
450 313 401 318 
451 356 395 378 
452 551 626 290 
453 392 543 324 
454 270 550 272 
455 623 664 44 
456 565 567 566 
457 600 604 597 
458 272 379 275 
459 347 546 545 
460 48 606 199 
461 590 591 589 
462 356 378 357 
463 341 348 343 
464 228 642 235 
465 193 577 576 
466 96 611 198 
467 289 558 294 
468 277 284 281 
469 197 562 561 
470 302 553 304 
471 267 626 270 
472 328 399 330 
473 194 575 568 
474 87 612 182 
475 614 615 204 
476 304 316 306 
477 597 599 598 
478 332 549 388 
479 284 400 383 
480 569 570 213 
481 366 412 385 
482 347 545 351 
483 299 554 302 
484 263 552 290 
485 313 318 314 
486 351 545 356 
487 257 542 259 
488 563 564 562 
489 259 397 261 
490 579 581 580 
491 275 541 277 
492 375 542 257 
493 379 541 275 
494 539 540 422 
495 27 621 178 
496 248 441 246 
497 596 600 597 
498 252 548 255 
499 351 356 355 
500 235 642 539 
501 237 539 249 
502 447 648 376 
503 261 552 263 
504 319 538 322 
505 302 554 553 
506 579 582 581 
507 571 572 570 
508 558 559 557 
509 590 592 591 
510 192 589 578 
511 330 549 332 
512 439 440 383 
513 36 614 204 
514 359 366 361 
515 579 580 215 
516 249 251 250 
517 289 294 293 
518 597 598 196 
519 332 388 334 
520 180 608 607 
521 338 544 341 
522 525 797 210 
523 598 640 196 
524 284 285 281 
525 608 610 609 
526 298 556 555 
527 359 537 366 
528 255 548 375 
529 197 561 23 
530 309 536 313 
531 197 563 562 
532 295 556 298 
533 192 590 589 
534 194 568 70 
535 71 584 194 
536 192 578 42 
537 193 576 66 
538 15 588 176 
539 63 587 181 
540 179 585 74 
541 322 324 323 
542 246 625 233 
543 180 607 50 
544 309 313 311 
545 312 683 680 
546 602 640 598 
547 322 538 392 
548 599 601 598 
549 35 617 34 
550 475 547 477 
551 270 272 271 
552 237 249 242 
553 180 684 608 
554 294 558 557 
555 608 609 607 
556 91 596 90 
557 90 196 89 
558 96 198 95 
559 24 197 23 
560 93 195 92 
561 48 199 47 
562 22 212 21 
563 46 211 45 
564 263 290 265 
565 249 539 422 
566 215 583 40 
567 341 544 348 
568 324 326 325 
569 295 298 297 
570 67 193 66 
571 69 213 68 
572 71 194 70 
573 19 191 18 
574 43 192 42 
575 73 214 72 
576 17 216 16 
577 41 215 40 
578 65 217 64 
579 15 176 14 
580 27 178 26 
581 39 177 38 
582 99 175 98 
583 51 180 50 
584 75 179 74 
585 87 182 86 
586 63 181 62 
587 319 322 321 
588 177 613 38 
589 273 627 279 
590 255 257 256 
591 49 606 48 
592 480 534 482 
593 177 628 613 
594 356 357 355 
595 97 611 96 
596 88 612 87 
597 267 270 269 
598 341 343 342 
599 294 295 293 
600 272 275 274 
601 366 385 361 
602 209 622 29 
603 252 255 254 
604 326 328 327 
605 446 447 376 
606 412 414 385 
607 318 319 314 
608 338 341 340 
609 28 621 27 
610 615 616 204 
611 398 443 365 
612 366 537 413 
613 343 347 346 
614 23 561 22 
615 70 568 69 
616 313 314 311 
617 66 576 65 
618 42 578 41 
619 72 584 71 
620 74 585 73 
621 16 588 15 
622 64 587 63 
623 91 603 596 
624 441 625 246 
625 257 259 258 
626 279 627 370 
627 613 614 37 
628 50 607 49 
629 28 622 621 
630 572 574 573 
631 24 565 197 
632 593 594 592 
633 347 351 350 
634 328 330 329 
635 37 614 36 
636 429 639 371 
637 632 635 631 
638 12 638 206 
639 313 536 401 
640 275 277 276 
641 534 535 482 
642 417 493 492 
643 639 656 245 
644 372 643 442 
645 302 304 303 
646 213 624 68 
647 443 646 365 
648 370 417 416 
649 218 632 631 
650 362 674 660 
651 371 639 245 
652 277 281 280 
653 616 619 618 
654 370 627 417 
655 13 638 12 
656 304 306 305 
657 249 250 242 
658 631 635 207 
659 38 613 37 
660 299 302 301 
661 282 667 658 
662 204 617 35 
663 372 442 431 
664 251 252 250 
665 565 566 563 
666 259 261 260 
667 68 624 67 
668 270 271 269 
669 472 475 474 
670 218 633 632 
671 475 477 476 
672 240 246 233 
673 247 248 246 
674 285 287 286 
675 633 634 632 
676 206 637 11 
677 208 636 83 
678 181 789 532 
679 29 622 28 
680 383 560 285 
681 477 480 478 
682 218 631 55 
683 219 629 79 
684 221 630 103 
685 30 209 29 
686 84 208 83 
687 102 210 101 
688 54 207 53 
689 60 205 59 
690 78 203 77 
691 12 206 11 
692 36 204 35 
693 11 637 10 
694 339 646 337 
695 324 325 323 
696 322 323 321 
697 330 332 331 
698 83 636 82 
699 446 448 447 
700 54 631 207 
701 78 629 203 
702 102 630 210 
703 417 667 493 
704 660 674 442 
705 398 444 443 
706 261 263 262 
707 428 429 371 
708 55 631 54 
709 103 630 102 
710 79 629 78 
711 56 218 55 
712 32 220 31 
713 80 219 79 
714 104 221 103 
715 351 355 354 
716 306 309 308 
717 616 618 617 
718 272 274 271 
719 441 681 625 
720 196 640 89 
721 417 492 416 
722 341 342 340 
723 480 482 481 
724 616 617 204 
725 619 620 618 
726 228 235 231 
727 257 258 256 
728 89 640 88 
729 255 256 254 
730 298 299 297 
731 326 327 325 
732 43 664 192 
733 290 626 265 
734 332 334 333 
735 657 671 411 
736 287 289 288 
737 377 645 248 
738 590 593 592 
739 596 603 600 
740 442 497 431 
741 680 683 547 
742 572 573 570 
743 580 583 215 
744 343 346 342 
745 447 672 648 
746 357 359 358 
747 328 329 327 
748 511 516 464 
749 224 436 226 
750 345 646 339 
751 197 565 563 
752 275 276 274 
753 475 476 474 
754 289 293 292 
755 658 667 627 
756 347 350 346 
757 359 361 360 
758 238 641 243 
759 364 365 345 
760 477 478 476 
761 509 510 396 
762 243 407 380 
763 243 641 407 
764 309 311 310 
765 259 260 258 
766 330 331 329 
767 263 265 264 
768 302 303 301 
769 434 435 377 
770 375 820 542 
771 480 481 478 
772 307 671 657 
773 390 446 376 
774 593 595 594 
775 368 376 278 
776 304 305 303 
777 393 398 365 
778 428 499 429 
779 403 522 521 
780 334 336 335 
781 295 297 296 
782 514 515 435 
783 601 602 598 
784 235 237 236 
785 306 308 305 
786 472 671 475 
787 277 280 276 
788 240 247 246 
789 285 286 281 
790 261 262 260 
791 351 354 350 
792 370 416 415 
793 319 321 320 
794 435 645 377 
795 279 370 369 
796 440 560 383 
797 482 483 481 
798 263 264 262 
799 238 652 641 
800 411 472 471 
801 472 474 473 
802 336 338 337 
803 247 377 248 
804 237 242 241 
805 332 333 331 
806 267 269 268 
807 309 310 308 
808 344 372 352 
809 508 527 426 
810 372 431 389 
811 317 411 410 
812 334 335 333 
813 265 626 267 
814 338 340 339 
815 519 520 402 
816 312 691 534 
817 265 267 266 
818 357 358 355 
819 122 186 121 
820 106 185 107 
821 117 184 118 
822 112 183 113 
823 407 449 380 
824 364 393 365 
825 287 288 286 
826 367 425 424 
827 244 245 239 
828 368 390 376 
829 492 494 416 
830 384 487 486 
831 390 505 446 
832 295 296 293 
833 478 479 476 
834 510 647 396 
835 489 490 418 
836 432 433 389 
837 252 254 253 
838 424 428 371 
839 503 532 473 
840 425 508 426 
841 108 188 109 
842 110 189 111 
843 124 190 123 
844 115 187 116 
845 390 506 505 
846 415 418 369 
847 367 371 245 
848 370 415 369 
849 393 419 398 
850 437 438 381 
851 114 202 7 
852 119 201 6 
853 120 200 5 
854 271 658 269 
855 235 236 231 
856 319 320 314 
857 365 646 345 
858 344 345 339 
859 311 315 310 
860 415 489 418 
861 269 273 268 
862 111 531 112 
863 385 386 361 
864 472 473 471 
865 474 503 473 
866 391 430 427 
867 336 337 335 
868 359 360 358 
869 107 456 108 
870 434 514 435 
871 5 528 105 
872 449 450 380 
873 425 426 424 
874 372 389 352 
875 431 432 389 
876 364 394 393 
877 232 238 234 
878 338 339 337 
879 267 268 266 
880 449 512 450 
881 352 364 345 
882 367 424 371 
883 340 344 339 
884 234 240 233 
885 273 658 627 
886 265 266 264 
887 6 460 124 
888 512 525 450 
889 279 369 368 
890 274 282 271 
891 268 648 266 
892 273 278 268 
893 342 643 340 
894 289 292 288 
895 279 368 278 
896 514 533 515 
897 299 301 300 
898 590 664 593 
899 411 471 410 
900 232 233 229 
901 307 680 547 
902 282 658 271 
903 244 367 245 
904 243 380 244 
905 511 518 516 
906 305 307 303 
907 310 312 308 
908 317 657 411 
909 443 669 646 
910 470 507 409 
911 344 643 372 
912 361 653 360 
913 344 352 345 
914 286 662 281 
915 350 362 346 
916 280 404 381 
917 317 396 300 
918 238 243 239 
919 376 648 278 
920 273 279 278 
921 391 663 430 
922 387 434 377 
923 416 651 415 
924 243 244 239 
925 323 644 321 
926 247 387 377 
927 403 653 522 
928 237 241 236 
929 242 373 241 
930 387 491 434 
931 410 509 396 
932 437 524 438 
933 183 222 113 
934 183 224 223 
935 476 650 474 
936 494 651 416 
937 252 253 250 
938 186 453 121 
939 404 496 437 
940 321 384 320 
941 232 234 233 
942 184 452 118 
943 106 526 185 
944 317 410 396 
945 187 462 116 
946 486 488 405 
947 340 643 344 
948 643 660 442 
949 408 409 374 
950 238 239 234 
951 373 374 241 
952 188 459 109 
953 280 381 276 
954 299 300 297 
955 335 349 333 
956 258 291 256 
957 202 502 7 
958 301 317 300 
959 474 650 503 
960 427 469 406 
961 327 363 325 
962 358 661 355 
963 190 500 123 
964 192 664 590 
965 487 517 486 
966 264 283 262 
967 384 405 320 
968 382 675 662 
969 281 662 280 
970 225 230 223 
971 408 470 409 
972 331 353 329 
973 384 644 487 
974 404 437 381 
975 686 688 429 
976 231 232 229 
977 360 402 358 
978 593 623 595 
979 391 406 253 
980 415 651 489 
981 355 661 354 
982 228 231 229 
983 360 403 402 
984 186 465 454 
985 373 408 374 
986 386 653 361 
987 368 649 390 
988 479 650 476 
989 254 391 253 
990 403 521 519 
991 384 486 405 
992 418 649 369 
993 369 649 368 
994 467 511 464 
995 288 382 286 
996 662 675 404 
997 390 649 506 
998 403 519 402 
999 278 648 268 
1000 465 513 466 
1001 269 658 273 
1002 297 647 296 
1003 224 226 225 
1004 427 501 469 
1005 477 683 480 
1006 593 664 623 
1007 627 667 417 
1008 183 223 222 
1009 463 464 462 
1010 367 654 425 
1011 382 662 286 
1012 418 676 649 
1013 433 655 389 
1014 454 455 453 
1015 391 427 406 
1016 649 676 506 
1017 226 228 227 
1018 311 668 315 
1019 321 644 384 
1020 639 677 656 
1021 314 668 311 
1022 450 654 380 
1023 364 655 394 
1024 224 225 223 
1025 411 671 472 
1026 380 654 244 
1027 352 655 364 
1028 303 657 301 
1029 667 690 493 
1030 244 654 367 
1031 245 656 239 
1032 186 454 453 
1033 234 656 240 
1034 520 661 402 
1035 389 655 352 
1036 231 652 232 
1037 236 652 231 
1038 301 657 317 
1039 360 653 403 
1040 228 229 227 
1041 232 652 238 
1042 184 485 452 
1043 346 660 342 
1044 402 661 358 
1045 226 227 225 
1046 535 684 482 
1047 300 647 297 
1048 463 467 464 
1049 444 673 443 
1050 188 504 459 
1051 307 657 303 
1052 465 466 454 
1053 320 668 314 
1054 250 659 242 
1055 438 666 381 
1056 280 662 404 
1057 187 463 462 
1058 242 659 373 
1059 202 529 502 
1060 239 656 234 
1061 276 666 274 
1062 256 663 254 
1063 329 665 327 
1064 342 660 643 
1065 362 660 346 
1066 659 682 373 
1067 450 678 654 
1068 274 666 282 
1069 654 678 425 
1070 396 647 300 
1071 254 663 391 
1072 333 670 331 
1073 337 669 335 
1074 646 669 337 
1075 442 674 497 
1076 253 659 250 
1077 405 668 320 
1078 266 672 264 
1079 648 672 266 
1080 381 666 276 
1081 490 676 418 
1082 291 663 256 
1083 335 669 349 
1084 247 677 387 
1085 240 677 247 
1086 656 677 240 
1087 327 665 363 
1088 353 665 329 
1089 425 678 508 
1090 349 670 333 
1091 406 659 253 
1092 305 680 307 
1093 264 672 283 
1094 331 670 353 
1095 491 688 686 
1096 312 680 308 
1097 230 697 693 
1098 404 675 496 
1099 406 682 659 
1100 374 679 241 
1101 525 678 450 
1102 374 689 679 
1103 652 679 641 
1104 625 681 227 
1105 580 695 583 
1106 308 680 305 
1107 241 679 236 
1108 236 679 652 
1109 227 681 225 
1110 716 826 219 
1111 225 681 230 
1112 373 682 408 
1113 677 688 387 
1114 469 682 406 
1115 429 688 639 
1116 547 683 477 
1117 679 689 641 
1118 310 691 312 
1119 482 684 483 
1120 639 688 677 
1121 432 772 433 
1122 682 687 408 
1123 499 686 429 
1124 469 687 682 
1125 177 695 628 
1126 524 733 214 
1127 219 826 724 
1128 663 685 430 
1129 408 687 470 
1130 387 688 491 
1131 210 827 525 
1132 641 689 407 
1133 409 689 374 
1134 291 685 663 
1135 441 702 700 
1136 282 690 667 
1137 315 691 310 
1138 666 690 282 
1139 689 692 407 
1140 438 690 666 
1141 409 692 689 
1142 230 693 223 
1143 407 692 449 
1144 507 692 409 
1145 693 697 445 
1146 412 697 414 
1147 586 762 493 
1148 362 725 674 
1149 777 803 500 
1150 323 698 644 
1151 363 698 325 
1152 583 695 177 
1153 223 693 222 
1154 541 709 400 
1155 540 751 704 
1156 700 702 414 
1157 441 700 681 
1158 375 741 530 
1159 540 704 422 
1160 645 702 248 
1161 448 708 447 
1162 485 696 452 
1163 20 703 19 
1164 489 802 724 
1165 180 722 684 
1166 699 782 455 
1167 493 809 586 
1168 603 713 600 
1169 76 707 75 
1170 445 697 412 
1171 552 719 290 
1172 488 705 405 
1173 20 734 703 
1174 84 710 208 
1175 53 712 52 
1176 175 718 98 
1177 97 718 611 
1178 325 698 323 
1179 618 714 617 
1180 34 714 33 
1181 385 706 386 
1182 435 717 645 
1183 668 705 315 
1184 10 715 9 
1185 82 716 81 
1186 410 711 509 
1187 684 722 483 
1188 559 699 557 
1189 697 700 414 
1190 518 756 516 
1191 421 701 420 
1192 187 786 463 
1193 672 708 283 
1194 52 722 51 
1195 495 767 766 
1196 681 700 230 
1197 491 721 434 
1198 586 809 524 
1199 675 735 575 
1200 563 725 564 
1201 580 726 695 
1202 543 729 326 
1203 537 730 413 
1204 386 720 653 
1205 685 713 430 
1206 328 729 399 
1207 458 798 456 
1208 704 751 189 
1209 248 702 441 
1210 709 745 400 
1211 451 730 378 
1212 19 703 191 
1213 230 700 697 
1214 431 727 432 
1215 76 759 707 
1216 500 823 777 
1217 439 745 526 
1218 216 721 588 
1219 422 704 423 
1220 424 728 428 
1221 703 734 521 
1222 414 706 385 
1223 599 732 601 
1224 645 706 702 
1225 75 707 179 
1226 430 731 427 
1227 405 705 668 
1228 212 734 21 
1229 379 709 541 
1230 447 708 672 
1231 468 800 8 
1232 548 741 375 
1233 182 736 86 
1234 695 726 444 
1235 577 738 576 
1236 519 774 520 
1237 496 733 437 
1238 195 713 603 
1239 85 710 84 
1240 471 711 410 
1241 207 712 53 
1242 191 723 533 
1243 617 714 34 
1244 296 739 293 
1245 449 740 512 
1246 637 715 10 
1247 636 716 82 
1248 515 717 435 
1249 290 719 551 
1250 98 718 97 
1251 60 742 205 
1252 533 781 191 
1253 292 739 572 
1254 653 720 522 
1255 316 754 536 
1256 95 744 94 
1257 528 753 440 
1258 532 742 61 
1259 464 749 462 
1260 720 723 522 
1261 707 759 494 
1262 581 726 580 
1263 693 747 222 
1264 698 771 644 
1265 199 752 47 
1266 46 752 211 
1267 673 743 349 
1268 702 706 414 
1269 434 721 514 
1270 538 766 392 
1271 717 720 386 
1272 401 754 421 
1273 564 764 562 
1274 546 761 545 
1275 638 765 499 
1276 51 722 180 
1277 30 755 209 
1278 515 723 720 
1279 220 755 31 
1280 205 757 59 
1281 484 745 709 
1282 509 738 510 
1283 203 759 77 
1284 176 765 14 
1285 336 773 544 
1286 99 768 175 
1287 13 765 638 
1288 569 735 571 
1289 505 758 446 
1290 178 794 567 
1291 507 740 692 
1292 526 811 439 
1293 363 824 592 
1294 388 773 334 
1295 562 774 561 
1296 533 723 515 
1297 699 753 200 
1298 621 727 178 
1299 556 776 555 
1300 205 805 634 
1301 661 764 354 
1302 191 781 18 
1303 17 781 216 
1304 559 753 699 
1305 634 805 785 
1306 594 771 698 
1307 632 785 635 
1308 566 725 563 
1309 194 812 575 
1310 219 724 629 
1311 1 793 104 
1312 3 792 56 
1313 57 792 3 
1314 9 793 1 
1315 4 791 80 
1316 2 790 32 
1317 81 791 4 
1318 33 790 2 
1319 218 792 633 
1320 210 797 101 
1321 454 780 455 
1322 647 775 296 
1323 354 783 350 
1324 612 816 182 
1325 532 789 473 
1326 616 807 619 
1327 517 787 486 
1328 85 736 710 
1329 670 769 353 
1330 444 726 673 
1331 207 737 712 
1332 122 803 186 
1333 524 809 438 
1334 501 784 469 
1335 214 733 584 
1336 283 819 262 
1337 495 766 701 
1338 292 817 288 
1339 497 727 431 
1340 493 762 492 
1341 525 827 678 
1342 463 786 763 
1343 8 800 110 
1344 701 766 420 
1345 378 730 537 
1346 527 808 426 
1347 326 729 328 
1348 426 728 424 
1349 699 776 557 
1350 595 771 594 
1351 690 809 493 
1352 515 720 717 
1353 575 735 569 
1354 531 751 436 
1355 427 731 501 
1356 503 742 532 
1357 543 767 461 
1358 605 732 599 
1359 260 819 605 
1360 94 750 93 
1361 353 795 665 
1362 491 788 721 
1363 437 733 524 
1364 21 734 20 
1365 572 739 574 
1366 509 818 738 
1367 595 804 771 
1368 86 736 85 
1369 471 789 711 
1370 203 802 651 
1371 382 735 675 
1372 769 795 353 
1373 93 750 195 
1374 635 737 207 
1375 457 779 458 
1376 576 738 217 
1377 555 806 554 
1378 392 767 543 
1379 423 741 548 
1380 188 798 504 
1381 293 739 292 
1382 478 760 479 
1383 795 824 665 
1384 735 817 571 
1385 522 821 521 
1386 496 812 733 
1387 732 819 283 
1388 692 740 449 
1389 110 800 189 
1390 528 811 105 
1391 504 798 694 
1392 481 760 478 
1393 400 745 439 
1394 455 782 453 
1395 61 742 60 
1396 724 802 629 
1397 349 743 670 
1398 58 757 633 
1399 211 804 595 
1400 423 748 741 
1401 651 802 489 
1402 198 744 95 
1403 436 751 540 
1404 655 778 394 
1405 206 808 637 
1406 182 816 758 
1407 725 783 564 
1408 521 821 703 
1409 744 784 501 
1410 619 746 620 
1411 721 788 588 
1412 516 749 464 
1413 176 788 686 
1414 786 801 451 
1415 440 753 559 
1416 433 778 655 
1417 582 769 581 
1418 696 770 452 
1419 47 752 46 
1420 445 747 693 
1421 738 818 217 
1422 458 779 719 
1423 665 824 363 
1424 536 754 401 
1425 382 817 735 
1426 201 770 523 
1427 31 755 30 
1428 59 757 58 
1429 633 757 634 
1430 545 761 395 
1431 761 763 395 
1432 77 759 76 
1433 446 758 448 
1434 420 766 538 
1435 395 763 451 
1436 14 765 13 
1437 520 764 661 
1438 100 768 99 
1439 686 788 491 
1440 195 750 731 
1441 551 779 498 
1442 448 816 602 
1443 704 748 423 
1444 644 771 487 
1445 676 813 208 
1446 209 772 622 
1447 334 773 336 
1448 561 774 212 
1449 733 812 584 
1450 557 776 556 
1451 714 790 33 
1452 715 793 9 
1453 716 791 81 
1454 470 814 611 
1455 510 775 647 
1456 100 797 768 
1457 711 818 509 
1458 498 779 457 
1459 553 810 316 
1460 348 799 546 
1461 465 777 513 
1462 747 822 222 
1463 18 781 17 
1464 771 804 487 
1465 466 780 454 
1466 490 826 813 
1467 554 806 553 
1468 544 796 348 
1469 362 783 725 
1470 728 808 206 
1471 737 760 481 
1472 350 783 362 
1473 588 788 176 
1474 634 785 632 
1475 591 795 582 
1476 451 801 730 
1477 796 799 348 
1478 465 803 777 
1479 567 794 566 
1480 486 787 488 
1481 473 789 471 
1482 749 825 462 
1483 80 791 219 
1484 32 790 220 
1485 56 792 218 
1486 104 793 221 
1487 469 784 687 
1488 806 810 553 
1489 101 797 100 
1490 511 796 518 
1491 591 824 795 
1492 511 799 796 
1493 629 802 203 
1494 467 799 511 
1495 529 801 502 
1496 186 803 465 
1497 731 750 501 
1498 602 816 612 
1499 615 807 616 
1500 487 804 517 
1501 200 782 699 
1502 780 806 555 
1503 198 814 784 
1504 784 814 687 
1505 582 795 769 
1506 584 812 194 
1507 611 814 198 
1508 513 810 466 
1509 703 821 191 
1510 719 779 551 
1511 208 813 636 
1512 217 818 587 
1513 117 825 184 
1514 114 822 202 
1515 115 815 187 
1516 694 798 458 
1517 592 824 591 
1518 490 813 676 
1519 438 809 690 
1520 288 817 382 
1521 466 810 806 
1522 262 819 260 
1523 587 818 711 
1524 687 814 470 
1525 678 827 508 
1526 220 790 714 
1527 221 793 715 
1528 219 791 716 
1529 813 826 636 
1530 191 821 723 
1531 746 778 433 
1532 581 769 743 
1533 635 760 737 
1534 605 819 732 
1535 724 826 490 
1536 433 772 746 
1537 421 823 701 
1538 743 769 670 
1539 730 801 529 
1540 636 826 716 
1541 426 808 728 
1542 723 821 522 
1543 619 778 746 
1544 198 784 744 
1545 763 786 451 
1546 748 800 468 
1547 202 822 747 
1548 184 825 749 
1549 758 816 448 
1550 466 806 780 
1551 777 823 421 
1552 187 815 786 
$EndElements
