$MeshFormat
4.1 0 8
$EndMeshFormat
$PhysicalNames
2
2 1 "Circle"
2 2 "Square"
$EndPhysicalNames
$Entities
9 8 3 0
1 0 0 0 0 
2 1 0 0 0 
3 1 1 0 0 
4 0 1 0 0 
5 0.5 0.5 0 0 
6 0.5 0.65 0 0 
7 0.65 0.5 0 0 
8 0.5 0.35 0 0 
9 0.35 0.5 0 0 
1 -9.999999994736442e-08 -1e-07 -1e-07 1.0000001 1e-07 1e-07 0 2 1 -2 
2 0.9999999000000001 -9.999999994736442e-08 -1e-07 1.0000001 1.0000001 1e-07 0 2 2 -3 
3 -9.999999994736442e-08 0.9999999000000001 -1e-07 1.0000001 1.0000001 1e-07 0 2 3 -4 
4 -1e-07 -9.999999994736442e-08 -1e-07 1e-07 1.0000001 1e-07 0 2 4 -1 
5 0.3499999 0.4999999 -1e-07 0.5000000999999999 0.6500001 1e-07 0 2 6 -9 
6 0.3499999 0.3499999 -1e-07 0.5000000999999999 0.5000000999999999 1e-07 0 2 9 -8 
7 0.4999999 0.3499999 -1e-07 0.6500001 0.5000000999999999 1e-07 0 2 8 -7 
8 0.4999999 0.4999999 -1e-07 0.6500001 0.6500001 1e-07 0 2 6 -7 
1 -9.999999994736442e-08 -9.999999994736442e-08 -1e-07 1.0000001 1.0000001 1e-07 0 4 1 2 3 4 
2 0.3499999 0.3499999 -1e-07 0.6500001 0.6500001 1e-07 1 1 4 5 6 7 -8 
3 -9.999999994736442e-08 -9.999999994736442e-08 -1e-07 1.0000001 1.0000001 1e-07 1 2 8 1 2 3 4 8 -7 -6 -5 
$EndEntities
$Nodes
18 752 1 752
0 1 0 1
1
0 0 0
0 2 0 1
2
1 0 0
0 3 0 1
3
1 1 0
0 4 0 1
4
0 1 0
0 6 0 1
5
0.5 0.65 0
0 7 0 1
6
0.65 0.5 0
0 8 0 1
7
0.5 0.35 0
0 9 0 1
8
0.35 0.5 0
1 1 0 22
9
10
11
12
13
14
15
16
17
18
19
20
21
22
23
24
25
26
27
28
29
30
0.04347826086956531 0 0
0.08695652173913063 0 0
0.130434782608696 0 0
0.1739130434782613 0 0
0.2173913043478267 0 0
0.2608695652173921 0 0
0.3043478260869574 0 0
0.3478260869565228 0 0
0.3913043478260881 0 0
0.4347826086956532 0 0
0.4782608695652183 0 0
0.5217391304347835 0 0
0.5652173913043487 0 0
0.6086956521739137 0 0
0.6521739130434789 0 0
0.695652173913044 0 0
0.7391304347826092 0 0
0.7826086956521744 0 0
0.8260869565217395 0 0
0.8695652173913047 0 0
0.9130434782608697 0 0
0.9565217391304349 0 0
1 2 0 22
31
32
33
34
35
36
37
38
39
40
41
42
43
44
45
46
47
48
49
50
51
52
1 0.04347826086956531 0
1 0.08695652173913063 0
1 0.130434782608696 0
1 0.1739130434782613 0
1 0.2173913043478267 0
1 0.2608695652173921 0
1 0.3043478260869574 0
1 0.3478260869565228 0
1 0.3913043478260881 0
1 0.4347826086956532 0
1 0.4782608695652183 0
1 0.5217391304347835 0
1 0.5652173913043487 0
1 0.6086956521739137 0
1 0.6521739130434789 0
1 0.695652173913044 0
1 0.7391304347826092 0
1 0.7826086956521744 0
1 0.8260869565217395 0
1 0.8695652173913047 0
1 0.9130434782608697 0
1 0.9565217391304349 0
1 3 0 22
53
54
55
56
57
58
59
60
61
62
63
64
65
66
67
68
69
70
71
72
73
74
0.9565217391304347 1 0
0.9130434782608694 1 0
0.869565217391304 1 0
0.8260869565217387 1 0
0.7826086956521733 1 0
0.739130434782608 1 0
0.6956521739130426 1 0
0.6521739130434772 1 0
0.608695652173912 1 0
0.5652173913043468 1 0
0.5217391304347816 1 0
0.4782608695652165 1 0
0.4347826086956513 1 0
0.3913043478260863 1 0
0.3478260869565211 1 0
0.304347826086956 1 0
0.2608695652173908 1 0
0.2173913043478256 1 0
0.1739130434782605 1 0
0.1304347826086953 1 0
0.08695652173913027 1 0
0.04347826086956508 1 0
1 4 0 22
75
76
77
78
79
80
81
82
83
84
85
86
87
88
89
90
91
92
93
94
95
96
0 0.9565217391304347 0
0 0.9130434782608694 0
0 0.869565217391304 0
0 0.8260869565217387 0
0 0.7826086956521733 0
0 0.739130434782608 0
0 0.6956521739130426 0
0 0.6521739130434772 0
0 0.608695652173912 0
0 0.5652173913043468 0
0 0.5217391304347816 0
0 0.4782608695652165 0
0 0.4347826086956513 0
0 0.3913043478260863 0
0 0.3478260869565211 0
0 0.304347826086956 0
0 0.2608695652173908 0
0 0.2173913043478256 0
0 0.1739130434782605 0
0 0.1304347826086953 0
0 0.08695652173913027 0
0 0.04347826086956508 0
1 5 0 5
97
98
99
100
101
0.4611771432346218 0.6448888739433603 0
0.425 0.6299038105676658 0
0.3939339828220179 0.6060660171779821 0
0.3700961894323342 0.5750000000000001 0
0.3551111260566397 0.5388228567653782 0
1 6 0 5
102
103
104
105
106
0.3551111260566397 0.4611771432346219 0
0.3700961894323341 0.425 0
0.3939339828220179 0.3939339828220179 0
0.425 0.3700961894323342 0
0.4611771432346218 0.3551111260566397 0
1 7 0 5
107
108
109
110
111
0.5388228567653781 0.3551111260566397 0
0.575 0.3700961894323342 0
0.6060660171779821 0.3939339828220178 0
0.6299038105676658 0.4249999999999999 0
0.6448888739433603 0.4611771432346218 0
1 8 0 5
112
113
114
115
116
0.5388228567653782 0.6448888739433603 0
0.5750000000000001 0.6299038105676658 0
0.6060660171779821 0.6060660171779821 0
0.6299038105676658 0.5750000000000001 0
0.6448888739433603 0.5388228567653782 0
2 2 0 50
117
118
119
120
121
122
123
124
125
126
127
128
129
130
131
132
133
134
135
136
137
138
139
140
141
142
143
144
145
146
147
148
149
150
151
152
153
154
155
156
157
158
159
160
161
162
163
164
165
166
0.4560660171779821 0.6060660171779821 0
0.5439339828220179 0.3939339828220178 0
0.3939339828220178 0.4560660171779822 0
0.6038607001708762 0.5443189772789996 0
0.4549158419476786 0.3932032704843887 0
0.3939339828220179 0.543933982822018 0
0.607205241298212 0.4564802990195353 0
0.546446811427822 0.6089380006029809 0
0.4839190461977123 0.6221469709802698 0
0.484700435438566 0.5850485632451988 0
0.4536777404858728 0.5674642135436474 0
0.4844921336481932 0.5458173026830215 0
0.4512580811291377 0.5283669207922388 0
0.4823579314714987 0.5066792833368935 0
0.5172187370714382 0.5240329359740352 0
0.514696315298882 0.4849193156799948 0
0.4795746277792735 0.4676089327797097 0
0.5489132859712035 0.5017541528593048 0
0.5454413940563301 0.465239074309914 0
0.5555077002996779 0.5424855599144265 0
0.5168053327070364 0.5631403210162004 0
0.4481471378693494 0.4905191972973059 0
0.4394321025709372 0.4525377344547986 0
0.4765284166326781 0.4274238176492217 0
0.5112371865816915 0.4469980441105618 0
0.4138663919480902 0.5151209590081585 0
0.5132913031029553 0.4093735403160642 0
0.5788426330995584 0.480797159018298 0
0.5850607845464794 0.5153912882054752 0
0.5833881251561526 0.5745224861233602 0
0.6148107717141652 0.4892327910791124 0
0.4256946008772087 0.5887434615638201 0
0.5440557583313506 0.4296459018110969 0
0.5741807264564304 0.4107293937160864 0
0.4873232827939077 0.3854514304595423 0
0.5142984765075338 0.6063738549983035 0
0.4159730417428342 0.4815289367376929 0
0.4128294062861699 0.4246682429183811 0
0.3843503101071862 0.4891337856658015 0
0.4242652414667937 0.5512936093303502 0
0.5751615845766982 0.4463170078056982 0
0.5170607727393263 0.3784376765937347 0
0.547464210669833 0.5777294060479072 0
0.4007975794380799 0.573126271533094 0
0.5991018877201763 0.4266919538047196 0
0.4442359292183361 0.4205796538122979 0
0.4264519146070304 0.399967020659147 0
0.3783576467027452 0.5191201981505971 0
0.6212635916206439 0.5195112272360547 0
0.5716175659529164 0.6008001060106108 0
2 3 0 586
167
168
169
170
171
172
173
174
175
176
177
178
179
180
181
182
183
184
185
186
187
188
189
190
191
192
193
194
195
196
197
198
199
200
201
202
203
204
205
206
207
208
209
210
211
212
213
214
215
216
217
218
219
220
221
222
223
224
225
226
227
228
229
230
231
232
233
234
235
236
237
238
239
240
241
242
243
244
245
246
247
248
249
250
251
252
253
254
255
256
257
258
259
260
261
262
263
264
265
266
267
268
269
270
271
272
273
274
275
276
277
278
279
280
281
282
283
284
285
286
287
288
289
290
291
292
293
294
295
296
297
298
299
300
301
302
303
304
305
306
307
308
309
310
311
312
313
314
315
316
317
318
319
320
321
322
323
324
325
326
327
328
329
330
331
332
333
334
335
336
337
338
339
340
341
342
343
344
345
346
347
348
349
350
351
352
353
354
355
356
357
358
359
360
361
362
363
364
365
366
367
368
369
370
371
372
373
374
375
376
377
378
379
380
381
382
383
384
385
386
387
388
389
390
391
392
393
394
395
396
397
398
399
400
401
402
403
404
405
406
407
408
409
410
411
412
413
414
415
416
417
418
419
420
421
422
423
424
425
426
427
428
429
430
431
432
433
434
435
436
437
438
439
440
441
442
443
444
445
446
447
448
449
450
451
452
453
454
455
456
457
458
459
460
461
462
463
464
465
466
467
468
469
470
471
472
473
474
475
476
477
478
479
480
481
482
483
484
485
486
487
488
489
490
491
492
493
494
495
496
497
498
499
500
501
502
503
504
505
506
507
508
509
510
511
512
513
514
515
516
517
518
519
520
521
522
523
524
525
526
527
528
529
530
531
532
533
534
535
536
537
538
539
540
541
542
543
544
545
546
547
548
549
550
551
552
553
554
555
556
557
558
559
560
561
562
563
564
565
566
567
568
569
570
571
572
573
574
575
576
577
578
579
580
581
582
583
584
585
586
587
588
589
590
591
592
593
594
595
596
597
598
599
600
601
602
603
604
605
606
607
608
609
610
611
612
613
614
615
616
617
618
619
620
621
622
623
624
625
626
627
628
629
630
631
632
633
634
635
636
637
638
639
640
641
642
643
644
645
646
647
648
649
650
651
652
653
654
655
656
657
658
659
660
661
662
663
664
665
666
667
668
669
670
671
672
673
674
675
676
677
678
679
680
681
682
683
684
685
686
687
688
689
690
691
692
693
694
695
696
697
698
699
700
701
702
703
704
705
706
707
708
709
710
711
712
713
714
715
716
717
718
719
720
721
722
723
724
725
726
727
728
729
730
731
732
733
734
735
736
737
738
739
740
741
742
743
744
745
746
747
748
749
750
751
752
0.2400815277283666 0.9622087276049931 0
0.9632041721077885 0.7596839836742187 0
0.7594952231231957 0.03393643265661672 0
0.03361984929822293 0.2309861645123227 0
0.6106051866607487 0.6467176925186118 0
0.3532817608105921 0.6106038476008231 0
0.3893957693293524 0.3532821588743048 0
0.6476419974514431 0.3900409437502687 0
0.7608695652173906 0.9623467215745896 0
0.04298786446153113 0.7593128901430692 0
0.2384112105026885 0.03621149908645105 0
0.963298573512092 0.2387680823877549 0
0.6686516597792524 0.5690835324048447 0
0.4282394838213053 0.6691539732831104 0
0.5679801857880868 0.3288904516868385 0
0.3310411460942534 0.4311710698955706 0
0.3169226677837991 0.5183766010874817 0
0.4816202722808426 0.3169201016467876 0
0.5221776002380251 0.6822349445903082 0
0.6846293160223865 0.475637305872582 0
0.03591977293775661 0.6294203989898817 0
0.6300086223434983 0.9622097252230392 0
0.3697286645417684 0.03749451956614169 0
0.9653966871636163 0.3747874408024489 0
0.9625060434372934 0.6302016150391263 0
0.3698723024393714 0.9636668475226235 0
0.6315814211156986 0.04337407990415482 0
0.03706732271294078 0.3685803930739419 0
0.03675874859607775 0.5022573861216153 0
0.4997935616060198 0.9624066499387656 0
0.5000000000000009 0.03765327842541033 0
0.9623467215745897 0.5000000000000009 0
0.9623933778855145 0.8477540890772843 0
0.1521634187304811 0.9634807468135379 0
0.8486161656154199 0.03717670535485679 0
0.04077108352019282 0.1562443508667246 0
0.847809892168381 0.963422848411831 0
0.03684226923264433 0.8480091142961665 0
0.9633903682846823 0.1474081413887076 0
0.1521739130434786 0.0376532784254105 0
0.9312518165517252 0.9583955769805257 0
0.06540103402776637 0.03681355696986793 0
0.0445775794926514 0.9338971327100458 0
0.9623467215745896 0.06521739130434784 0
0.6130863430021954 0.3526136120056218 0
0.6553707577603992 0.3492048681460518 0
0.6824337152851598 0.3743569605803635 0
0.6914183420511394 0.3368998959742371 0
0.7207841399951832 0.3620044067238775 0
0.7287303743252743 0.3222992544474602 0
0.7003104992007102 0.2976190637626918 0
0.7369098807251208 0.2824246106739067 0
0.7075235810528913 0.2557996811734073 0
0.744899849036504 0.2418517655913149 0
0.7589770206853625 0.3486642366945031 0
0.7135850066444969 0.2146018145688298 0
0.6776167387526245 0.2308107272069152 0
0.752550334409182 0.2010520679558227 0
0.7755030254911077 0.2688815291061253 0
0.7210410834615582 0.1735736595855844 0
0.7510326185346855 0.3887044675722467 0
0.78953343547108 0.3758323562417362 0
0.7815437631508926 0.4157360675128505 0
0.8201877025516692 0.4031242115268944 0
0.8122214605751985 0.443365098263199 0
0.8287536334104265 0.3645627790813206 0
0.7606843454275098 0.1599722486502343 0
0.7922543306837446 0.1876070509684885 0
0.8512097523502435 0.4304745735118038 0
0.843278229845605 0.4707541682834464 0
0.8039584787994478 0.4839766345750487 0
0.8349357842815879 0.5112718423463676 0
0.795719612027656 0.5243741826796648 0
0.8265641195778216 0.551727812460245 0
0.7874343769236032 0.5646758213010602 0
0.8179431231981994 0.5912683053035608 0
0.7790618877533937 0.6049055405755527 0
0.811312017497767 0.6299843630800523 0
0.7709943673691648 0.6449996096166224 0
0.8036241296364676 0.6709356761222605 0
0.7627399674567156 0.6854756302502586 0
0.7936305342265211 0.7130496972704122 0
0.7538812085137085 0.7264433262098159 0
0.7848855983968441 0.7540989324404191 0
0.7451743404700302 0.7672777065138349 0
0.776491307566762 0.7951189144352564 0
0.7366672679684582 0.8081939936700789 0
0.7053925808260574 0.7803765271295193 0
0.6968724280629359 0.8212665102359888 0
0.6657847431151602 0.7934105762026407 0
0.8163078346571268 0.7818936314997873 0
0.8325687428883696 0.7004088702064467 0
0.8079261315198674 0.8231879793285641 0
0.6575838455348212 0.8325491757840398 0
0.6262309245399006 0.8061640924235403 0
0.6166045329403944 0.8494329075149774 0
0.5861289037805946 0.818642920220939 0
0.7229927652665883 0.6988683924048327 0
0.5940567146209373 0.7798948189162777 0
0.5556430586919758 0.7917936283453175 0
0.546776450960457 0.8310219490990458 0
0.5163667394272411 0.8042995943682016 0
0.5078287004880347 0.8452859697800036 0
0.4770084812614465 0.8172233124450846 0
0.4689073870655468 0.856709914066547 0
0.4388575955908831 0.8284520640788123 0
0.4453166347341416 0.7895734633198327 0
0.406314960858268 0.8027019604526429 0
0.4002820525662221 0.8475210954976204 0
0.3677553611865258 0.8155117251765466 0
0.373997448351614 0.7775191166257724 0
0.3366113172098402 0.7871072636546289 0
0.3278763713677925 0.8273800765372532 0
0.2972233765522372 0.7990406872210729 0
0.3059704206127734 0.7588688222213623 0
0.2666306393609744 0.7707868575469005 0
0.2758935268562105 0.7300857174253182 0
0.2361969504241522 0.7424458992860037 0
0.2465178992035461 0.702196403801807 0
0.2270998532301247 0.7832052573348048 0
0.2058313018940877 0.7143115788994845 0
0.2158683372864271 0.6738730968724155 0
0.175195249934341 0.6860501879478298 0
0.1844816315728702 0.6454547932810681 0
0.2249635385674242 0.6331568604657527 0
0.1936874904251288 0.604823647922766 0
0.1658040178375342 0.7267589560165392 0
0.2880331826075824 0.8397411903358817 0
0.686595659095889 0.8585306983836213 0
0.3173998662168706 0.7211773887001183 0
0.1349003641692511 0.6983061148631806 0
0.1519215952293901 0.6167685563776844 0
0.1609628764051924 0.5762348999518908 0
0.202471199238847 0.5642424240877669 0
0.1721545143024961 0.5360451483464311 0
0.2115958092110883 0.5244537724386953 0
0.1819044059218715 0.49589871147451 0
0.2205540348163121 0.4842422707731538 0
0.1912225628046611 0.4556944977794243 0
0.1517020003820916 0.4676939577007952 0
0.1611592664183519 0.4273535912081317 0
0.2008272364710393 0.4153964967366766 0
0.1707621750299728 0.3870420892685488 0
0.2091123426609928 0.3748587974465267 0
0.1800936644365683 0.3466990178751071 0
0.2184561007807189 0.3345182025471048 0
0.1895727928611872 0.3063509499631805 0
0.2296182945513677 0.2945790093489036 0
0.1993702911053056 0.2659789594204968 0
0.2395094968216062 0.2539710538993785 0
0.2089067240414329 0.2252507250511133 0
0.2491787497328032 0.2133260099353184 0
0.2796359053033841 0.2420174760804429 0
0.2893167376373341 0.2014638033321651 0
0.3195299084755066 0.2301486579427289 0
0.32933802798725 0.1898701606698929 0
0.3593977274142587 0.2183090794264603 0
0.3695704170651696 0.1794015642375942 0
0.3993407070036485 0.2066672058406012 0
0.4093664045769354 0.1676220427172079 0
0.4391535689282605 0.1949204329716293 0
0.2186549821727383 0.1843480559934746 0
0.1781574727479992 0.1964313356212432 0
0.1495425537841316 0.3193617485396814 0
0.2556852607417347 0.3205895977501179 0
0.2988210284765919 0.1539100664561469 0
0.4488074221674585 0.1545710430115272 0
0.478689338803566 0.1821843254240218 0
0.1879143394743379 0.1552096962771166 0
0.8005271939843158 0.1462598278002013 0
0.8323970451589854 0.1742106023683819 0
0.8480397583821885 0.8098191558493548 0
0.8573696043126195 0.5731315842308393 0
0.4888110164240423 0.143051720544735 0
0.5186505296989504 0.1703011559675068 0
0.5288486753166896 0.1311185084295027 0
0.557308093312493 0.1593919931705499 0
0.5488429458197752 0.19853670867972 0
0.3947983428248127 0.2509613704087674 0
0.1212645829831864 0.4392761662485374 0
0.8395962817283079 0.8514581527738817 0
0.5431355319226668 0.8682676821499498 0
0.7290150513423337 0.1323844774280096 0
0.6891633191574149 0.1461005821699992 0
0.147196772715278 0.1673851913417771 0
0.1374623831249455 0.2087834632419849 0
0.1327432776828632 0.5480671836817846 0
0.318941901990845 0.8681251865730625 0
0.7992190719279988 0.8647940914979204 0
0.7644998804606333 0.53869468476101 0
0.8405970249005117 0.134095879380091 0
0.4133736755878317 0.1315240565285507 0
0.565160341052647 0.1189014363866723 0
0.4732582292734297 0.2196092215781811 0
0.2415006736070686 0.3999000058033493 0
0.6073217073588395 0.310973262112662 0
0.5746196416353108 0.2885863636921035 0
0.6971337148344763 0.1046829866452683 0
0.5917655264920882 0.1893738620713761 0
0.1255534285798632 0.739413664594387 0
0.7432393394118484 0.6171493634262895 0
0.2787894525580089 0.8807920865172167 0
0.8828544077988267 0.4574563492047316 0
0.2399342516237043 0.5521846468557178 0
0.3094526919619597 0.2780759902890665 0
0.6761975493573774 0.7530158373128389 0
0.8746619148210546 0.1624452431838008 0
0.8643074032302043 0.2023471258538306 0
0.8854272265280787 0.1175849237864325 0
0.6572343514434722 0.1186257361202093 0
0.5244546982710308 0.7677236278785244 0
0.2274344881303206 0.1443863095736899 0
0.1975019620258524 0.1139917205412836 0
0.09670421062578494 0.711164846943835 0
0.2482452156065021 0.8522426071425132 0
0.8564269813625025 0.7683645226009762 0
0.8884373395542984 0.796395565726524 0
0.1566794079254146 0.7680545295693773 0
0.116164452273521 0.7808085007248263 0
0.1473904254116802 0.8096094627230355 0
0.891065132476563 0.4176617576229099 0
0.6101619870349745 0.272509986060184 0
0.1046251485013988 0.6706365158835925 0
0.3116309226031975 0.9067299251661582 0
0.7431904726319766 0.4291162454890428 0
0.8109340953910081 0.108404896572404 0
0.3503957106657662 0.8964603679134393 0
0.1118984794758625 0.4800473724864798 0
0.08022438240780233 0.4497685315647331 0
0.1075028711736641 0.8216167177177955 0
0.1383754978505521 0.8512431414426636 0
0.2365908922881089 0.8905861613068247 0
0.9244614956311213 0.4404860525228015 0
0.8927855648385746 0.7521209351188191 0
0.1069597786171858 0.1816840150231159 0
0.1134081837568127 0.1385928824224422 0
0.9058933498523335 0.1901451629374419 0
0.895611666142934 0.2307949969918242 0
0.8558760740283573 0.2442462199390263 0
0.8873853193912271 0.2723434190957991 0
0.8473872096215228 0.2852996529430801 0
0.8790538366729246 0.3133574453229692 0
0.9209688732953838 0.2992411277226609 0
0.09951369568331003 0.8620518154193396 0
0.1333379366552854 0.892656479834826 0
0.8327342882107435 0.8930831008787639 0
0.871632015703152 0.8797661030896751 0
0.09291246272381815 0.4106541013543196 0
0.1784616980643404 0.8377133830470082 0
0.4198228081340413 0.3328110095730968 0
0.3834004402395286 0.3164617149881918 0
0.3516738357213296 0.3380539392092662 0
0.3328110494176293 0.5801773950072959 0
0.3136491974405556 0.6162636573441033 0
0.3372759533505473 0.6465202684465363 0
0.297571332510396 0.6529404912868725 0
0.5799418504107637 0.6661055124742884 0
0.616061402945038 0.6834233690679277 0
0.647999255931514 0.6597872528707639 0
0.5842314752462748 0.7086817034508038 0
0.6853656628854506 0.5241482331801425 0
0.3189339828220179 0.4761622066103164 0
0.2919671096811444 0.4442577550399504 0
0.2988182033681002 0.4055532838786248 0
0.2846259608310481 0.5000000000000001 0
0.4863593073460081 0.683923907594446 0
0.6504391208498785 0.1587356062672735 0
0.6660053372531763 0.4334473562625321 0
0.5222752145036215 0.3223029755974108 0
0.5048329194147799 0.2839157815804033 0
0.4597451959989852 0.2820917377658915 0
0.2410307562173197 0.1091662004820386 0
0.5384931059194766 0.09191724249371463 0
0.5765931559494299 0.07754355067462282 0
0.7194308836379527 0.4989737803886751 0
0.6220012586786363 0.7236926671719303 0
0.09898932003727601 0.2221071522786777 0
0.127874858393818 0.2504508286010814 0
0.08745242433270872 0.2651974565908191 0
0.2922606844035248 0.5841484753647599 0
0.7914457581280432 0.9042095410773155 0
0.7588858772098558 0.8778914929874021 0
0.06823825851127391 0.6909159474220499 0
0.9107615562766982 0.3402356826961884 0
0.5759125011079823 0.2525414587454148 0
0.7076812964896054 0.5579776137306329 0
0.7355668753000625 0.09266082655757246 0
0.704210953783744 0.06638405228636096 0
0.652190087167185 0.6031313984982997 0
0.3962359058720538 0.6525161461320302 0
0.3988745923382788 0.6929777181505833 0
0.4330561664110165 0.7085679376307604 0
0.3451720547039805 0.3982783124463082 0
0.6069501303522119 0.2316322609531696 0
0.08522851342786442 0.9027321102826502 0
0.6396489112340489 0.292131370647398 0
0.689207348256422 0.597244076144313 0
0.9215106919938523 0.4860572784208241 0
0.4048455632585441 0.7297742514503114 0
0.3641020179052117 0.7156322685204612 0
0.5087722087421569 0.7163058794798063 0
0.3189994694392374 0.3641633798606496 0
0.3166472573203728 0.3218374453778234 0
0.2750987365139139 0.3726138937437872 0
0.5429900191667481 0.04480504749986597 0
0.05143973052779427 0.4227944816555544 0
0.621221936303008 0.132074920777427 0
0.4149506045183516 0.2916678781796627 0
0.6303137655452511 0.09024221162647561 0
0.07625739449539282 0.7913958798547309 0
0.06538060572835702 0.1963020582423014 0
0.217569183188012 0.07520759799529697 0
0.1676314426441382 0.0800089253921874 0
0.5415364674806034 0.2669219610798778 0
0.5076028669982218 0.244278851350789 0
0.9307859515731717 0.4012747212302764 0
0.2792593370078702 0.543114284753868 0
0.3512342779414394 0.2597153965149612 0
0.6335796280080793 0.7613754651052718 0
0.2308984444446329 0.5920362653950217 0
0.2685532250527518 0.61689763600724 0
0.256751765512049 0.6615908708803295 0
0.4492954582094539 0.7487205026554354 0
0.7471709393798811 0.5728956206984338 0
0.4360567585357276 0.2321247936391968 0
0.7479484568105601 0.9215174936945603 0
0.2702582903802375 0.2824929724222304 0
0.4843568609108612 0.7788970175604536 0
0.759810254103283 0.5001192838582006 0
0.7727968905178701 0.4569883077271278 0
0.8691513519802772 0.352240088570759 0
0.7145345999783641 0.7395424121499303 0
0.6851617661168643 0.7144069001971229 0
0.6915104274870201 0.6711117112234275 0
0.7336596125099325 0.6584213906676705 0
0.2290043937593943 0.4427001083165281 0
0.7042554878631448 0.4353166739288024 0
0.9629502827354983 0.804123627990489 0
0.924277252600373 0.8230075369832264 0
0.916961113599132 0.870779675116116 0
0.1953399210805538 0.9628320966218762 0
0.1715849520912753 0.922802000939562 0
0.8040257299592661 0.03698102823828298 0
0.824084892747063 0.2157915177679562 0
0.348395936461666 0.2991144829917973 0
0.5619081739441869 0.7487801661492014 0
0.4566884424120362 0.9624184582149664 0
0.4782521318592581 0.9262443661858313 0
0.4353648617204069 0.9261868839593328 0
0.5211526153454182 0.9278700308874274 0
0.4134224758175094 0.9628331144057205 0
0.3874130805001967 0.921573736273847 0
0.4142060694635026 0.8879342688692865 0
0.5429197032307189 0.9627794077358273 0
0.5645061428965781 0.9279993615150421 0
0.5866593169287726 0.9629567351309901 0
0.6082206465991309 0.925648199566486 0
0.6504838275138551 0.9256582978378991 0
0.5839396765782768 0.8879536094659521 0
0.6733340021274609 0.9619142251115158 0
0.6945033296917393 0.9245893429219245 0
0.7185729937571336 0.961727963883765 0
0.6294641792542398 0.8908426880822584 0
0.4128737191631034 0.03756744750376828 0
0.3913088994787092 0.07216517152232393 0
0.3484212694070328 0.07436002856454094 0
0.4347090614851611 0.07216527757062691 0
0.371672307579805 0.1117882962814178 0
0.3273067905424413 0.1119722313991993 0
0.3057939393025816 0.07519384724667044 0
0.2846592102279895 0.1122371940015445 0
0.4562807931540999 0.03710778712970297 0
0.4765783247222188 0.0727924143895009 0
0.9646301987211855 0.5435171597941386 0
0.9628968246778886 0.586963238039483 0
0.9262991849377613 0.6085195281106204 0
0.9253061680218165 0.6514011792758254 0
0.8880985759862047 0.6298141708469068 0
0.8908822928419285 0.6709060230086243 0
0.9268045327469447 0.6919581627826791 0
0.8481933186887574 0.6584890924605884 0
0.9262747192728538 0.5614549030462705 0
0.03730560671734129 0.5869808905766432 0
0.07476556586017713 0.6073993560733095 0
0.0732128497917568 0.5666118234808809 0
0.1145771338569442 0.5856462299982236 0
0.03776614085736968 0.5441414454990338 0
0.07193496082748102 0.5286469685392214 0
0.9552993827028795 0.3309638893589088 0
0.9602432489704067 0.2824041358341499 0
0.3260887155881478 0.9638642595981137 0
0.282453837206507 0.9624361291398815 0
0.03765327842541011 0.3260869565217385 0
0.07267777757250471 0.3476250212690266 0
0.07714649849148397 0.3080893185378498 0
0.04357584890950583 0.276058130641388 0
0.9612402507623913 0.8910302361748093 0
0.9280388023183621 0.9148654027931375 0
0.9632930608127355 0.7153155131785309 0
0.713646525221947 0.3996834876615962 0
0.8043205735992458 0.9648506952459531 0
0.9555764203372525 0.1916748272792348 0
0.9629849675031317 0.6727837595387807 0
0.8910510293328937 0.03733247006640628 0
0.8695188313925002 0.07339348408127588 0
0.9128655801939701 0.07520370868363857 0
0.9284374197129978 0.1181471022588895 0
0.04770103470107528 0.1075671528409439 0
0.1091049820794343 0.9661150420933446 0
0.2837145249619749 0.03707258254641599 0
0.0345134198819701 0.7142044753812026 0
0.1087248897268556 0.03556045871970437 0
0.08722217294089812 0.07349407956558507 0
0.8888116744286831 0.9632966527261142 0
0.8670584160278918 0.9241280753067704 0
0.03764766526465446 0.8913140701057081 0
0.8158867498192366 0.2574584298449195 0
0.8069471191804296 0.2975578292026901 0
0.1698640119724278 0.8802246686854975 0
0.3265669715065502 0.03738572217869957 0
0.8756382564882867 0.4985139061185221 0
0.9043649002130436 0.5269127432392089 0
0.68228002014492 0.1875085792761397 0
0.6386596305307559 0.2029593930401674 0
0.3585519772539821 0.8551356925409985 0
0.1319414362418152 0.3990333259284572 0
0.168477125701582 0.2374362121707855 0
0.8814906269279086 0.838537698256463 0
0.157035695000582 0.1260615771649685 0
0.2686235319337104 0.9228150107275441 0
0.8603175964513481 0.7268661229304205 0
0.5026481741066889 0.8887544653036064 0
0.6656097913590172 0.07656508902153075 0
0.08510764162177037 0.7520016392221244 0
0.7841965303644729 0.2287737268724379 0
0.2590521595580589 0.1727147901539713 0
0.7277658628163197 0.8489717987250693 0
0.1965329791449741 0.7547673594057535 0
0.257600775369045 0.8114090528308712 0
0.7679477698105291 0.8361995602620002 0
0.1441691846646124 0.6576780211176819 0
0.7688850529360954 0.1196429067787241 0
0.1414360914378706 0.3593446819087704 0
0.1434379633584237 0.5081689786776317 0
0.8657164988553969 0.5387301476409846 0
0.1173272913181249 0.2930378098442393 0
0.8241077351983352 0.7409322038471118 0
0.1586941521940249 0.2787694180899108 0
0.4535043466311072 0.1108790507132717 0
0.7671399076415615 0.3092870470389052 0
0.1873012793412654 0.7965962744661421 0
0.1107751908847593 0.6307027151301821 0
0.07476456161046607 0.1323785580188974 0
0.9629851423467887 0.4576275163444916 0
0.126072528697168 0.09745542531989648 0
0.6414834103725626 0.2500547442081819 0
0.5889057744475354 0.03808260620822723 0
0.218029235094091 0.824389268063666 0
0.7776480359750997 0.07571150194998993 0
0.6777699262604682 0.03588189280181842 0
0.2866351474964579 0.6913047494383872 0
0.926477674822541 0.7778697699997927 0
0.3462949183590318 0.1486647830303635 0
0.7153830353521176 0.8885177634702606 0
0.5468293874183721 0.7117896507079009 0
0.2611364046976735 0.4697086198327927 0
0.3649297887988326 0.6712382428701826 0
0.03706192374997341 0.8057304790845461 0
0.4710289619293397 0.7147769134644075 0
0.9265195138094869 0.2568247680813378 0
0.9647837622752038 0.9336713562264203 0
0.6732780645150611 0.6335663991539855 0
0.06720609068268901 0.9677617718833651 0
0.0375803631689462 0.06531215044337291 0
0.9336144635307484 0.03535659780264727 0
0.7977326584460003 0.3367300995374955 0
0.2083416696912518 0.8636726829986825 0
0.7306855507961023 0.4660252662107385 0
0.2145773087947076 0.9263934196850753 0
0.24932399352989 0.5139674659527959 0
0.3449246921712379 0.7496874209780914 0
0.8381709682185967 0.3249579824430525 0
0.03569497000173599 0.4599136288171279 0
0.9659253983743172 0.1061771682638151 0
0.1948399184042513 0.03693132648939979 0
0.86019815483194 0.3912355753233895 0
0.3279856843797193 0.6831355682104263 0
0.2631514906148615 0.07401845011348324 0
0.5102844087417876 0.2077707628623121 0
0.8987428769646242 0.3783764130636479 0
0.8265218770577014 0.07202214083980485 0
0.4994837384958216 0.1040525309859712 0
0.1041189369115993 0.371600084075967 0
0.1103748582526193 0.3331764440292558 0
0.6527606140347493 0.6967126452645523 0
0.4564894926212226 0.8929506498521025 0
0.963938212785783 0.4167104479036266 0
0.9272873312223713 0.7324099222886196 0
0.8896314522634019 0.5904839463705636 0
0.3785559203971597 0.283584168616676 0
0.8224335352282592 0.931240529806461 0
0.8507234959003378 0.6128342100396292 0
0.123118451153073 0.9310288554069962 0
0.07044595312229535 0.6504979961628793 0
0.921809848191927 0.1556126165133737 0
0.9293799047308198 0.2216415675355187 0
0.4108788963874394 0.7665135635332179 0
0.07038206890565019 0.8310101137933543 0
0.6712305412360111 0.8921450664504711 0
0.5753170192364779 0.8510638136901728 0
0.5418922793911314 0.2330082591623682 0
0.07363930379641359 0.4892597183422046 0
0.3446516627057957 0.9324873180424097 0
0.2450468085396917 0.359396924857686 0
0.02856127912817996 0.195302791452045 0
0.7181360629933168 0.03077526709925726 0
0.3813198426394442 0.1457632079126845 0
0.1080442349603353 0.5193577244948324 0
0.2655152378335924 0.4273057013631631 0
0.03485290074221598 0.6721441508187556 0
0.5975290029066213 0.7453070047279715 0
0.6182844260371669 0.1663053038340404 0
0.7082600795757369 0.6269919443815989 0
0.06466090863447888 0.3867678885438955 0
0.6717335793270086 0.2742433726550619 0
0.893606821010852 0.7112006807064725 0
0.3152729729338926 0.5529279225957567 0
0.4474632048333685 0.3157203706444157 0
0.2626433530340621 0.1385753633539227 0
0.3813017684104693 0.8812609412751879 0
0.2863575653697303 0.3419549047750083 0
0.4769137210408085 0.2546291449380713 0
0.5751058339128696 0.2192679645552815 0
0.5105852423131898 0.06991171780267591 0
0.4948489064547399 0.7437342303551133 0
0.4357485194614754 0.8627135984728738 0
0.6538295730494236 0.7278539710561418 0
0.06592284250282465 0.8670234447794438 0
0.730659819492801 0.5321348694361825 0
0.130426568596267 0.06362686451595378 0
0.1988589651220405 0.8968800097465858 0
0.03182829598125564 0.03182829598125558 0
0.03127407471534527 0.970646293108762 0
0.9681717040187444 0.03182829598125564 0
0.9681717040187443 0.9681717040187444 0
0.2610554022914368 0.5774923424513316 0
0.4338175019373279 0.2650069918060695 0
0.6071875571735452 0.06590201392797124 0
0.6655760304224657 0.3123665348529903 0
0.5920143982896471 0.145600082491613 0
0.8483884040129146 0.1004652288420195 0
0.9378728801810079 0.5217391304347837 0
0.7188282637539339 0.5881004887942962 0
0.287140100043247 0.3085215886816801 0
0.865113754376251 0.6935741578625105 0
0.07888206365473743 0.1625374291324838 0
0.6379688883918873 0.6316247583354409 0
0.3683764397399286 0.6379678012184121 0
0.3620317735324208 0.3683759711113568 0
0.7825978079356457 0.9382123424218425 0
0.4549914773055492 0.6853016487303547 0
0.5536279488702202 0.6827375110694965 0
0.8924427650643525 0.5555518661385885 0
0.932197290936198 0.3651276294302941 0
0.7390114302350838 0.05989361610995941 0
0.8961075385278899 0.9041972425068453 0
0.5986335373822237 0.1057608767604585 0
0.09260965102307761 0.1081262615114185 0
0.5452279721874215 0.2982706619655522 0
0.6829212192271383 0.4040388200707098 0
0.0858471233671424 0.9403069824752804 0
0.650953216508226 0.8647316080068631 0
0.06744701316692869 0.2374931808136914 0
0.6362007499555897 0.3234579295529447 0
0.9423937799639687 0.09118634262767278 0
0.1020496282528424 0.5509903876873629 0
0.2703564782756702 0.4014492823716603 0
0.3048662655783538 0.9394090449844417 0
0.06607951766622117 0.725743503458379 0
0.3773278055150005 0.7447568506404054 0
0.5425824869047169 0.9023323177702227 0
0.5297921837197154 0.7365956064790997 0
0.02974922135821562 0.3993532498345638 0
0.9016247112566186 0.9332060429063095 0
0.4127989250253561 0.09738881644707886 0
0.2909377863320262 0.4724767253203782 0
$EndNodes
$Elements
2 1410 1 1410
2 2 2 122
1 120 146 136 
2 136 145 120 
3 114 146 115 
4 115 146 120 
5 5 152 112 
6 119 154 139 
7 139 153 119 
8 111 147 123 
9 121 151 140 
10 140 151 143 
11 112 152 124 
12 6 147 111 
13 103 154 119 
14 104 154 103 
15 137 159 152 
16 119 155 102 
17 152 159 124 
18 125 152 5 
19 102 155 8 
20 108 150 118 
21 109 150 108 
22 136 137 131 
23 131 137 128 
24 132 141 135 
25 138 139 133 
26 133 141 132 
27 130 138 133 
28 139 140 133 
29 140 141 133 
30 115 120 116 
31 106 121 105 
32 101 122 100 
33 111 123 110 
34 112 124 113 
35 98 117 97 
36 103 119 102 
37 108 118 107 
38 134 136 131 
39 132 135 134 
40 130 133 132 
41 132 134 131 
42 130 132 131 
43 130 131 128 
44 129 138 130 
45 129 130 128 
46 128 137 126 
47 127 129 128 
48 127 128 126 
49 129 142 138 
50 137 152 126 
51 117 127 126 
52 99 148 98 
53 98 148 117 
54 140 143 141 
55 134 145 136 
56 123 147 144 
57 138 153 139 
58 150 157 149 
59 118 149 143 
60 143 149 141 
61 135 144 134 
62 129 156 142 
63 142 156 122 
64 146 159 136 
65 7 151 106 
66 106 151 121 
67 144 147 145 
68 114 166 146 
69 117 148 127 
70 141 149 135 
71 148 156 127 
72 122 164 142 
73 147 165 145 
74 144 145 134 
75 117 126 125 
76 145 165 120 
77 118 150 149 
78 148 160 156 
79 153 155 119 
80 149 157 135 
81 136 159 137 
82 140 162 121 
83 117 125 97 
84 97 125 5 
85 127 156 129 
86 107 158 7 
87 142 153 138 
88 100 160 99 
89 142 164 155 
90 110 161 109 
91 8 164 101 
92 113 166 114 
93 116 165 6 
94 105 163 104 
95 139 162 140 
96 118 158 107 
97 126 152 125 
98 122 160 100 
99 142 155 153 
100 123 161 110 
101 104 163 154 
102 121 163 105 
103 143 158 118 
104 101 164 122 
105 120 165 116 
106 124 166 113 
107 6 165 147 
108 150 161 157 
109 109 161 150 
110 154 162 139 
111 135 157 144 
112 144 157 123 
113 99 160 148 
114 155 164 8 
115 7 158 151 
116 156 160 122 
117 151 158 143 
118 146 166 159 
119 159 166 124 
120 157 161 123 
121 162 163 121 
122 154 163 162 
2 3 2 1288
123 579 734 574 
124 296 653 466 
125 375 671 373 
126 365 590 460 
127 574 640 579 
128 246 547 258 
129 503 644 186 
130 186 644 441 
131 209 582 461 
132 177 654 478 
133 403 671 568 
134 332 537 535 
135 422 487 420 
136 206 651 479 
137 492 528 527 
138 413 594 506 
139 478 654 438 
140 466 653 633 
141 371 511 469 
142 574 734 619 
143 489 701 494 
144 464 620 198 
145 568 672 403 
146 167 645 596 
147 479 651 478 
148 193 599 475 
149 298 552 299 
150 420 487 446 
151 573 671 375 
152 21 471 20 
153 590 622 460 
154 244 547 246 
155 535 629 332 
156 223 622 590 
157 461 737 209 
158 509 657 625 
159 20 471 197 
160 409 555 450 
161 562 739 445 
162 399 620 464 
163 544 668 665 
164 489 494 273 
165 475 714 193 
166 506 594 505 
167 469 720 371 
168 452 705 490 
169 572 573 375 
170 399 663 620 
171 495 705 441 
172 365 688 590 
173 411 585 508 
174 635 701 489 
175 490 705 356 
176 170 739 562 
177 345 713 474 
178 555 730 450 
179 527 630 492 
180 596 645 398 
181 665 668 339 
182 482 663 399 
183 299 552 353 
184 571 572 375 
185 422 488 487 
186 175 528 492 
187 466 647 296 
188 211 212 174 
189 181 362 211 
190 427 452 179 
191 508 669 411 
192 428 429 182 
193 186 441 427 
194 183 431 428 
195 561 562 445 
196 184 436 435 
197 670 686 187 
198 698 713 491 
199 474 666 345 
200 416 694 106 
201 419 693 101 
202 262 529 525 
203 625 657 392 
204 430 468 459 
205 500 661 425 
206 170 681 477 
207 527 675 630 
208 477 739 170 
209 547 721 258 
210 176 600 476 
211 449 686 670 
212 452 463 179 
213 360 698 491 
214 506 732 413 
215 568 671 205 
216 441 644 495 
217 630 675 295 
218 512 631 426 
219 115 455 114 
220 98 456 99 
221 103 459 104 
222 113 423 112 
223 105 416 106 
224 100 419 101 
225 5 432 97 
226 193 626 599 
227 434 503 186 
228 298 618 552 
229 356 705 495 
230 109 211 174 
231 174 434 110 
232 291 488 288 
233 181 211 108 
234 111 434 186 
235 394 684 678 
236 116 427 179 
237 102 428 182 
238 107 435 181 
239 186 427 6 
240 183 428 8 
241 184 435 7 
242 430 459 182 
243 628 664 168 
244 217 715 691 
245 691 715 462 
246 413 581 412 
247 409 556 555 
248 167 596 558 
249 460 699 365 
250 21 623 471 
251 472 649 87 
252 525 676 262 
253 373 671 403 
254 484 511 371 
255 518 679 393 
256 505 594 383 
257 509 625 169 
258 499 661 500 
259 579 640 208 
260 463 719 689 
261 678 684 554 
262 393 696 518 
263 452 719 463 
264 564 637 207 
265 468 469 418 
266 444 614 612 
267 689 719 367 
268 487 488 291 
269 190 730 555 
270 534 629 535 
271 582 704 461 
272 572 641 210 
273 418 725 468 
274 455 723 114 
275 456 724 99 
276 459 725 104 
277 432 727 97 
278 288 488 285 
279 423 728 112 
280 358 683 534 
281 476 634 176 
282 525 747 348 
283 210 741 572 
284 534 751 358 
285 87 749 472 
286 435 735 181 
287 174 736 434 
288 332 695 537 
289 348 676 525 
290 101 693 183 
291 106 694 184 
292 400 664 628 
293 37 556 36 
294 480 735 436 
295 503 736 566 
296 331 697 680 
297 581 667 412 
298 436 735 435 
299 468 725 459 
300 269 598 271 
301 436 481 480 
302 612 614 330 
303 426 687 512 
304 497 648 408 
305 539 615 533 
306 503 566 391 
307 425 638 500 
308 383 628 505 
309 534 683 629 
310 400 692 664 
311 361 680 470 
312 573 650 205 
313 521 525 523 
314 632 646 304 
315 61 522 188 
316 555 556 37 
317 434 736 503 
318 36 556 178 
319 198 718 464 
320 491 713 345 
321 615 751 533 
322 411 669 461 
323 680 697 470 
324 583 584 225 
325 522 523 188 
326 446 712 483 
327 583 601 510 
328 212 213 174 
329 183 483 431 
330 429 430 182 
331 546 569 565 
332 184 437 436 
333 181 363 362 
334 207 750 564 
335 58 528 175 
336 521 523 522 
337 348 598 269 
338 584 616 225 
339 525 529 523 
340 430 470 468 
341 232 648 497 
342 275 702 519 
343 444 612 445 
344 285 627 283 
345 195 554 553 
346 197 539 538 
347 192 518 517 
348 231 496 229 
349 519 696 275 
350 229 496 391 
351 438 654 537 
352 427 705 452 
353 441 705 427 
354 225 601 583 
355 197 538 19 
356 192 517 66 
357 195 553 85 
358 477 681 202 
359 429 685 430 
360 314 493 331 
361 345 484 323 
362 372 499 498 
363 471 700 197 
364 576 586 536 
365 486 487 291 
366 170 562 91 
367 265 485 261 
368 470 743 361 
369 488 627 285 
370 62 522 61 
371 249 498 264 
372 478 651 177 
373 325 491 345 
374 367 490 243 
375 268 494 377 
376 500 501 264 
377 59 528 58 
378 487 712 446 
379 292 486 291 
380 431 646 632 
381 316 493 314 
382 597 692 400 
383 191 542 541 
384 498 499 264 
385 251 498 249 
386 565 569 46 
387 264 501 247 
388 603 630 295 
389 358 751 615 
390 237 496 231 
391 360 655 481 
392 561 660 560 
393 60 526 59 
394 223 590 589 
395 513 514 196 
396 63 520 62 
397 305 502 304 
398 530 531 189 
399 523 524 188 
400 66 517 65 
401 19 538 18 
402 85 553 84 
403 499 500 264 
404 191 541 44 
405 549 550 187 
406 552 618 550 
407 395 649 472 
408 323 484 321 
409 469 511 418 
410 559 560 194 
411 15 586 576 
412 222 589 226 
413 302 370 300 
414 68 558 557 
415 382 613 597 
416 526 528 59 
417 91 562 90 
418 42 540 198 
419 64 513 196 
420 191 569 543 
421 261 485 256 
422 83 549 187 
423 17 530 189 
424 395 678 649 
425 520 522 62 
426 541 548 540 
427 325 345 323 
428 321 371 319 
429 283 296 281 
430 223 589 222 
431 543 569 546 
432 67 557 192 
433 256 372 254 
434 89 559 194 
435 543 544 542 
436 241 356 239 
437 263 265 261 
438 551 552 550 
439 321 484 371 
440 270 494 268 
441 360 491 327 
442 542 548 541 
443 273 494 270 
444 377 512 266 
445 48 504 168 
446 70 507 167 
447 26 509 169 
448 545 547 544 
449 327 491 325 
450 310 361 308 
451 268 377 266 
452 495 496 237 
453 256 485 372 
454 215 566 213 
455 245 367 243 
456 239 495 237 
457 523 529 524 
458 514 516 196 
459 518 519 515 
460 405 583 510 
461 191 543 542 
462 334 360 327 
463 531 534 532 
464 241 490 356 
465 254 498 251 
466 530 533 531 
467 319 493 316 
468 266 512 265 
469 513 515 514 
470 300 486 292 
471 243 490 241 
472 549 551 550 
473 272 273 270 
474 308 502 305 
475 343 344 341 
476 361 502 308 
477 356 495 239 
478 227 566 215 
479 301 302 300 
480 337 510 234 
481 597 613 258 
482 263 266 265 
483 405 510 374 
484 406 407 405 
485 531 532 189 
486 43 541 540 
487 290 291 288 
488 391 566 227 
489 532 586 189 
490 370 646 483 
491 320 321 319 
492 537 695 438 
493 559 561 560 
494 229 391 227 
495 448 606 355 
496 176 745 600 
497 543 545 544 
498 167 558 69 
499 685 743 430 
500 303 304 302 
501 168 565 47 
502 190 555 38 
503 299 300 292 
504 374 510 337 
505 322 323 321 
506 245 501 367 
507 669 737 461 
508 372 498 254 
509 20 197 19 
510 42 198 41 
511 39 190 38 
512 17 189 16 
513 64 196 63 
514 86 195 85 
515 61 188 60 
516 83 187 82 
517 314 331 312 
518 199 505 504 
519 450 497 408 
520 43 540 42 
521 23 193 22 
522 89 194 88 
523 45 191 44 
524 67 192 66 
525 65 513 64 
526 404 405 374 
527 84 549 83 
528 18 530 17 
529 238 239 237 
530 80 577 176 
531 14 576 177 
532 536 586 532 
533 255 256 254 
534 276 277 274 
535 370 486 300 
536 200 508 507 
537 26 169 25 
538 48 168 47 
539 70 167 69 
540 92 170 91 
541 612 660 561 
542 371 493 319 
543 249 264 247 
544 350 433 376 
545 260 261 256 
546 68 557 67 
547 570 571 201 
548 90 559 89 
549 534 535 532 
550 324 325 323 
551 188 526 60 
552 318 319 316 
553 51 563 50 
554 343 365 344 
555 200 507 71 
556 201 509 27 
557 199 504 49 
558 407 584 583 
559 240 241 239 
560 236 237 231 
561 282 283 281 
562 272 274 273 
563 247 501 245 
564 72 575 200 
565 65 517 513 
566 253 254 251 
567 84 553 549 
568 44 541 43 
569 553 554 551 
570 18 538 530 
571 196 520 63 
572 203 581 580 
573 262 263 261 
574 352 444 443 
575 56 567 203 
576 34 568 205 
577 81 577 80 
578 15 576 14 
579 28 570 201 
580 94 574 202 
581 90 562 559 
582 406 408 407 
583 69 558 68 
584 290 292 291 
585 538 539 533 
586 516 521 520 
587 47 565 46 
588 27 509 26 
589 71 507 70 
590 49 504 48 
591 280 281 278 
592 404 406 405 
593 242 243 241 
594 38 555 37 
595 307 308 305 
596 309 310 308 
597 517 518 515 
598 284 285 283 
599 28 201 27 
600 94 202 93 
601 50 199 49 
602 72 200 71 
603 352 593 444 
604 175 567 57 
605 178 568 35 
606 80 176 79 
607 58 175 57 
608 14 177 13 
609 36 178 35 
610 510 601 234 
611 45 569 191 
612 299 301 300 
613 570 572 571 
614 445 612 561 
615 226 589 350 
616 433 473 376 
617 204 582 77 
618 203 580 55 
619 206 578 11 
620 578 579 208 
621 407 583 405 
622 326 327 325 
623 447 448 355 
624 244 245 243 
625 386 415 397 
626 199 506 505 
627 73 575 72 
628 318 320 319 
629 311 312 310 
630 301 303 302 
631 287 288 285 
632 29 570 28 
633 95 574 94 
634 589 590 433 
635 78 204 77 
636 56 203 55 
637 12 206 11 
638 34 205 33 
639 50 563 199 
640 320 322 321 
641 57 567 56 
642 35 568 34 
643 76 582 209 
644 10 578 208 
645 54 580 207 
646 524 527 526 
647 46 569 45 
648 315 593 317 
649 77 582 76 
650 55 580 54 
651 11 578 10 
652 267 268 266 
653 212 214 213 
654 303 305 304 
655 76 209 75 
656 54 207 53 
657 10 208 9 
658 32 210 31 
659 253 255 254 
660 244 668 547 
661 276 278 277 
662 246 247 245 
663 269 270 268 
664 236 238 237 
665 535 537 536 
666 322 324 323 
667 238 240 239 
668 255 260 256 
669 189 586 16 
670 444 445 443 
671 333 334 327 
672 271 272 270 
673 524 526 188 
674 549 553 551 
675 530 538 533 
676 563 564 506 
677 16 586 15 
678 415 585 397 
679 219 223 222 
680 447 492 448 
681 604 617 384 
682 373 374 337 
683 260 262 261 
684 516 520 196 
685 559 562 561 
686 280 282 281 
687 513 517 515 
688 363 388 362 
689 340 341 334 
690 342 343 341 
691 240 242 241 
692 190 663 482 
693 403 404 374 
694 418 511 417 
695 317 593 329 
696 257 382 338 
697 307 309 308 
698 286 617 604 
699 282 284 283 
700 313 314 312 
701 514 598 516 
702 289 290 288 
703 199 563 506 
704 324 326 325 
705 382 400 383 
706 242 244 243 
707 329 352 351 
708 378 602 328 
709 409 450 408 
710 543 546 545 
711 309 311 310 
712 521 522 520 
713 352 443 401 
714 363 480 451 
715 226 350 349 
716 350 589 433 
717 350 376 364 
718 483 646 431 
719 603 606 448 
720 244 246 245 
721 298 299 292 
722 354 393 390 
723 311 313 312 
724 284 287 285 
725 485 687 442 
726 380 389 297 
727 228 229 227 
728 397 585 411 
729 263 267 266 
730 248 249 247 
731 535 536 532 
732 221 227 215 
733 209 737 639 
734 275 276 274 
735 397 411 410 
736 335 378 328 
737 257 613 382 
738 368 381 294 
739 293 384 366 
740 527 528 526 
741 386 397 396 
742 411 461 410 
743 347 355 259 
744 379 438 378 
745 384 386 385 
746 373 403 374 
747 326 333 327 
748 246 248 247 
749 386 617 415 
750 317 318 316 
751 230 231 229 
752 315 316 314 
753 412 447 355 
754 287 289 288 
755 352 401 351 
756 401 402 351 
757 443 477 401 
758 379 479 478 
759 250 251 249 
760 406 409 408 
761 99 172 100 
762 114 171 113 
763 109 174 110 
764 104 173 105 
765 388 462 362 
766 382 383 338 
767 267 269 268 
768 397 410 396 
769 252 253 251 
770 342 359 343 
771 279 280 278 
772 335 379 378 
773 473 475 376 
774 306 307 305 
775 269 271 270 
776 290 298 292 
777 116 179 115 
778 102 182 103 
779 97 180 98 
780 107 181 108 
781 333 340 334 
782 111 186 6 
783 106 184 7 
784 101 183 8 
785 112 185 5 
786 340 342 341 
787 347 413 412 
788 236 587 238 
789 317 329 328 
790 329 593 352 
791 272 275 274 
792 235 236 231 
793 336 392 357 
794 233 234 224 
795 381 605 294 
796 350 364 349 
797 357 375 373 
798 368 398 381 
799 329 351 335 
800 347 412 355 
801 357 373 337 
802 108 211 109 
803 380 449 389 
804 598 662 271 
805 399 464 369 
806 386 396 385 
807 313 315 314 
808 315 317 316 
809 395 414 346 
810 110 434 111 
811 317 328 318 
812 384 385 366 
813 320 332 322 
814 248 250 249 
815 336 337 234 
816 396 476 385 
817 379 478 438 
818 6 427 116 
819 8 428 102 
820 354 591 393 
821 7 435 107 
822 593 614 444 
823 282 286 284 
824 214 217 216 
825 329 335 328 
826 255 295 260 
827 276 279 278 
828 338 347 259 
829 257 338 259 
830 220 225 218 
831 364 453 349 
832 250 252 251 
833 376 599 364 
834 250 257 252 
835 221 228 227 
836 214 215 213 
837 246 258 248 
838 382 597 400 
839 226 349 233 
840 226 233 224 
841 307 592 309 
842 299 353 301 
843 228 230 229 
844 336 357 337 
845 279 354 294 
846 222 226 224 
847 41 620 40 
848 279 294 280 
849 483 693 446 
850 354 390 368 
851 303 306 305 
852 222 224 220 
853 171 425 424 
854 257 259 252 
855 172 421 420 
856 219 222 220 
857 354 368 294 
858 171 423 113 
859 364 454 453 
860 311 330 313 
861 173 416 105 
862 240 339 242 
863 179 455 115 
864 366 380 297 
865 652 656 387 
866 173 418 417 
867 439 440 359 
868 172 419 100 
869 180 456 98 
870 182 459 103 
871 287 293 289 
872 233 336 234 
873 293 366 297 
874 402 595 351 
875 293 297 289 
876 389 607 297 
877 217 219 218 
878 342 439 359 
879 289 607 290 
880 437 694 474 
881 235 387 369 
882 505 628 504 
883 479 706 206 
884 363 451 388 
885 379 595 479 
886 275 591 276 
887 185 432 5 
888 219 220 218 
889 387 482 399 
890 326 358 333 
891 464 588 587 
892 306 394 346 
893 355 606 259 
894 230 235 231 
895 475 599 376 
896 465 466 457 
897 214 216 215 
898 293 604 384 
899 458 489 465 
900 180 458 457 
901 235 369 236 
902 306 346 307 
903 351 595 335 
904 439 471 440 
905 228 232 230 
906 335 595 379 
907 276 591 279 
908 216 221 215 
909 267 348 269 
910 395 472 414 
911 217 218 216 
912 290 607 298 
913 448 630 603 
914 464 587 369 
915 369 587 236 
916 347 594 413 
917 338 594 347 
918 383 594 338 
919 328 602 318 
920 424 426 423 
921 368 596 398 
922 387 399 369 
923 252 606 253 
924 420 446 419 
925 394 395 346 
926 318 602 320 
927 417 474 416 
928 576 654 177 
929 364 599 454 
930 414 592 346 
931 253 603 255 
932 390 596 368 
933 490 719 452 
934 280 605 282 
935 346 592 307 
936 632 685 429 
937 294 605 280 
938 172 420 419 
939 179 463 455 
940 284 604 287 
941 173 417 416 
942 421 422 420 
943 642 648 232 
944 180 457 456 
945 309 609 311 
946 171 424 423 
947 336 608 392 
948 259 606 252 
949 451 460 388 
950 320 602 332 
951 385 600 366 
952 424 442 426 
953 458 465 457 
954 234 601 224 
955 279 591 354 
956 453 608 349 
957 282 605 286 
958 297 607 289 
959 185 467 432 
960 366 600 380 
961 349 608 233 
962 476 600 385 
963 255 603 295 
964 253 606 603 
965 607 618 298 
966 286 604 284 
967 224 601 220 
968 192 679 518 
969 301 610 303 
970 238 611 240 
971 220 601 225 
972 233 608 336 
973 202 722 477 
974 168 664 565 
975 287 604 293 
976 283 627 296 
977 587 611 238 
978 248 613 250 
979 313 614 315 
980 315 614 593 
981 250 613 257 
982 592 609 309 
983 384 617 386 
984 588 611 587 
985 574 619 202 
986 258 613 248 
987 353 610 301 
988 507 645 167 
989 296 647 281 
990 311 609 330 
991 389 618 607 
992 303 610 306 
993 333 615 340 
994 225 616 218 
995 422 627 488 
996 240 611 339 
997 198 620 41 
998 330 614 313 
999 22 623 21 
1000 306 610 394 
1001 216 616 221 
1002 358 615 333 
1003 218 616 216 
1004 304 646 302 
1005 176 634 79 
1006 617 624 415 
1007 409 636 556 
1008 23 626 193 
1009 78 634 204 
1010 474 713 437 
1011 52 637 51 
1012 495 644 496 
1013 563 637 564 
1014 570 641 572 
1015 74 639 73 
1016 30 641 29 
1017 96 640 95 
1018 205 671 573 
1019 408 648 407 
1020 442 703 485 
1021 193 623 22 
1022 620 663 40 
1023 278 647 277 
1024 332 629 322 
1025 496 644 391 
1026 344 677 655 
1027 457 633 456 
1028 388 622 462 
1029 402 621 595 
1030 460 622 388 
1031 24 626 23 
1032 595 621 479 
1033 471 623 440 
1034 406 636 409 
1035 584 642 616 
1036 624 643 415 
1037 87 649 86 
1038 415 643 585 
1039 547 668 544 
1040 467 635 432 
1041 177 651 13 
1042 344 655 341 
1043 286 624 617 
1044 381 624 605 
1045 605 624 286 
1046 205 650 33 
1047 12 651 206 
1048 584 648 642 
1049 334 655 360 
1050 32 650 210 
1051 391 644 503 
1052 228 642 232 
1053 502 632 304 
1054 504 628 168 
1055 618 670 550 
1056 521 747 525 
1057 492 630 448 
1058 599 626 454 
1059 518 696 519 
1060 497 652 232 
1061 265 687 485 
1062 201 657 509 
1063 519 662 515 
1064 588 718 548 
1065 544 665 542 
1066 616 642 221 
1067 381 643 624 
1068 453 625 608 
1069 608 625 392 
1070 400 628 383 
1071 437 713 698 
1072 393 679 390 
1073 322 629 324 
1074 39 663 190 
1075 497 656 652 
1076 483 712 370 
1077 537 654 536 
1078 579 706 621 
1079 514 662 598 
1080 273 673 489 
1081 203 667 581 
1082 51 637 563 
1083 235 652 387 
1084 556 636 178 
1085 185 631 467 
1086 79 634 78 
1087 466 633 457 
1088 200 669 508 
1089 548 718 540 
1090 232 652 230 
1091 371 720 493 
1092 500 689 501 
1093 577 686 449 
1094 404 636 406 
1095 539 658 615 
1096 73 639 575 
1097 458 635 489 
1098 29 641 570 
1099 95 640 574 
1100 310 680 361 
1101 331 680 312 
1102 330 660 612 
1103 472 690 414 
1104 221 642 228 
1105 398 643 381 
1106 486 712 487 
1107 508 645 507 
1108 342 658 439 
1109 412 667 447 
1110 92 681 170 
1111 169 682 25 
1112 463 638 455 
1113 302 646 370 
1114 524 675 527 
1115 609 660 330 
1116 634 674 204 
1117 187 686 82 
1118 202 681 93 
1119 590 688 433 
1120 424 661 442 
1121 242 668 244 
1122 615 658 340 
1123 281 647 278 
1124 274 673 273 
1125 531 751 534 
1126 262 676 263 
1127 81 686 577 
1128 564 732 506 
1129 407 648 584 
1130 24 682 626 
1131 410 674 396 
1132 679 744 390 
1133 438 695 378 
1134 626 682 454 
1135 389 670 618 
1136 219 691 223 
1137 348 747 598 
1138 414 659 592 
1139 536 654 576 
1140 86 649 195 
1141 88 749 87 
1142 578 706 579 
1143 267 676 348 
1144 485 703 372 
1145 577 745 176 
1146 598 747 516 
1147 31 710 2 
1148 4 709 74 
1149 9 708 1 
1150 1 708 96 
1151 53 711 3 
1152 3 711 52 
1153 75 709 4 
1154 2 710 30 
1155 472 749 690 
1156 33 650 32 
1157 545 721 547 
1158 649 678 195 
1159 638 689 500 
1160 449 745 577 
1161 326 683 358 
1162 13 651 12 
1163 655 677 481 
1164 272 702 275 
1165 443 739 477 
1166 633 724 456 
1167 181 735 363 
1168 476 674 634 
1169 625 731 169 
1170 565 664 546 
1171 401 722 402 
1172 230 652 235 
1173 417 666 474 
1174 502 685 632 
1175 223 691 622 
1176 213 736 174 
1177 214 715 217 
1178 114 723 171 
1179 99 724 172 
1180 104 725 173 
1181 484 666 511 
1182 439 700 471 
1183 461 704 410 
1184 421 653 422 
1185 97 727 180 
1186 422 653 627 
1187 480 677 451 
1188 602 695 332 
1189 275 696 591 
1190 635 727 432 
1191 380 745 449 
1192 633 653 421 
1193 402 722 619 
1194 211 740 212 
1195 362 740 211 
1196 550 670 187 
1197 112 728 185 
1198 667 726 447 
1199 627 653 296 
1200 622 691 462 
1201 450 656 497 
1202 394 678 395 
1203 511 666 417 
1204 341 655 334 
1205 512 748 631 
1206 629 683 324 
1207 464 718 588 
1208 426 728 423 
1209 571 657 201 
1210 367 719 490 
1211 610 684 394 
1212 714 733 440 
1213 345 666 484 
1214 387 656 482 
1215 421 724 633 
1216 481 698 360 
1217 515 662 514 
1218 453 731 625 
1219 340 658 342 
1220 580 750 207 
1221 425 661 424 
1222 404 672 636 
1223 442 687 426 
1224 458 727 635 
1225 403 672 404 
1226 542 665 548 
1227 475 733 714 
1228 592 659 609 
1229 40 663 39 
1230 611 729 339 
1231 636 672 178 
1232 429 752 632 
1233 436 698 481 
1234 567 667 203 
1235 468 697 469 
1236 451 699 460 
1237 195 678 554 
1238 575 669 200 
1239 437 698 436 
1240 585 707 508 
1241 552 742 353 
1242 631 728 426 
1243 339 668 242 
1244 482 730 190 
1245 619 722 202 
1246 277 673 274 
1247 178 672 568 
1248 449 670 389 
1249 572 741 573 
1250 481 677 480 
1251 470 697 468 
1252 375 717 571 
1253 494 701 377 
1254 343 716 365 
1255 621 706 479 
1256 638 723 455 
1257 659 660 609 
1258 529 675 524 
1259 410 704 674 
1260 557 679 192 
1261 519 702 662 
1262 664 692 546 
1263 560 660 659 
1264 425 723 638 
1265 489 673 465 
1266 396 674 476 
1267 392 717 357 
1268 263 676 267 
1269 372 703 499 
1270 677 699 451 
1271 431 752 428 
1272 428 752 429 
1273 446 693 419 
1274 474 694 416 
1275 312 680 310 
1276 567 726 667 
1277 93 681 92 
1278 262 738 529 
1279 621 734 579 
1280 361 685 502 
1281 25 682 24 
1282 413 732 581 
1283 658 700 439 
1284 554 742 551 
1285 197 700 539 
1286 557 744 679 
1287 492 726 175 
1288 169 731 682 
1289 339 729 665 
1290 324 683 326 
1291 377 748 512 
1292 512 687 265 
1293 82 686 81 
1294 575 737 669 
1295 184 694 437 
1296 183 693 483 
1297 560 690 194 
1298 501 689 367 
1299 551 742 552 
1300 433 688 473 
1301 260 738 262 
1302 390 744 596 
1303 548 729 588 
1304 357 717 375 
1305 645 707 398 
1306 398 707 643 
1307 353 684 610 
1308 414 690 659 
1309 463 689 638 
1310 359 716 343 
1311 295 738 260 
1312 52 711 637 
1313 596 744 558 
1314 447 726 492 
1315 217 691 219 
1316 378 695 602 
1317 546 692 545 
1318 673 746 465 
1319 277 746 673 
1320 591 696 393 
1321 74 709 639 
1322 30 710 641 
1323 96 708 640 
1324 365 699 344 
1325 690 749 194 
1326 619 734 402 
1327 493 720 331 
1328 440 733 359 
1329 359 733 716 
1330 647 746 277 
1331 540 718 198 
1332 204 704 582 
1333 370 712 486 
1334 402 734 621 
1335 206 706 578 
1336 258 721 597 
1337 271 702 272 
1338 207 711 53 
1339 209 709 75 
1340 208 708 9 
1341 210 710 31 
1342 558 744 557 
1343 566 736 213 
1344 657 717 392 
1345 661 703 442 
1346 508 707 645 
1347 643 707 585 
1348 212 715 214 
1349 175 726 567 
1350 533 751 531 
1351 363 735 480 
1352 701 748 377 
1353 516 747 521 
1354 650 741 210 
1355 430 743 470 
1356 171 723 425 
1357 194 749 88 
1358 172 724 421 
1359 173 725 418 
1360 581 750 580 
1361 180 727 458 
1362 477 722 401 
1363 462 740 362 
1364 344 699 677 
1365 473 733 475 
1366 716 733 473 
1367 454 731 453 
1368 445 739 443 
1369 193 714 623 
1370 637 711 207 
1371 662 702 271 
1372 639 709 209 
1373 641 710 210 
1374 640 708 208 
1375 623 714 440 
1376 539 700 658 
1377 588 729 611 
1378 467 701 635 
1379 674 704 204 
1380 365 716 688 
1381 465 746 466 
1382 600 745 380 
1383 659 690 560 
1384 632 752 431 
1385 466 746 647 
1386 467 748 701 
1387 185 728 631 
1388 499 703 661 
1389 639 737 575 
1390 675 738 295 
1391 684 742 554 
1392 631 748 467 
1393 656 730 482 
1394 573 741 650 
1395 571 717 657 
1396 665 729 548 
1397 450 730 656 
1398 682 731 454 
1399 697 720 469 
1400 597 721 692 
1401 331 720 697 
1402 529 738 675 
1403 688 716 473 
1404 692 721 545 
1405 361 743 685 
1406 353 742 684 
1407 715 740 462 
1408 212 740 715 
1409 732 750 581 
1410 564 750 732 
$EndElements
