$MeshFormat
4.1 0 8
$EndMeshFormat
$Entities
10 10 1 0
1 0 0 0 0 
2 0.4 0 0 0 
3 0.6 0 0 0 
4 1 0 0 0 
5 0 0.5 0 0 
6 0.4 0.5 0 0 
7 0.6 0.5 0 0 
8 1 0.5 0 0 
11 0.5 0.1 0 0 
12 0.5 0.4 0 0 
1 -1.000000000028756e-07 -1e-07 -1e-07 0.4000001 1e-07 1e-07 0 2 1 -2 
2 0.5999999 -1e-07 -1e-07 1.0000001 1e-07 1e-07 0 2 3 -4 
3 0.9999999000000001 -9.999999997511999e-08 -1e-07 1.0000001 0.5000000999999999 1e-07 0 2 4 -8 
4 0.5999999 0.4999999 -1e-07 1.0000001 0.5000000999999999 1e-07 0 2 8 -7 
5 -1.000000000028756e-07 0.4999999 -1e-07 0.4000001 0.5000000999999999 1e-07 0 2 6 -5 
6 -1e-07 -9.999999997511999e-08 -1e-07 1e-07 0.5000000999999999 1e-07 0 2 5 -1 
7 0.3999999 -1.000000000098145e-07 -1e-07 0.5000000999999999 0.1000001 1e-07 0 2 2 -11 
8 0.4999999 0.3999999 -1e-07 0.6000000999999999 0.5000000999999999 1e-07 0 2 7 -12 
9 0.4999999 -9.999999997511999e-08 -1e-07 0.6000000999999999 0.1000001 1e-07 0 2 11 -3 
10 0.3999999 0.3999999 -1e-07 0.5000000999999999 0.5000000999999999 1e-07 0 2 12 -6 
1 -9.999999994736442e-08 -1.000000000306311e-07 -1e-07 1.0000001 0.5000000999999999 1e-07 0 10 1 7 9 2 3 4 8 10 5 6 
$EndEntities
$Nodes
21 95 1 95
0 1 0 1
1
0 0 0
0 2 0 1
2
0.4 0 0
0 3 0 1
3
0.6 0 0
0 4 0 1
4
1 0 0
0 5 0 1
5
0 0.5 0
0 6 0 1
6
0.4 0.5 0
0 7 0 1
7
0.6 0.5 0
0 8 0 1
8
1 0.5 0
0 11 0 1
9
0.5 0.1 0
0 12 0 1
10
0.5 0.4 0
1 1 0 3
11
12
13
0.1000000000000002 0 0
0.2000000000000001 0 0
0.3000000000000002 0 0
1 2 0 3
14
15
16
0.7000000000000002 0 0
0.8000000000000002 0 0
0.9000000000000001 0 0
1 3 0 4
17
18
19
20
1 0.1 0
1 0.2 0
1 0.3 0
1 0.4 0
1 4 0 3
21
22
23
0.8999999999999998 0.5 0
0.7999999999999998 0.5 0
0.6999999999999998 0.5 0
1 5 0 3
24
25
26
0.2999999999999998 0.5 0
0.1999999999999999 0.5 0
0.09999999999999987 0.5 0
1 6 0 4
27
28
29
30
0 0.4 0
0 0.3 0
0 0.2 0
0 0.09999999999999998 0
1 7 0 1
31
0.4292893218813453 0.07071067811865472 0
1 8 0 1
32
0.5707106781186547 0.4292893218813453 0
1 9 0 1
33
0.5707106781186547 0.07071067811865477 0
1 10 0 1
34
0.4292893218813453 0.4292893218813453 0
2 1 0 61
35
36
37
38
39
40
41
42
43
44
45
46
47
48
49
50
51
52
53
54
55
56
57
58
59
60
61
62
63
64
65
66
67
68
69
70
71
72
73
74
75
76
77
78
79
80
81
82
83
84
85
86
87
88
89
90
91
92
93
94
95
0.08947196596807638 0.2492980351242723 0
0.9105280340319237 0.2507019648757278 0
0.4366797333494247 0.1453882650781425 0
0.5633202666505752 0.3546117349218575 0
0.5607206358681918 0.1465925826289068 0
0.4392793641318082 0.3534074173710932 0
0.2690954880420798 0.08462238603857888 0
0.7309045119579201 0.4153776139614211 0
0.2689428478949699 0.4153838177632946 0
0.73105715210503 0.08461618223670547 0
0.6390025524657189 0.1187031916486886 0
0.6226598744703838 0.1961271325053823 0
0.5571661624066095 0.2206782145051235 0
0.3609974475342811 0.3812968083513115 0
0.3777879920594212 0.3065120512038148 0
0.4444975830517993 0.2841857481946435 0
0.3605904220935431 0.1185034162960978 0
0.6394095779064569 0.3814965837039022 0
0.3769729891785898 0.1935479781227637 0
0.6225803161242838 0.3068734240613008 0
0.2989365991875057 0.1807450883314166 0
0.216412332808584 0.1730481899405259 0
0.2545639315073416 0.2535798742027318 0
0.1558332183564288 0.09648245616006465 0
0.7009889516963066 0.3193251453659275 0
0.7835752590053848 0.3269635156756981 0
0.7454257283376323 0.246429880477455 0
0.8441650090455668 0.4035192160708245 0
0.698866974232053 0.1647074060503451 0
0.7841886701569423 0.1714728025957309 0
0.844504642759705 0.0966902821868261 0
0.3011330257679469 0.335292593949655 0
0.2158096064838867 0.3285288231843003 0
0.1554951110461277 0.4033099500674641 0
0.922228613805006 0.3485027496846576 0
0.07777109076199334 0.1514975290204906 0
0.9225422757558897 0.1522522851378067 0
0.07745768321174912 0.3477477535712417 0
0.1757765536760061 0.2496526796772529 0
0.8242205330263477 0.2503500686651808 0
0.5009256975830605 0.180892479483922 0
0.5007078515615181 0.3232245485692546 0
0.5572093675598406 0.2874135577210943 0
0.4442650617409343 0.2168658453058596 0
0.3499999999999999 0.4505348316478631 0
0.65 0.04946516835213693 0
0.3500000000000001 0.04946516835213693 0
0.6499999999999999 0.4505348316478631 0
0.9247787547132427 0.4257978348001963 0
0.07522113762166949 0.0742022667687352 0
0.9254826858834684 0.07422591965837966 0
0.07451729916304711 0.4257740944484164 0
0.6692649050176041 0.2420461398015806 0
0.3304060728846229 0.2586287396478456 0
0.5007952873172937 0.2522100656299829 0
0.6057761251157443 0.2506276937188963 0
0.8575278110816831 0.1903339569038185 0
0.1424721889183169 0.3096660430961816 0
0.1430689810947201 0.1849630995187381 0
0.8569285346888966 0.3150392440376469 0
0.3947859397830735 0.2519480724949854 0
$EndNodes
$Elements
21 198 1 198
0 1 15 1
1 1 
0 2 15 1
2 2 
0 3 15 1
3 3 
0 4 15 1
4 4 
0 5 15 1
5 5 
0 6 15 1
6 6 
0 7 15 1
7 7 
0 8 15 1
8 8 
0 11 15 1
9 9 
0 12 15 1
10 10 
1 1 1 4
11 1 11 
12 11 12 
13 12 13 
14 13 2 
1 2 1 4
15 3 14 
16 14 15 
17 15 16 
18 16 4 
1 3 1 5
19 4 17 
20 17 18 
21 18 19 
22 19 20 
23 20 8 
1 4 1 4
24 8 21 
25 21 22 
26 22 23 
27 23 7 
1 5 1 4
28 6 24 
29 24 25 
30 25 26 
31 26 5 
1 6 1 5
32 5 27 
33 27 28 
34 28 29 
35 29 30 
36 30 1 
1 7 1 2
37 2 31 
38 31 9 
1 8 1 2
39 7 32 
40 32 10 
1 9 1 2
41 9 33 
42 33 3 
1 10 1 2
43 10 34 
44 34 6 
2 1 2 154
45 48 79 43 
46 45 80 44 
47 41 81 51 
48 42 82 52 
49 51 55 41 
50 52 59 42 
51 43 66 48 
52 44 63 45 
53 53 88 55 
54 54 87 59 
55 55 88 57 
56 59 87 61 
57 63 64 61 
58 66 67 57 
59 22 62 21 
60 12 58 11 
61 16 65 15 
62 26 68 25 
63 29 35 28 
64 19 36 18 
65 13 41 12 
66 23 42 22 
67 25 43 24 
68 15 44 14 
69 41 58 12 
70 42 62 22 
71 46 47 39 
72 25 68 43 
73 15 65 44 
74 55 57 56 
75 59 61 60 
76 44 80 14 
77 23 82 42 
78 43 79 24 
79 13 81 41 
80 59 60 42 
81 55 56 41 
82 10 38 32 
83 9 37 31 
84 33 39 9 
85 34 40 10 
86 75 89 78 
87 54 90 87 
88 49 50 40 
89 44 64 63 
90 43 67 66 
91 19 69 36 
92 29 70 35 
93 20 69 19 
94 30 70 29 
95 18 71 17 
96 28 72 27 
97 36 71 18 
98 35 72 28 
99 8 83 20 
100 1 84 30 
101 53 95 88 
102 17 85 4 
103 27 86 5 
104 21 83 8 
105 11 84 1 
106 60 62 42 
107 56 58 41 
108 67 73 57 
109 64 74 61 
110 44 65 64 
111 43 68 67 
112 24 79 6 
113 14 80 3 
114 2 81 13 
115 7 82 23 
116 4 85 16 
117 5 86 26 
118 39 75 9 
119 9 75 37 
120 33 45 39 
121 37 51 31 
122 34 48 40 
123 38 52 32 
124 38 54 52 
125 37 53 51 
126 45 46 39 
127 48 49 40 
128 10 76 38 
129 40 76 10 
130 57 88 66 
131 61 87 63 
132 47 89 75 
133 54 59 52 
134 53 55 51 
135 6 79 34 
136 3 80 33 
137 31 81 2 
138 32 82 7 
139 48 66 49 
140 45 63 46 
141 47 75 39 
142 57 73 56 
143 61 74 60 
144 65 91 64 
145 68 92 67 
146 58 84 11 
147 62 83 21 
148 26 86 68 
149 16 85 65 
150 71 91 65 
151 72 92 68 
152 56 93 58 
153 60 94 62 
154 50 76 40 
155 33 80 45 
156 34 79 48 
157 51 81 31 
158 52 82 32 
159 58 93 70 
160 62 94 69 
161 38 77 54 
162 37 78 53 
163 30 84 70 
164 20 83 69 
165 72 86 27 
166 71 85 17 
167 87 90 46 
168 78 89 50 
169 69 94 36 
170 70 93 35 
171 70 84 58 
172 69 83 62 
173 35 92 72 
174 36 91 71 
175 65 85 71 
176 68 86 72 
177 46 90 47 
178 88 95 49 
179 76 77 38 
180 75 78 37 
181 35 93 73 
182 36 94 74 
183 49 95 50 
184 63 87 46 
185 66 88 49 
186 73 92 35 
187 74 91 36 
188 67 92 73 
189 64 91 74 
190 73 93 56 
191 74 94 60 
192 50 89 76 
193 76 89 77 
194 78 95 53 
195 77 90 54 
196 77 89 47 
197 47 90 77 
198 50 95 78 
$EndElements
