$MeshFormat
4.1 0 8
$EndMeshFormat
$Entities
10 10 1 0
1 0 0 0 0 
2 0.4 0 0 0 
3 0.6 0 0 0 
4 1 0 0 0 
5 0 0.5 0 0 
6 0.4 0.5 0 0 
7 0.6 0.5 0 0 
8 1 0.5 0 0 
11 0.5 0.1 0 0 
12 0.5 0.4 0 0 
1 -1.000000000028756e-07 -1e-07 -1e-07 0.4000001 1e-07 1e-07 0 2 1 -2 
2 0.5999999 -1e-07 -1e-07 1.0000001 1e-07 1e-07 0 2 3 -4 
3 0.9999999000000001 -9.999999997511999e-08 -1e-07 1.0000001 0.5000000999999999 1e-07 0 2 4 -8 
4 0.5999999 0.4999999 -1e-07 1.0000001 0.5000000999999999 1e-07 0 2 8 -7 
5 -1.000000000028756e-07 0.4999999 -1e-07 0.4000001 0.5000000999999999 1e-07 0 2 6 -5 
6 -1e-07 -9.999999997511999e-08 -1e-07 1e-07 0.5000000999999999 1e-07 0 2 5 -1 
7 0.3999999 -1.000000000098145e-07 -1e-07 0.5000000999999999 0.1000001 1e-07 0 2 2 -11 
8 0.4999999 0.3999999 -1e-07 0.6000000999999999 0.5000000999999999 1e-07 0 2 7 -12 
9 0.4999999 -9.999999997511999e-08 -1e-07 0.6000000999999999 0.1000001 1e-07 0 2 11 -3 
10 0.3999999 0.3999999 -1e-07 0.5000000999999999 0.5000000999999999 1e-07 0 2 12 -6 
1 -9.999999994736442e-08 -1.000000000306311e-07 -1e-07 1.0000001 0.5000000999999999 1e-07 0 10 1 7 9 2 3 4 8 10 5 6 
$EndEntities
$Nodes
21 306 1 306
0 1 0 1
1
0 0 0
0 2 0 1
2
0.4 0 0
0 3 0 1
3
0.6 0 0
0 4 0 1
4
1 0 0
0 5 0 1
5
0 0.5 0
0 6 0 1
6
0.4 0.5 0
0 7 0 1
7
0.6 0.5 0
0 8 0 1
8
1 0.5 0
0 11 0 1
9
0.5 0.1 0
0 12 0 1
10
0.5 0.4 0
1 1 0 7
11
12
13
14
15
16
17
0.05000000000000009 0 0
0.1000000000000002 0 0
0.1500000000000002 0 0
0.2000000000000001 0 0
0.2500000000000002 0 0
0.3000000000000002 0 0
0.3500000000000001 0 0
1 2 0 7
18
19
20
21
22
23
24
0.65 0 0
0.7000000000000002 0 0
0.7500000000000002 0 0
0.8000000000000002 0 0
0.8500000000000002 0 0
0.9000000000000001 0 0
0.9500000000000001 0 0
1 3 0 9
25
26
27
28
29
30
31
32
33
1 0.05 0
1 0.1 0
1 0.15 0
1 0.2 0
1 0.25 0
1 0.3 0
1 0.35 0
1 0.4 0
1 0.45 0
1 4 0 7
34
35
36
37
38
39
40
0.95 0.5 0
0.8999999999999998 0.5 0
0.8499999999999999 0.5 0
0.7999999999999998 0.5 0
0.7499999999999998 0.5 0
0.6999999999999998 0.5 0
0.6499999999999999 0.5 0
1 5 0 7
41
42
43
44
45
46
47
0.3499999999999999 0.5 0
0.2999999999999998 0.5 0
0.2499999999999998 0.5 0
0.1999999999999999 0.5 0
0.1499999999999998 0.5 0
0.09999999999999987 0.5 0
0.04999999999999993 0.5 0
1 6 0 9
48
49
50
51
52
53
54
55
56
0 0.45 0
0 0.4 0
0 0.35 0
0 0.3 0
0 0.25 0
0 0.2 0
0 0.15 0
0 0.09999999999999998 0
0 0.04999999999999999 0
1 7 0 3
57
58
59
0.4076120467488713 0.03826834323650896 0
0.4292893218813453 0.07071067811865472 0
0.461731656763491 0.09238795325112863 0
1 8 0 3
60
61
62
0.5923879532511287 0.461731656763491 0
0.5707106781186547 0.4292893218813453 0
0.538268343236509 0.4076120467488714 0
1 9 0 3
63
64
65
0.538268343236509 0.09238795325112867 0
0.5707106781186547 0.07071067811865477 0
0.5923879532511287 0.03826834323650904 0
1 10 0 3
66
67
68
0.461731656763491 0.4076120467488714 0
0.4292893218813453 0.4292893218813453 0
0.4076120467488714 0.461731656763491 0
2 1 0 238
69
70
71
72
73
74
75
76
77
78
79
80
81
82
83
84
85
86
87
88
89
90
91
92
93
94
95
96
97
98
99
100
101
102
103
104
105
106
107
108
109
110
111
112
113
114
115
116
117
118
119
120
121
122
123
124
125
126
127
128
129
130
131
132
133
134
135
136
137
138
139
140
141
142
143
144
145
146
147
148
149
150
151
152
153
154
155
156
157
158
159
160
161
162
163
164
165
166
167
168
169
170
171
172
173
174
175
176
177
178
179
180
181
182
183
184
185
186
187
188
189
190
191
192
193
194
195
196
197
198
199
200
201
202
203
204
205
206
207
208
209
210
211
212
213
214
215
216
217
218
219
220
221
222
223
224
225
226
227
228
229
230
231
232
233
234
235
236
237
238
239
240
241
242
243
244
245
246
247
248
249
250
251
252
253
254
255
256
257
258
259
260
261
262
263
264
265
266
267
268
269
270
271
272
273
274
275
276
277
278
279
280
281
282
283
284
285
286
287
288
289
290
291
292
293
294
295
296
297
298
299
300
301
302
303
304
305
306
0.4261441315252406 0.1087439116674596 0
0.5796467243556045 0.1110626747171869 0
0.4262227668053049 0.3914526235721922 0
0.573262581627129 0.3903547981490881 0
0.2249449031515968 0.04062290012619238 0
0.7738158808127502 0.4563277155374943 0
0.9595655907048917 0.2206994126346742 0
0.0476492595902433 0.26846666498457 0
0.7759660614526527 0.04080585749095395 0
0.2320808781744605 0.4569971596041603 0
0.04479514748630253 0.174236805060825 0
0.9566987298107781 0.325 0
0.04461954331349971 0.3771462127720232 0
0.9602735799066204 0.1240173925921077 0
0.3190940455951526 0.4536282823268125 0
0.3301261816221708 0.03907808583416519 0
0.6739640981454347 0.04251040520125807 0
0.6701716425495641 0.4592734757819053 0
0.8751544884242921 0.4563693605012369 0
0.1254688277294277 0.0429987715830219 0
0.1250236074322641 0.4549412437169465 0
0.8737386244461842 0.04329828604349525 0
0.4581254145888021 0.3676113056885756 0
0.422544483450662 0.3531099011066239 0
0.4566755122296803 0.3295136855618839 0
0.4211664361368268 0.3124660613637996 0
0.4545059438123372 0.2910033647028647 0
0.418821688888157 0.2729422270996232 0
0.3854245727185718 0.2951509979264609 0
0.3828244477406773 0.2541987232808169 0
0.3475388728929848 0.2788754324184308 0
0.3454648511632928 0.2351329466515027 0
0.3088328360460563 0.2608133832477137 0
0.306652944410204 0.2161924365383111 0
0.2701936962589502 0.240447272529337 0
0.4516327488148869 0.2511322439839166 0
0.4873145444559466 0.2692506227247576 0
0.2722283795625642 0.2853449861370774 0
0.2327767080775058 0.2663936147512311 0
0.2243873265396452 0.2167781397589885 0
0.4843565696197395 0.2293640995618237 0
0.5195482346715514 0.246801108648665 0
0.3463222748728687 0.323190306950321 0
0.2351530230956305 0.3108934998218699 0
0.194418129593649 0.2922624921278276 0
0.5234977672610718 0.2886605798633932 0
0.5552560827348321 0.2652273037258368 0
0.5534556734576488 0.2268024996834511 0
0.5881376134598175 0.2426257372642746 0
0.5907064625249031 0.2842421190230502 0
0.6243215243847802 0.2599847883452509 0
0.6276393499732754 0.3023696704844825 0
0.6616144471661634 0.2778847710567692 0
0.6585464072994538 0.235725109801414 0
0.6969705913017142 0.2538977532993487 0
0.6935866808924964 0.2107904756168612 0
0.7333476341382513 0.229409233618806 0
0.736367502432461 0.273676345025234 0
0.7738158078946125 0.2487455285720307 0
0.7769161076273274 0.2943920189803994 0
0.7702228714567313 0.2034071184880819 0
0.6649118219397561 0.3188170700058318 0
0.8156552665774885 0.2687693360335873 0
0.8191875264165194 0.3168658842361571 0
0.3431827391809998 0.1916264504565039 0
0.3039516528790169 0.1722263962300534 0
0.1978723352990246 0.3381046138402712 0
0.6542698864320092 0.1924068935146417 0
0.6900666595000602 0.1673143449236343 0
0.4494266213437155 0.2117967032298108 0
0.1565508752051715 0.3179747879532406 0
0.1522703675293788 0.2652413894885489 0
0.7828380405178788 0.3375067674002865 0
0.3467696704916717 0.1424994187365707 0
0.4808124180434922 0.1920923332466947 0
0.2380122830237795 0.3576766024210323 0
0.3022930990136736 0.1264452128874007 0
0.85815804031365 0.2892361153722044 0
0.8547903362929998 0.2418583213692932 0
0.8614155621667043 0.3369478483387827 0
0.645276647592634 0.1439056519776039 0
0.5258095192328192 0.3715599425955852 0
0.5354884241311372 0.129233769693951 0
0.5745665240820104 0.1612551681377788 0
0.3943731154374133 0.4227779277590176 0
0.3984534538244789 0.08428640695873874 0
0.606588025613822 0.07764388029603317 0
0.6100700323844239 0.4131284225370059 0
0.3835819075680328 0.1686729089671346 0
0.1586370665256269 0.3657694258785633 0
0.2652030617821784 0.1519508818236497 0
0.6867974455735344 0.1201187274012435 0
0.7267741653305723 0.1411935348563461 0
0.5629133732935943 0.3485327739103849 0
0.6011969115804128 0.3636415880672252 0
0.6426320266049157 0.3784756180357982 0
0.9574529227409132 0.4269084647267395 0
0.04544252358329715 0.07949691814274926 0
0.3879306010738399 0.3801360316855673 0
0.4507403586999706 0.1700541008405256 0
0.1138411742190554 0.3413517023180933 0
0.7235008050689247 0.09675829588413137 0
0.7653641347118492 0.1162610432588796 0
0.2564877361155833 0.1081136346511481 0
0.2211761624200881 0.1376484185242409 0
0.8980102209579679 0.2624579476944224 0
0.8932677620485217 0.2143119563699738 0
0.850738823474098 0.1937597344454766 0
0.8885323635991317 0.1659801207465551 0
0.8470888833781332 0.1458450744980476 0
0.8875164150088413 0.1211320706493508 0
0.5368187497875755 0.1711670611002058 0
0.333663496322616 0.1049335071086375 0
0.5849922141845174 0.2026870750258966 0
0.484643635483514 0.1583436581444226 0
0.848512317879011 0.09158418027872889 0
0.1205928097912295 0.3963500417688956 0
0.3539205264033622 0.4135592156871029 0
0.1636444149013402 0.4149165657154532 0
0.07907911198961265 0.4238419395734579 0
0.3456044751883852 0.3679986469363372 0
0.3125782420208039 0.400656821833644 0
0.3081572184125914 0.3516820999875023 0
0.2777233567767923 0.4319291149989248 0
0.6168917520232822 0.1141531974426375 0
0.6487511171877423 0.08911650115431527 0
0.5264876869900545 0.3299598187115065 0
0.3812111037687023 0.2128872841030428 0
0.2757973487189093 0.03859014956038873 0
0.7236186577604345 0.4577833182253801 0
0.7011898059551731 0.4176066877098429 0
0.7468872584816836 0.4162719788052847 0
0.7965277465574632 0.4131666162405575 0
0.7216467605851673 0.3751942296910968 0
0.7239667081716359 0.04844419658937579 0
0.3707710160002183 0.06056187632372409 0
0.6327393768016966 0.4459495752415946 0
0.824648037964655 0.4563022619073634 0
0.8484666994592116 0.4145157594914836 0
0.904179083658466 0.4114081842799409 0
0.8223923055302054 0.3694109928532694 0
0.6144242382903461 0.1774448136516799 0
0.8082764701111571 0.1750455946013296 0
0.5588441809636484 0.308068241943989 0
0.4912201897457945 0.3106796185322033 0
0.1750668301072117 0.04269846501769342 0
0.149943311460859 0.08624414505644104 0
0.0998733259430914 0.08482523748406137 0
0.1251517843968077 0.1291304643425118 0
0.07518392031638271 0.1279442258040092 0
0.0990675356857405 0.1722731071474065 0
0.149392657261476 0.1718986064191533 0
0.07529188493269018 0.2186578154838604 0
0.1252594063939877 0.216647208734243 0
0.1739855579502996 0.2140253222050817 0
0.1012130451929339 0.2606207887742401 0
0.08387134375426719 0.3051273760855285 0
0.2072926557860266 0.08802108008681628 0
0.8247005941897196 0.0427875591821075 0
0.5180384065079263 0.2069581341639233 0
0.3911036257046147 0.1278613022409858 0
0.9492035586064878 0.2724251596983235 0
0.9553656978827332 0.3772575863702639 0
0.9075955842253853 0.3597744694649548 0
0.9062969210704521 0.3099703672293554 0
0.9242084036756946 0.03908728638719092 0
0.9601486412499107 0.1702489325826749 0
0.1745719211813166 0.1305805754634899 0
0.7399094954360971 0.328003486546336 0
0.2006155022729181 0.3844486252053723 0
0.1963850583036398 0.1747031597699885 0
0.4165487642935205 0.233042322980812 0
0.3848321405735258 0.3386753243281849 0
0.8122499293011811 0.2219309389182999 0
0.3685390957603034 0.4593780506444025 0
0.6309369720522265 0.04068280322713336 0
0.3093605773595495 0.3043252147333624 0
0.299758637416016 0.08069004721385423 0
0.2395136661810232 0.4056591333365655 0
0.6998562454665669 0.2988924270235954 0
0.4941058011098822 0.3496435422979907 0
0.2675141515293877 0.1965468017878673 0
0.7299846954805771 0.1854611346076438 0
0.620781980675154 0.2184790696005263 0
0.04056405429921534 0.325 0
0.0765799750375547 0.04100584005010158 0
0.9250306590742046 0.4596805781882456 0
0.9535624602669523 0.07564211507016821 0
0.1749999999999999 0.4601019954345523 0
0.6821469717316127 0.3805388358353779 0
0.4173546384607696 0.1903338788956956 0
0.6980624162249572 0.341414173461872 0
0.767295301533055 0.1590909416558799 0
0.7974212236363806 0.08255295834456486 0
0.4213904904243693 0.147715830616721 0
0.6338151174830629 0.3426310673221608 0
0.8056597218749311 0.1283966321062384 0
0.5126148051102948 0.1536050166422024 0
0.1955676179380956 0.2509401916663356 0
0.2730297006361443 0.3300622455333014 0
0.03552188540903611 0.4222753537298671 0
0.5958525659698162 0.3249142434585487 0
0.4632040097882458 0.1294296999306039 0
0.6881312887292128 0.08054228789219389 0
0.6579975046290443 0.4171047396714733 0
0.7645764120639136 0.3769372874139174 0
0.8999999999999999 0.07717098661737334 0
0.03308431827719643 0.1263355898015167 0
0.2748357445085224 0.379611003018495 0
0.03338121405709854 0.225 0
0.0862269734463208 0.3754511401139349 0
0.234796724469013 0.1772878962489767 0
0.7572975801147452 0.07751422741238051 0
0.1221310734096586 0.2963853429394893 0
0.8687013275476196 0.3765271610010543 0
0.2017380871285072 0.4248229367369761 0
0.9241353007756419 0.145289059030825 0
0.04240070592525547 0.4602271127744248 0
0.3751838381220208 0.02587930075048533 0
0.6290597945204778 0.4733909415573981 0
0.9633974596215564 0.03660254037844382 0
0.03660254037844379 0.03660254037844399 0
0.9633974596215562 0.4633974596215562 0
0.2507097548888619 0.07116488348725603 0
0.9230382799441297 0.1899939357768771 0
0.275397783729225 0.4705716369056045 0
0.9250975511916111 0.108650324791965 0
0.6061191257588875 0.1431743162055113 0
0.4984983972953716 0.1314971306512486 0
0.5551465343121442 0.1950507193201935 0
0.9236733438037663 0.2341540952467178 0
0.3663524661227489 0.1022732759844078 0
0.07930068506942639 0.4678020592129658 0
0.3402216265165531 0.07458879830413223 0
0.5074475544354836 0.1784340122279663 0
0.6655681510982256 0.3512385271428288 0
0.0738246178064717 0.344815286257916 0
0.485899208843956 0.37612730534071 0
$EndNodes
$Elements
21 620 1 620
0 1 15 1
1 1 
0 2 15 1
2 2 
0 3 15 1
3 3 
0 4 15 1
4 4 
0 5 15 1
5 5 
0 6 15 1
6 6 
0 7 15 1
7 7 
0 8 15 1
8 8 
0 11 15 1
9 9 
0 12 15 1
10 10 
1 1 1 8
11 1 11 
12 11 12 
13 12 13 
14 13 14 
15 14 15 
16 15 16 
17 16 17 
18 17 2 
1 2 1 8
19 3 18 
20 18 19 
21 19 20 
22 20 21 
23 21 22 
24 22 23 
25 23 24 
26 24 4 
1 3 1 10
27 4 25 
28 25 26 
29 26 27 
30 27 28 
31 28 29 
32 29 30 
33 30 31 
34 31 32 
35 32 33 
36 33 8 
1 4 1 8
37 8 34 
38 34 35 
39 35 36 
40 36 37 
41 37 38 
42 38 39 
43 39 40 
44 40 7 
1 5 1 8
45 6 41 
46 41 42 
47 42 43 
48 43 44 
49 44 45 
50 45 46 
51 46 47 
52 47 5 
1 6 1 10
53 5 48 
54 48 49 
55 49 50 
56 50 51 
57 51 52 
58 52 53 
59 53 54 
60 54 55 
61 55 56 
62 56 1 
1 7 1 4
63 2 57 
64 57 58 
65 58 59 
66 59 9 
1 8 1 4
67 7 60 
68 60 61 
69 61 62 
70 62 10 
1 9 1 4
71 9 63 
72 63 64 
73 64 65 
74 65 3 
1 10 1 4
75 10 66 
76 66 67 
77 67 68 
78 68 6 
2 1 2 542
79 193 194 149 
80 221 224 76 
81 83 190 186 
82 189 241 167 
83 152 210 182 
84 237 274 202 
85 222 223 140 
86 189 191 111 
87 149 194 160 
88 182 298 152 
89 208 231 165 
90 208 232 231 
91 83 192 190 
92 48 286 5 
93 111 241 189 
94 230 233 174 
95 150 162 72 
96 173 226 172 
97 167 241 92 
98 157 263 259 
99 141 274 237 
100 191 245 111 
101 5 286 47 
102 216 218 166 
103 226 292 172 
104 164 273 156 
105 185 187 89 
106 89 188 185 
107 76 278 221 
108 63 151 9 
109 62 150 72 
110 81 279 188 
111 155 193 70 
112 71 167 92 
113 153 167 71 
114 156 273 205 
115 184 227 90 
116 151 297 9 
117 140 224 222 
118 90 275 184 
119 232 233 80 
120 223 239 108 
121 86 288 205 
122 84 287 204 
123 142 229 157 
124 231 232 80 
125 154 204 57 
126 156 205 60 
127 188 269 81 
128 58 154 57 
129 61 156 60 
130 152 298 180 
131 64 155 70 
132 67 153 71 
133 6 243 68 
134 3 244 65 
135 9 271 59 
136 142 300 229 
137 194 244 85 
138 78 247 192 
139 9 297 271 
140 201 274 209 
141 264 270 120 
142 186 243 83 
143 163 164 156 
144 209 274 141 
145 41 243 6 
146 18 244 3 
147 80 233 230 
148 72 163 156 
149 115 212 114 
150 224 225 76 
151 99 245 101 
152 114 212 195 
153 223 267 140 
154 218 276 166 
155 218 219 79 
156 202 260 237 
157 132 209 141 
158 17 287 84 
159 40 288 86 
160 219 221 79 
161 120 270 118 
162 105 213 95 
163 192 277 190 
164 259 263 168 
165 201 209 207 
166 155 244 194 
167 263 271 168 
168 153 243 186 
169 168 271 183 
170 184 275 179 
171 170 272 203 
172 154 300 204 
173 148 209 132 
174 146 233 148 
175 195 213 114 
176 118 212 115 
177 201 207 206 
178 111 245 99 
179 174 299 230 
180 166 254 216 
181 239 280 108 
182 192 294 78 
183 148 233 232 
184 229 263 157 
185 174 233 146 
186 188 279 185 
187 300 302 204 
188 95 213 93 
189 187 257 89 
190 37 206 36 
191 114 213 105 
192 193 296 70 
193 210 252 182 
194 150 195 162 
195 136 252 210 
196 86 199 198 
197 84 197 16 
198 86 198 39 
199 108 267 223 
200 173 236 226 
201 247 277 192 
202 101 245 106 
203 70 296 152 
204 93 249 91 
205 36 206 87 
206 100 196 98 
207 176 242 211 
208 268 277 144 
209 162 163 72 
210 219 222 221 
211 203 272 85 
212 226 236 215 
213 77 203 20 
214 163 270 264 
215 213 249 93 
216 40 86 39 
217 17 84 16 
218 191 277 268 
219 19 85 18 
220 42 83 41 
221 118 270 212 
222 211 242 129 
223 256 275 234 
224 142 157 133 
225 133 196 100 
226 222 224 221 
227 196 240 98 
228 157 259 196 
229 19 203 85 
230 85 272 194 
231 157 196 133 
232 74 206 37 
233 256 295 275 
234 165 255 208 
235 181 300 142 
236 78 284 247 
237 203 281 170 
238 79 276 218 
239 206 207 87 
240 15 197 73 
241 38 198 74 
242 180 298 228 
243 198 200 74 
244 152 296 210 
245 214 226 215 
246 39 198 38 
247 16 197 15 
248 184 262 227 
249 200 201 74 
250 73 226 214 
251 136 210 149 
252 194 272 160 
253 220 223 222 
254 199 202 200 
255 173 239 236 
256 145 246 181 
257 172 246 145 
258 217 220 219 
259 73 214 14 
260 214 215 88 
261 83 294 192 
262 258 273 164 
263 195 212 162 
264 155 194 193 
265 199 200 198 
266 20 203 19 
267 220 222 219 
268 207 208 87 
269 147 242 176 
270 15 73 14 
271 38 74 37 
272 149 296 193 
273 84 246 197 
274 90 227 22 
275 215 217 216 
276 21 77 20 
277 44 78 43 
278 136 149 137 
279 153 186 167 
280 134 142 133 
281 215 216 88 
282 21 227 77 
283 176 211 178 
284 13 214 88 
285 14 214 13 
286 122 136 124 
287 104 105 95 
288 236 239 220 
289 110 228 116 
290 215 236 217 
291 144 238 135 
292 109 228 110 
293 31 231 80 
294 168 183 143 
295 138 143 109 
296 29 230 75 
297 143 228 109 
298 102 133 100 
299 109 110 105 
300 217 219 218 
301 22 227 21 
302 104 109 105 
303 31 80 30 
304 54 79 53 
305 110 115 114 
306 80 230 30 
307 50 81 49 
308 46 89 45 
309 23 234 90 
310 110 116 115 
311 138 168 143 
312 23 90 22 
313 165 231 32 
314 104 138 109 
315 32 231 31 
316 75 235 28 
317 110 114 105 
318 36 87 35 
319 13 88 12 
320 52 76 51 
321 29 75 28 
322 30 230 29 
323 24 234 23 
324 27 235 82 
325 28 235 27 
326 56 166 55 
327 33 165 32 
328 27 82 26 
329 147 176 175 
330 96 104 95 
331 94 95 93 
332 92 93 91 
333 217 236 220 
334 237 260 248 
335 10 150 62 
336 176 178 177 
337 71 91 66 
338 64 70 63 
339 59 69 58 
340 67 71 66 
341 62 72 61 
342 70 151 63 
343 217 218 216 
344 71 92 91 
345 128 237 126 
346 237 248 126 
347 145 181 142 
348 135 238 158 
349 152 180 151 
350 92 94 93 
351 178 184 179 
352 94 96 95 
353 176 177 175 
354 158 187 185 
355 220 239 223 
356 225 253 76 
357 141 237 128 
358 112 144 135 
359 178 179 177 
360 139 140 113 
361 228 303 180 
362 201 206 74 
363 131 147 146 
364 132 141 128 
365 130 264 120 
366 147 175 174 
367 83 243 41 
368 85 244 18 
369 158 185 169 
370 102 134 133 
371 158 238 187 
372 158 169 139 
373 104 240 138 
374 122 252 136 
375 136 137 124 
376 96 240 104 
377 7 288 40 
378 2 287 17 
379 147 174 146 
380 150 249 195 
381 116 117 115 
382 146 148 132 
383 70 152 151 
384 131 146 132 
385 44 257 78 
386 135 158 139 
387 50 253 81 
388 76 253 51 
389 101 106 103 
390 116 182 117 
391 131 132 128 
392 135 139 113 
393 149 160 137 
394 134 145 142 
395 107 108 103 
396 117 118 115 
397 216 254 88 
398 112 135 113 
399 125 129 127 
400 112 113 107 
401 89 257 45 
402 125 126 123 
403 106 112 107 
404 26 256 25 
405 35 255 34 
406 12 254 11 
407 119 122 121 
408 127 131 128 
409 159 173 172 
410 190 191 189 
411 42 294 83 
412 124 125 123 
413 101 103 102 
414 182 252 117 
415 119 120 118 
416 94 97 96 
417 122 124 123 
418 106 107 103 
419 127 128 126 
420 195 249 213 
421 144 247 238 
422 131 242 147 
423 186 189 167 
424 101 102 100 
425 119 121 120 
426 125 127 126 
427 117 119 118 
428 122 123 121 
429 117 252 119 
430 208 283 232 
431 98 240 96 
432 121 130 120 
433 160 170 161 
434 92 241 94 
435 170 171 161 
436 97 98 96 
437 159 172 145 
438 99 101 100 
439 65 155 64 
440 68 153 67 
441 184 265 262 
442 97 111 99 
443 69 154 58 
444 72 156 61 
445 127 242 131 
446 171 265 261 
447 262 265 171 
448 69 229 154 
449 99 100 98 
450 134 159 145 
451 221 278 79 
452 129 242 127 
453 160 161 137 
454 97 99 98 
455 186 190 189 
456 108 250 103 
457 73 292 226 
458 102 250 134 
459 261 265 211 
460 103 250 102 
461 125 251 129 
462 124 251 125 
463 77 281 203 
464 172 292 246 
465 137 251 124 
466 196 259 240 
467 51 253 50 
468 178 265 184 
469 208 255 87 
470 126 248 123 
471 123 248 121 
472 248 260 130 
473 240 259 138 
474 94 241 97 
475 88 254 12 
476 87 255 35 
477 134 250 159 
478 82 256 26 
479 121 248 130 
480 81 269 49 
481 119 252 122 
482 161 251 137 
483 199 258 202 
484 68 243 153 
485 65 244 155 
486 207 283 208 
487 78 294 43 
488 45 257 44 
489 97 241 111 
490 138 259 168 
491 54 276 79 
492 140 267 113 
493 166 276 55 
494 79 278 53 
495 52 278 76 
496 163 264 164 
497 269 286 48 
498 235 285 82 
499 225 282 169 
500 246 292 197 
501 266 297 151 
502 200 274 201 
503 210 296 149 
504 183 303 143 
505 129 261 211 
506 4 289 24 
507 25 289 4 
508 11 290 1 
509 1 290 56 
510 8 291 33 
511 34 291 8 
512 47 301 46 
513 228 298 116 
514 112 268 144 
515 199 273 258 
516 107 267 108 
517 227 262 77 
518 75 293 235 
519 171 261 161 
520 169 282 139 
521 251 261 129 
522 235 293 285 
523 230 299 75 
524 161 261 251 
525 159 280 173 
526 140 282 224 
527 173 280 239 
528 247 284 238 
529 75 299 293 
530 148 283 209 
531 10 306 150 
532 69 263 229 
533 86 273 199 
534 211 265 178 
535 209 283 207 
536 66 306 10 
537 91 306 66 
538 180 266 151 
539 160 272 170 
540 69 271 263 
541 150 306 249 
542 89 301 188 
543 266 303 183 
544 232 283 148 
545 271 297 183 
546 224 282 225 
547 106 268 112 
548 258 260 202 
549 49 269 48 
550 113 267 107 
551 245 268 106 
552 171 281 262 
553 59 271 69 
554 286 301 47 
555 162 270 163 
556 212 270 162 
557 191 268 245 
558 205 273 86 
559 253 305 81 
560 204 287 57 
561 205 288 60 
562 257 284 78 
563 202 274 200 
564 234 275 90 
565 108 280 250 
566 55 276 54 
567 164 304 258 
568 53 278 52 
569 144 277 247 
570 246 302 181 
571 169 305 225 
572 190 277 191 
573 197 292 73 
574 185 279 169 
575 181 302 300 
576 256 289 25 
577 255 291 34 
578 254 290 11 
579 264 304 164 
580 84 302 246 
581 139 282 140 
582 179 285 177 
583 187 284 257 
584 170 281 171 
585 24 289 234 
586 33 291 165 
587 56 290 166 
588 249 306 91 
589 238 284 187 
590 43 294 42 
591 285 293 177 
592 60 288 7 
593 57 287 2 
594 262 281 77 
595 177 293 175 
596 250 280 159 
597 46 301 89 
598 143 303 228 
599 116 298 182 
600 293 299 175 
601 234 289 256 
602 165 291 255 
603 166 290 254 
604 175 299 174 
605 180 303 266 
606 82 295 256 
607 204 302 84 
608 81 305 279 
609 229 300 154 
610 225 305 253 
611 260 304 130 
612 188 286 269 
613 258 304 260 
614 275 295 179 
615 179 295 285 
616 279 305 169 
617 183 297 266 
618 130 304 264 
619 285 295 82 
620 188 301 286 
$EndElements
