$MeshFormat
4.1 0 8
$EndMeshFormat
$Entities
5 5 1 0
1 0 0 0 0 
2 1 0 0 0 
3 1 1 0 0 
4 0 1 0 0 
5 0.6 0.5 0 0 
1 -9.999999994736442e-08 -1e-07 -1e-07 1.0000001 1e-07 1e-07 0 2 1 -2 
2 0.9999999000000001 -9.999999994736442e-08 -1e-07 1.0000001 1.0000001 1e-07 0 2 2 -3 
3 -9.999999994736442e-08 0.9999999000000001 -1e-07 1.0000001 1.0000001 1e-07 0 2 3 -4 
4 -1e-07 -9.999999994736442e-08 -1e-07 1e-07 1.0000001 1e-07 0 2 4 -1 
5 0.3999999 0.3999999 -1e-07 0.6000000999999999 0.6000000999999999 1e-07 0 2 5 -5 
1 -9.999999994736442e-08 -9.999999994736442e-08 -1e-07 1.0000001 1.0000001 1e-07 0 5 1 2 3 4 5 
$EndEntities
$Nodes
11 82 1 82
0 1 0 1
1
0 0 0
0 2 0 1
2
1 0 0
0 3 0 1
3
1 1 0
0 4 0 1
4
0 1 0
0 5 0 1
5
0.6 0.5 0
1 1 0 3
6
7
8
0.2499999999999997 0 0
0.4999999999999988 0 0
0.7499999999999989 0 0
1 2 0 3
9
10
11
1 0.2499999999999997 0
1 0.4999999999999988 0
1 0.7499999999999989 0
1 3 0 3
12
13
14
0.7500000000000003 1 0
0.5000000000000012 1 0
0.2500000000000011 1 0
1 4 0 3
15
16
17
0 0.7500000000000003 0
0 0.5000000000000012 0
0 0.2500000000000011 0
1 5 0 14
18
19
20
21
22
23
24
25
26
27
28
29
30
31
0.5913545457642602 0.54067366430758 0
0.5669130606358859 0.5743144825477393 0
0.5309016994374949 0.5951056516295153 0
0.4895471536732349 0.5994521895368273 0
0.4500000000000002 0.5866025403784441 0
0.4190983005625054 0.5587785252292475 0
0.4021852399266195 0.5207911690817763 0
0.4021852399266194 0.4792088309182244 0
0.4190983005625051 0.4412214747707529 0
0.4499999999999996 0.4133974596215563 0
0.4895471536732344 0.4005478104631727 0
0.5309016994374945 0.4048943483704845 0
0.5669130606358858 0.4256855174522605 0
0.5913545457642601 0.4593263356924199 0
2 1 0 51
32
33
34
35
36
37
38
39
40
41
42
43
44
45
46
47
48
49
50
51
52
53
54
55
56
57
58
59
60
61
62
63
64
65
66
67
68
69
70
71
72
73
74
75
76
77
78
79
80
81
82
0.4065981921390625 0.3921684773418996 0
0.4063794525208161 0.6129074470023687 0
0.6179959891500482 0.4030857733153935 0
0.6148348352947949 0.577610739554006 0
0.5084613297297886 0.6507926028952918 0
0.505179972217943 0.3633997996532883 0
0.3645596033104593 0.501306426102901 0
0.3749999999999992 0.182338348836064 0
0.564637164558896 0.185395933558991 0
0.3750000000000012 0.8176616511639366 0
0.5686848814234791 0.8188985086414549 0
0.1637099657138628 0.6373770229922832 0
0.1882248316015218 0.407372713259362 0
0.8238913056679419 0.3714322314119671 0
0.8306312462806692 0.5591509624417034 0
0.7888786479360401 0.8239763149275403 0
0.725583990185209 0.4805085328953722 0
0.6903930830924689 0.3818419901399709 0
0.6133541494630798 0.3154947204484088 0
0.7154640999095193 0.2339426631474344 0
0.1734925868147649 0.8203560932125611 0
0.6559008794560066 0.7110302819533674 0
0.1883886580225554 0.2220340160311864 0
0.3080001682122833 0.3045026952421984 0
0.2396500874723839 0.5341253739511328 0
0.6468788795527909 0.4591068002548868 0
0.642310878137458 0.5257165798977784 0
0.6868074902918827 0.595006308083423 0
0.4685368688817385 0.2525358053139168 0
0.4717489272298542 0.7379288514080814 0
0.3778786462700197 0.696601040233042 0
0.559717164868582 0.7138854308316022 0
0.4442144646424321 0.6716902237824964 0
0.3131517796441243 0.6189228563819006 0
0.3759235005884971 0.555497479804049 0
0.5878398501932945 0.6355868251883023 0
0.5626744661944989 0.3674962305614781 0
0.2725320126846031 0.7178734906031452 0
0.8505088966747307 0.1494911033252687 0
0.5307954415462723 0.2993373337694365 0
0.4442144646424311 0.3283097762175041 0
0.3749398692024303 0.3396563806473205 0
0.3266666939953319 0.3936329304640121 0
0.3706002296587377 0.4466779072021695 0
0.3191320213919326 0.5384446756491386 0
0.3044933480184483 0.4725293036152269 0
0.7924436527929197 0.6878327734812066 0
0.4591722082683448 0.6258845835276823 0
0.4587346914264016 0.3768680345998678 0
0.1478962211969422 0.5197187775506948 0
0.3955439739442508 0.2778246965144252 0
$EndNodes
$Elements
11 169 1 169
0 1 15 1
1 1 
0 2 15 1
2 2 
0 3 15 1
3 3 
0 4 15 1
4 4 
0 5 15 1
5 5 
1 1 1 4
6 1 6 
7 6 7 
8 7 8 
9 8 2 
1 2 1 4
10 2 9 
11 9 10 
12 10 11 
13 11 3 
1 3 1 4
14 3 12 
15 12 13 
16 13 14 
17 14 4 
1 4 1 4
18 4 15 
19 15 16 
20 16 17 
21 17 1 
1 5 1 15
22 5 18 
23 18 19 
24 19 20 
25 20 21 
26 21 22 
27 22 23 
28 23 24 
29 24 25 
30 25 26 
31 26 27 
32 27 28 
33 28 29 
34 29 30 
35 30 31 
36 31 5 
2 1 2 133
37 46 48 45 
38 8 51 40 
39 11 78 46 
40 49 57 34 
41 41 61 42 
42 40 60 39 
43 19 67 20 
44 61 64 36 
45 16 81 43 
46 31 57 5 
47 6 54 1 
48 3 47 11 
49 39 82 55 
50 12 47 3 
51 42 47 12 
52 1 54 17 
53 42 53 47 
54 33 64 62 
55 47 78 11 
56 17 54 44 
57 10 46 45 
58 34 68 50 
59 11 46 10 
60 17 44 16 
61 39 54 6 
62 13 42 12 
63 8 40 7 
64 51 70 45 
65 5 58 18 
66 7 40 39 
67 41 42 13 
68 74 77 44 
69 34 50 49 
70 36 63 61 
71 16 43 15 
72 59 67 35 
73 46 59 48 
74 35 67 19 
75 65 66 33 
76 34 57 31 
77 49 51 45 
78 39 55 54 
79 7 39 6 
80 14 41 13 
81 62 65 33 
82 20 67 36 
83 10 45 9 
84 37 71 68 
85 37 72 71 
86 50 71 40 
87 54 55 44 
88 55 82 73 
89 55 74 44 
90 18 58 35 
91 72 80 32 
92 33 79 64 
93 8 70 51 
94 64 79 36 
95 37 80 72 
96 4 52 14 
97 15 52 4 
98 43 69 52 
99 32 75 74 
100 43 52 15 
101 45 70 9 
102 48 57 49 
103 53 67 59 
104 14 52 41 
105 57 58 5 
106 40 51 50 
107 56 65 43 
108 36 67 63 
109 56 76 65 
110 41 69 62 
111 52 69 41 
112 38 77 75 
113 32 74 73 
114 32 73 72 
115 48 49 45 
116 44 77 56 
117 42 63 53 
118 2 70 8 
119 9 70 2 
120 32 80 27 
121 22 79 33 
122 65 76 66 
123 44 81 16 
124 62 64 61 
125 26 75 32 
126 28 80 37 
127 36 79 21 
128 30 68 34 
129 68 71 50 
130 38 75 25 
131 18 35 19 
132 30 34 31 
133 33 66 23 
134 21 79 22 
135 27 80 28 
136 26 32 27 
137 22 33 23 
138 37 68 29 
139 48 58 57 
140 24 66 38 
141 24 38 25 
142 20 36 21 
143 28 37 29 
144 41 62 61 
145 25 75 26 
146 46 78 59 
147 65 69 43 
148 29 68 30 
149 23 66 24 
150 71 72 60 
151 58 59 35 
152 40 71 60 
153 66 76 38 
154 62 69 65 
155 50 51 49 
156 61 63 42 
157 59 78 53 
158 75 77 74 
159 63 67 53 
160 76 77 38 
161 53 78 47 
162 60 82 39 
163 73 74 55 
164 43 81 56 
165 56 81 44 
166 73 82 72 
167 56 77 76 
168 72 82 60 
169 48 59 58 
$EndElements
