$MeshFormat
4.1 0 8
$EndMeshFormat
$Entities
5 5 1 0
1 0 0 0 0 
2 1 0 0 0 
3 1 1 0 0 
4 0 1 0 0 
5 0.6 0.5 0 0 
1 -9.999999994736442e-08 -1e-07 -1e-07 1.0000001 1e-07 1e-07 0 2 1 -2 
2 0.9999999000000001 -9.999999994736442e-08 -1e-07 1.0000001 1.0000001 1e-07 0 2 2 -3 
3 -9.999999994736442e-08 0.9999999000000001 -1e-07 1.0000001 1.0000001 1e-07 0 2 3 -4 
4 -1e-07 -9.999999994736442e-08 -1e-07 1e-07 1.0000001 1e-07 0 2 4 -1 
5 0.3999999 0.3999999 -1e-07 0.6000000999999999 0.6000000999999999 1e-07 0 2 5 -5 
1 -9.999999994736442e-08 -9.999999994736442e-08 -1e-07 1.0000001 1.0000001 1e-07 0 5 1 2 3 4 5 
$EndEntities
$Nodes
11 140 1 140
0 1 0 1
1
0 0 0
0 2 0 1
2
1 0 0
0 3 0 1
3
1 1 0
0 4 0 1
4
0 1 0
0 5 0 1
5
0.6 0.5 0
1 1 0 4
6
7
8
9
0.2 0 0
0.4 0 0
0.6 0 0
0.8 0 0
1 2 0 4
10
11
12
13
1 0.2 0
1 0.4 0
1 0.6 0
1 0.8 0
1 3 0 4
14
15
16
17
0.8 1 0
0.6 1 0
0.4 1 0
0.2 1 0
1 4 0 4
18
19
20
21
0 0.8 0
0 0.6 0
0 0.4 0
0 0.2 0
1 5 0 22
22
23
24
25
26
27
28
29
30
31
32
33
34
35
36
37
38
39
40
41
42
43
0.59629172873478 0.5269796771157025 0
0.5854419404546488 0.5519583950035434 0
0.5682553143218654 0.5730835964278124 0
0.5460065037731152 0.5887885218402376 0
0.5203456013052633 0.5979084087682323 0
0.4931757586635328 0.5997668769190539 0
0.4665120387829013 0.5942260922118821 0
0.4423319677885131 0.5816969893010441 0
0.4224288709295578 0.5631087944326051 0
0.4082788698494546 0.5398401089846239 0
0.4009314053963668 0.5136166649096243 0
0.400931405396367 0.4863833350903749 0
0.4082788698494549 0.4601598910153754 0
0.4224288709295583 0.4368912055673943 0
0.4423319677885138 0.4183030106989554 0
0.466512038782902 0.4057739077881177 0
0.4931757586635336 0.4002331230809461 0
0.520345601305264 0.4020915912317679 0
0.5460065037731155 0.4112114781597627 0
0.5682553143218656 0.4269164035721878 0
0.585441940454649 0.4480416049964568 0
0.59629172873478 0.4730203228842976 0
2 1 0 97
44
45
46
47
48
49
50
51
52
53
54
55
56
57
58
59
60
61
62
63
64
65
66
67
68
69
70
71
72
73
74
75
76
77
78
79
80
81
82
83
84
85
86
87
88
89
90
91
92
93
94
95
96
97
98
99
100
101
102
103
104
105
106
107
108
109
110
111
112
113
114
115
116
117
118
119
120
121
122
123
124
125
126
127
128
129
130
131
132
133
134
135
136
137
138
139
140
0.4162825703924717 0.5896394793606621 0
0.4184907726272331 0.4110498800233691 0
0.5951427021025404 0.4215595392951419 0
0.5964590216359559 0.5783630787440064 0
0.3753379420707754 0.4998951787863546 0
0.5410741062984749 0.384428541274571 0
0.5425020541064898 0.6159498230068253 0
0.624196750925523 0.4823189452098007 0
0.4743533870836178 0.3768450790454099 0
0.4772950799956021 0.6251498253293966 0
0.7035467445154215 0.1609933368822674 0
0.7138504579625082 0.8541394878774728 0
0.1519206566274489 0.2939804407289212 0
0.1585032341881716 0.6968538137636765 0
0.8267949192431123 0.5 0
0.1183183257759992 0.5010236135651878 0
0.2759682340823962 0.603465063026688 0
0.85449247603228 0.6736162390631282 0
0.7444832651634539 0.5977866837095425 0
0.8628034629416617 0.3225595386386486 0
0.7423001070494676 0.3789523487263298 0
0.6138420048067466 0.4492404056157145 0
0.630929872631955 0.4133464308920021 0
0.6037070675595771 0.3808259210072042 0
0.6485318916596877 0.3644852327298848 0
0.5961955962790975 0.3233145170247158 0
0.5078104106144351 0.1548744186014485 0
0.3432529009316072 0.1645305195024184 0
0.6143180647796176 0.5496651866410344 0
0.6314418401167202 0.5751800984479468 0
0.6154609320436577 0.6160942378404389 0
0.6541477071030761 0.5445127958381561 0
0.3927309894502027 0.5702060488813961 0
0.3805874683727269 0.6017073722642047 0
0.4128123446657123 0.6335930157020957 0
0.6575740119036048 0.459466683043218 0
0.5125914916899851 0.6280027711625149 0
0.5440656282321498 0.6558742598911017 0
0.5010628955322807 0.6690446701725112 0
0.5271124168788741 0.8424482804265117 0
0.3269611215605512 0.8422835362297898 0
0.4355616660935619 0.2686370923312374 0
0.3818949688792406 0.5330914778169011 0
0.3480035276152912 0.5190984741033966 0
0.3456913739899447 0.4687045852745991 0
0.297790541224691 0.5094777229651525 0
0.2796462268864613 0.4416415313620564 0
0.3468971653138074 0.3856881691734045 0
0.5407591318831027 0.7230550968009086 0
0.4732489000789067 0.73530953763611 0
0.3428530427353081 0.2905666016962236 0
0.6795502050819154 0.2872446127227911 0
0.3447861960600815 0.570482749426289 0
0.4421724268608844 0.3898393479252404 0
0.4024705447498717 0.3762541149634914 0
0.4413869158237189 0.3450163567209812 0
0.4865211352235614 0.329824254058982 0
0.5294004480665694 0.2778120293143392 0
0.6152362277779461 0.2378494167229739 0
0.5970353568093393 0.6813417115347276 0
0.6759868681346073 0.6575004068574537 0
0.5900319737985775 0.7644197531929706 0
0.7357636176360211 0.4952989768020408 0
0.5736257335768344 0.6003620302495698 0
0.2583074935820334 0.3427215796060198 0
0.179620977551153 0.4089429451313639 0
0.3836368314385676 0.4701508061979353 0
0.3884013126173593 0.4341094851636773 0
0.6247452403807093 0.5172461008007823 0
0.6673759681830606 0.5066522262893289 0
0.1622658828277219 0.8428300170527216 0
0.169097004091347 0.1497005006093383 0
0.8557131357102965 0.1562319747095119 0
0.8525597232222744 0.8424332804591983 0
0.5078309307633482 0.3736268690539892 0
0.4018548696293352 0.3200917689650363 0
0.3463960721529963 0.6376526716013773 0
0.3801586887117583 0.7045291762361764 0
0.2814530148755971 0.7195908615042623 0
0.5384693081793399 0.3423851024071378 0
0.7521026606431439 0.7268497459988918 0
0.5706632210834269 0.3983743811708495 0
0.4542801292300473 0.6610110466127087 0
0.443571481878292 0.6089020965029144 0
0.7679286068046958 0.2538389727361557 0
0.5734525428263231 0.6309423532680531 0
0.5697936324449884 0.3653044037162294 0
0.6811946346801235 0.4165953397397502 0
0.2229539158187775 0.5126018133157375 0
0.1640717269498962 0.5908663301941776 0
0.6715581822851575 0.5886906797892523 0
0.6946657480741538 0.5465882724856641 0
0.6571695179043346 0.7539804007729443 0
0.617632873308859 0.8429975844539799 0
0.4214962254460181 0.8249141061057177 0
0.6066483457269507 0.1384292930516725 0
0.2530862195935489 0.2482999284285842 0
$EndNodes
$Elements
11 285 1 285
0 1 15 1
1 1 
0 2 15 1
2 2 
0 3 15 1
3 3 
0 4 15 1
4 4 
0 5 15 1
5 5 
1 1 1 5
6 1 6 
7 6 7 
8 7 8 
9 8 9 
10 9 2 
1 2 1 5
11 2 10 
12 10 11 
13 11 12 
14 12 13 
15 13 3 
1 3 1 5
16 3 14 
17 14 15 
18 15 16 
19 16 17 
20 17 4 
1 4 1 5
21 4 18 
22 18 19 
23 19 20 
24 20 21 
25 21 1 
1 5 1 23
26 5 22 
27 22 23 
28 23 24 
29 24 25 
30 25 26 
31 26 27 
32 27 28 
33 28 29 
34 29 30 
35 30 31 
36 31 32 
37 32 33 
38 33 34 
39 34 35 
40 35 36 
41 36 37 
42 37 38 
43 38 39 
44 39 40 
45 40 41 
46 41 42 
47 42 43 
48 43 5 
2 1 2 237
49 45 111 98 
50 62 135 106 
51 69 123 101 
52 69 130 123 
53 87 96 89 
54 95 128 64 
55 61 62 58 
56 58 64 63 
57 60 132 89 
58 94 119 91 
59 78 120 77 
60 18 114 4 
61 70 85 71 
62 1 115 21 
63 106 113 79 
64 85 100 99 
65 68 95 64 
66 79 131 106 
67 54 139 8 
68 73 134 74 
69 4 114 17 
70 6 115 1 
71 15 137 55 
72 17 114 84 
73 70 71 7 
74 57 114 18 
75 71 115 6 
76 21 115 56 
77 20 109 59 
78 58 63 11 
79 12 61 58 
80 12 58 11 
81 89 96 60 
82 56 109 20 
83 19 133 57 
84 62 106 58 
85 58 106 64 
86 83 93 92 
87 9 54 8 
88 15 55 14 
89 19 57 18 
90 21 56 20 
91 92 105 83 
92 16 138 83 
93 17 84 16 
94 7 71 6 
95 91 108 94 
96 62 124 104 
97 2 116 9 
98 14 117 3 
99 60 122 57 
100 60 133 132 
101 9 116 54 
102 55 117 14 
103 121 126 93 
104 85 119 94 
105 91 111 88 
106 101 123 100 
107 16 83 15 
108 8 70 7 
109 20 59 19 
110 57 133 60 
111 10 116 2 
112 3 117 13 
113 93 138 121 
114 59 133 19 
115 85 101 100 
116 99 119 85 
117 13 61 12 
118 11 63 10 
119 64 128 63 
120 98 111 91 
121 57 122 114 
122 64 131 68 
123 80 82 53 
124 76 96 86 
125 95 102 54 
126 85 94 71 
127 108 140 94 
128 70 101 85 
129 63 116 10 
130 13 117 61 
131 101 102 69 
132 114 122 84 
133 78 126 121 
134 84 138 16 
135 56 140 108 
136 74 134 104 
137 120 122 60 
138 61 124 62 
139 78 121 120 
140 86 96 87 
141 30 76 31 
142 70 102 101 
143 106 131 64 
144 43 65 51 
145 108 109 56 
146 26 80 27 
147 126 127 53 
148 42 65 43 
149 37 97 52 
150 84 122 121 
151 36 97 37 
152 104 134 62 
153 27 80 53 
154 83 137 15 
155 90 109 108 
156 34 111 35 
157 90 91 88 
158 76 86 31 
159 55 124 117 
160 8 139 70 
161 35 111 45 
162 103 129 74 
163 121 138 84 
164 54 128 95 
165 132 133 59 
166 81 129 103 
167 66 79 65 
168 74 107 47 
169 115 140 56 
170 67 130 69 
171 41 46 42 
172 23 47 24 
173 117 124 61 
174 93 126 82 
175 88 110 48 
176 29 44 30 
177 35 45 36 
178 74 104 103 
179 82 126 53 
180 100 118 52 
181 136 137 105 
182 46 125 67 
183 116 128 54 
184 72 112 75 
185 37 52 38 
186 27 53 28 
187 81 103 92 
188 43 51 5 
189 25 50 26 
190 39 49 40 
191 32 48 33 
192 90 132 109 
193 41 125 46 
194 23 72 47 
195 47 107 24 
196 40 125 41 
197 22 72 23 
198 98 99 97 
199 65 79 51 
200 104 136 103 
201 24 107 25 
202 67 69 68 
203 106 135 113 
204 49 125 40 
205 51 113 112 
206 44 127 78 
207 33 110 34 
208 25 107 50 
209 5 112 22 
210 97 99 52 
211 29 127 44 
212 124 136 104 
213 31 86 32 
214 38 118 39 
215 66 131 79 
216 103 136 105 
217 28 127 29 
218 71 140 115 
219 51 112 5 
220 46 67 66 
221 90 108 91 
222 48 110 33 
223 52 118 38 
224 44 76 30 
225 53 127 28 
226 39 118 49 
227 32 86 48 
228 78 127 126 
229 22 112 72 
230 94 140 71 
231 70 139 102 
232 46 65 42 
233 96 120 60 
234 77 120 96 
235 83 138 93 
236 45 97 36 
237 50 80 26 
238 73 74 47 
239 99 100 52 
240 98 119 99 
241 63 128 116 
242 69 102 95 
243 103 105 92 
244 72 73 47 
245 113 135 75 
246 89 90 88 
247 87 88 48 
248 121 122 120 
249 69 95 68 
250 86 87 48 
251 109 132 59 
252 68 131 66 
253 44 78 77 
254 110 111 34 
255 55 137 136 
256 112 113 75 
257 72 75 73 
258 118 123 49 
259 79 113 51 
260 92 93 82 
261 81 92 82 
262 81 82 80 
263 50 81 80 
264 46 66 65 
265 105 137 83 
266 77 96 76 
267 67 68 66 
268 89 132 90 
269 74 129 107 
270 50 129 81 
271 87 89 88 
272 49 130 125 
273 55 136 124 
274 123 130 49 
275 75 134 73 
276 100 123 118 
277 44 77 76 
278 107 129 50 
279 45 98 97 
280 102 139 54 
281 75 135 134 
282 125 130 67 
283 134 135 62 
284 88 111 110 
285 91 119 98 
$EndElements
