$MeshFormat
4.1 0 8
$EndMeshFormat
$Entities
5 5 1 0
1 0 0 0 0 
2 1 0 0 0 
3 1 1 0 0 
4 0 1 0 0 
5 0.6 0.5 0 0 
1 -9.999999994736442e-08 -1e-07 -1e-07 1.0000001 1e-07 1e-07 0 2 1 -2 
2 0.9999999000000001 -9.999999994736442e-08 -1e-07 1.0000001 1.0000001 1e-07 0 2 2 -3 
3 -9.999999994736442e-08 0.9999999000000001 -1e-07 1.0000001 1.0000001 1e-07 0 2 3 -4 
4 -1e-07 -9.999999994736442e-08 -1e-07 1e-07 1.0000001 1e-07 0 2 4 -1 
5 0.3999999 0.3999999 -1e-07 0.6000000999999999 0.6000000999999999 1e-07 0 2 5 -5 
1 -9.999999994736442e-08 -9.999999994736442e-08 -1e-07 1.0000001 1.0000001 1e-07 0 5 1 2 3 4 5 
$EndEntities
$Nodes
11 52 1 52
0 1 0 1
1
0 0 0
0 2 0 1
2
1 0 0
0 3 0 1
3
1 1 0
0 4 0 1
4
0 1 0
0 5 0 1
5
0.6 0.5 0
1 1 0 2
6
7
0.3333333333333334 0 0
0.6666666666666667 0 0
1 2 0 2
8
9
1 0.3333333333333334 0
1 0.6666666666666667 0
1 3 0 2
10
11
0.6666666666666666 1 0
0.3333333333333333 1 0
1 4 0 2
12
13
0 0.6666666666666666 0
0 0.3333333333333333 0
1 5 0 11
14
15
16
17
18
19
20
21
22
23
24
0.5866025403784438 0.55 0
0.55 0.5866025403784438 0
0.4999999999999999 0.6 0
0.4499999999999998 0.5866025403784437 0
0.413397459621556 0.5499999999999998 0
0.4 0.4999999999999996 0
0.4133974596215564 0.4499999999999995 0
0.4500000000000006 0.4133974596215558 0
0.5000000000000007 0.4 0
0.5500000000000004 0.4133974596215564 0
0.5866025403784439 0.4500000000000002 0
2 1 0 28
25
26
27
28
29
30
31
32
33
34
35
36
37
38
39
40
41
42
43
44
45
46
47
48
49
50
51
52
0.6155625059817308 0.3777417971373266 0
0.395802755320273 0.6121466785293859 0
0.6109494148793446 0.6128316319877783 0
0.3939681337951976 0.3868853970140648 0
0.8228062807728246 0.495454369616826 0
0.8058795398026064 0.2413639284257424 0
0.7927225863230754 0.7227332074881921 0
0.4671845543837529 0.1984067278185428 0
0.2319853910261592 0.2004764256880672 0
0.4674727680204052 0.8014112621406061 0
0.2245281349904573 0.8026134093095898 0
0.1686429459273766 0.5007127906044341 0
0.6347323009479728 0.2465399204376819 0
0.5368408188850406 0.325210772756563 0
0.4488080075110299 0.3382918585225377 0
0.2465399204376818 0.3652676990520269 0
0.3260831041868956 0.4364501612283198 0
0.3174714144155241 0.5527792533650375 0
0.6347323009479729 0.7534600795623185 0
0.5361200059740846 0.6731877970908129 0
0.4493779271289196 0.6610372356547983 0
0.2115029057584226 0.6431294511470539 0
0.7191297287765108 0.5929006015816621 0
0.6355299776340184 0.5462733139624183 0
0.6674912240359105 0.4762247113208437 0
0.7110719904281739 0.3728559471666126 0
0.3468720334587551 0.6928751357895414 0
0.3468260205150113 0.3097846368448351 0
$EndNodes
$Elements
11 109 1 109
0 1 15 1
1 1 
0 2 15 1
2 2 
0 3 15 1
3 3 
0 4 15 1
4 4 
0 5 15 1
5 5 
1 1 1 3
6 1 6 
7 6 7 
8 7 2 
1 2 1 3
9 2 8 
10 8 9 
11 9 3 
1 3 1 3
12 3 10 
13 10 11 
14 11 4 
1 4 1 3
15 4 12 
16 12 13 
17 13 1 
1 5 1 12
18 5 14 
19 14 15 
20 15 16 
21 16 17 
22 17 18 
23 18 19 
24 19 20 
25 20 21 
26 21 22 
27 22 23 
28 23 24 
29 24 5 
2 1 2 80
30 15 44 16 
31 22 38 23 
32 19 41 20 
33 12 46 35 
34 16 45 17 
35 18 42 19 
36 21 39 22 
37 1 33 13 
38 2 30 7 
39 10 31 3 
40 12 35 4 
41 34 51 45 
42 39 52 32 
43 27 47 43 
44 8 30 2 
45 3 31 9 
46 6 33 1 
47 4 35 11 
48 33 40 13 
49 30 37 7 
50 10 43 31 
51 27 44 15 
52 23 38 25 
53 20 41 28 
54 26 51 42 
55 25 49 24 
56 27 48 47 
57 41 52 28 
58 17 45 26 
59 26 42 18 
60 28 39 21 
61 7 32 6 
62 9 29 8 
63 11 34 10 
64 13 36 12 
65 49 50 29 
66 24 49 5 
67 25 38 37 
68 43 44 27 
69 48 49 47 
70 31 47 29 
71 44 45 16 
72 22 39 38 
73 19 42 41 
74 35 51 34 
75 32 52 33 
76 47 49 29 
77 37 50 25 
78 29 50 30 
79 25 50 49 
80 7 37 32 
81 13 40 36 
82 34 43 10 
83 38 39 32 
84 41 42 36 
85 34 45 44 
86 42 51 46 
87 14 48 27 
88 29 30 8 
89 11 35 34 
90 9 31 29 
91 32 33 6 
92 28 52 39 
93 45 51 26 
94 20 28 21 
95 23 25 24 
96 17 26 18 
97 14 27 15 
98 5 48 14 
99 43 47 31 
100 42 46 36 
101 36 46 12 
102 40 52 41 
103 40 41 36 
104 37 38 32 
105 34 44 43 
106 5 49 48 
107 30 50 37 
108 46 51 35 
109 33 52 40 
$EndElements
